<svg width="361" height="541" viewBox="0 0 361 541" fill="none" xmlns="http://www.w3.org/2000/svg">
<path d="M330.056 1H30.9444C14.4066 1 1 14.4066 1 30.9445V510.056C1 526.593 14.4066 540 30.9444 540H330.056C346.593 540 360 526.593 360 510.056V30.9445C360 14.4066 346.593 1 330.056 1Z" fill="white" stroke="black"/>
<path d="M15.5 30.5L10.5 37.5V44.5L15.5 37.5V80.5H20.5V30.5H15.5Z" fill="#FF5555"/>
<path d="M35.5 30.5C29.96 30.5 25.5 34.96 25.5 40.5V70.5C25.5 76.04 29.96 80.5 35.5 80.5C41.04 80.5 45.5 76.04 45.5 70.5V40.5C45.5 34.96 41.04 30.5 35.5 30.5ZM35.5 35.5C38.27 35.5 40.5 37.73 40.5 40.5V70.5C40.5 73.27 38.27 75.5 35.5 75.5C32.73 75.5 30.5 73.27 30.5 70.5V40.5C30.5 37.73 32.73 35.5 35.5 35.5Z" fill="#FF5555"/>
<path d="M345.5 510.5L350.5 503.5V496.5L345.5 503.5V460.5H340.5V510.5H345.5Z" fill="#FF5555"/>
<path d="M325.5 510.5C331.04 510.5 335.5 506.04 335.5 500.5V470.5C335.5 464.96 331.04 460.5 325.5 460.5C319.96 460.5 315.5 464.96 315.5 470.5V500.5C315.5 506.04 319.96 510.5 325.5 510.5ZM325.5 505.5C322.73 505.5 320.5 503.27 320.5 500.5V470.5C320.5 467.73 322.73 465.5 325.5 465.5C328.27 465.5 330.5 467.73 330.5 470.5V500.5C330.5 503.27 328.27 505.5 325.5 505.5Z" fill="#FF5555"/>
<path d="M90.5 45.5C90.5 45.5 96.5 60.5 103.5 70.5C110.5 80.5 120.5 90.5 120.5 90.5C120.5 90.5 110.5 100.5 103.5 110.5C96.5 120.5 90.5 135.5 90.5 135.5C90.5 135.5 84.5 120.5 77.5 110.5C70.5 100.5 60.5 90.5 60.5 90.5C60.5 90.5 70.5 80.5 77.5 70.5C84.5 60.5 90.5 45.5 90.5 45.5Z" fill="#FF5555"/>
<path d="M270.5 45.5C270.5 45.5 276.5 60.5 283.5 70.5C290.5 80.5 300.5 90.5 300.5 90.5C300.5 90.5 290.5 100.5 283.5 110.5C276.5 120.5 270.5 135.5 270.5 135.5C270.5 135.5 264.5 120.5 257.5 110.5C250.5 100.5 240.5 90.5 240.5 90.5C240.5 90.5 250.5 80.5 257.5 70.5C264.5 60.5 270.5 45.5 270.5 45.5Z" fill="#FF5555"/>
<path d="M180.5 105.5C180.5 105.5 186.5 120.5 193.5 130.5C200.5 140.5 210.5 150.5 210.5 150.5C210.5 150.5 200.5 160.5 193.5 170.5C186.5 180.5 180.5 195.5 180.5 195.5C180.5 195.5 174.5 180.5 167.5 170.5C160.5 160.5 150.5 150.5 150.5 150.5C150.5 150.5 160.5 140.5 167.5 130.5C174.5 120.5 180.5 105.5 180.5 105.5Z" fill="#FF5555"/>
<path d="M90.5 165.5C90.5 165.5 96.5 180.5 103.5 190.5C110.5 200.5 120.5 210.5 120.5 210.5C120.5 210.5 110.5 220.5 103.5 230.5C96.5 240.5 90.5 255.5 90.5 255.5C90.5 255.5 84.5 240.5 77.5 230.5C70.5 220.5 60.5 210.5 60.5 210.5C60.5 210.5 70.5 200.5 77.5 190.5C84.5 180.5 90.5 165.5 90.5 165.5Z" fill="#FF5555"/>
<path d="M270.5 165.5C270.5 165.5 276.5 180.5 283.5 190.5C290.5 200.5 300.5 210.5 300.5 210.5C300.5 210.5 290.5 220.5 283.5 230.5C276.5 240.5 270.5 255.5 270.5 255.5C270.5 255.5 264.5 240.5 257.5 230.5C250.5 220.5 240.5 210.5 240.5 210.5C240.5 210.5 250.5 200.5 257.5 190.5C264.5 180.5 270.5 165.5 270.5 165.5Z" fill="#FF5555"/>
<path d="M90.5 285.5C90.5 285.5 96.5 300.5 103.5 310.5C110.5 320.5 120.5 330.5 120.5 330.5C120.5 330.5 110.5 340.5 103.5 350.5C96.5 360.5 90.5 375.5 90.5 375.5C90.5 375.5 84.5 360.5 77.5 350.5C70.5 340.5 60.5 330.5 60.5 330.5C60.5 330.5 70.5 320.5 77.5 310.5C84.5 300.5 90.5 285.5 90.5 285.5Z" fill="#FF5555"/>
<path d="M270.5 285.5C270.5 285.5 276.5 300.5 283.5 310.5C290.5 320.5 300.5 330.5 300.5 330.5C300.5 330.5 290.5 340.5 283.5 350.5C276.5 360.5 270.5 375.5 270.5 375.5C270.5 375.5 264.5 360.5 257.5 350.5C250.5 340.5 240.5 330.5 240.5 330.5C240.5 330.5 250.5 320.5 257.5 310.5C264.5 300.5 270.5 285.5 270.5 285.5Z" fill="#FF5555"/>
<path d="M180.5 345.5C180.5 345.5 186.5 360.5 193.5 370.5C200.5 380.5 210.5 390.5 210.5 390.5C210.5 390.5 200.5 400.5 193.5 410.5C186.5 420.5 180.5 435.5 180.5 435.5C180.5 435.5 174.5 420.5 167.5 410.5C160.5 400.5 150.5 390.5 150.5 390.5C150.5 390.5 160.5 380.5 167.5 370.5C174.5 360.5 180.5 345.5 180.5 345.5Z" fill="#FF5555"/>
<path d="M90.5 405.5C90.5 405.5 96.5 420.5 103.5 430.5C110.5 440.5 120.5 450.5 120.5 450.5C120.5 450.5 110.5 460.5 103.5 470.5C96.5 480.5 90.5 495.5 90.5 495.5C90.5 495.5 84.5 480.5 77.5 470.5C70.5 460.5 60.5 450.5 60.5 450.5C60.5 450.5 70.5 440.5 77.5 430.5C84.5 420.5 90.5 405.5 90.5 405.5Z" fill="#FF5555"/>
<path d="M270.5 405.5C270.5 405.5 276.5 420.5 283.5 430.5C290.5 440.5 300.5 450.5 300.5 450.5C300.5 450.5 290.5 460.5 283.5 470.5C276.5 480.5 270.5 495.5 270.5 495.5C270.5 495.5 264.5 480.5 257.5 470.5C250.5 460.5 240.5 450.5 240.5 450.5C240.5 450.5 250.5 440.5 257.5 430.5C264.5 420.5 270.5 405.5 270.5 405.5Z" fill="#FF5555"/>
<path d="M30.5 90.5C30.5 90.5 33.5 98 37 103C40.5 108 45.5 113 45.5 113C45.5 113 40.5 118 37 123C33.5 128 30.5 135.5 30.5 135.5C30.5 135.5 27.5 128 24 123C20.5 118 15.5 113 15.5 113C15.5 113 20.5 108 24 103C27.5 98 30.5 90.5 30.5 90.5Z" fill="#FF5555"/>
<path d="M330.5 405.5C330.5 405.5 333.5 413 337 418C340.5 423 345.5 428 345.5 428C345.5 428 340.5 433 337 438C333.5 443 330.5 450.5 330.5 450.5C330.5 450.5 327.5 443 324 438C320.5 433 315.5 428 315.5 428C315.5 428 320.5 423 324 418C327.5 413 330.5 405.5 330.5 405.5Z" fill="#FF5555"/>
</svg>
