<svg width="361" height="541" viewBox="0 0 361 541" fill="none" xmlns="http://www.w3.org/2000/svg">
<path d="M330.056 1H30.9444C14.4066 1 1 14.4066 1 30.9445V510.056C1 526.593 14.4066 540 30.9444 540H330.056C346.593 540 360 526.593 360 510.056V30.9445C360 14.4066 346.593 1 330.056 1Z" fill="white" stroke="black"/>
<path d="M28 30.5L19 80.5H24L26.3438 67.5H34.6562L37 80.5H42L33 30.5H28ZM30.5 44.4062L33.75 62.5H27.25L30.5 44.4062Z" fill="black"/>
<path d="M328 510.5L319 460.5H324L326.344 473.5H334.656L337 460.5H342L333 510.5H328ZM330.5 496.594L333.75 478.5H327.25L330.5 496.594Z" fill="black"/>
<path d="M185.5 281.5C186.5 285.5 190.5 295.5 197.5 295.5C206.5 295.5 210.5 287.5 210.5 277.5C210.5 270.5 207.921 265.888 205.5 260.5C202.922 254.763 199.121 249.643 195.5 244.5C190.855 237.902 180.5 225.5 180.5 225.5C180.5 225.5 170.145 237.902 165.5 244.5C161.879 249.643 158.078 254.763 155.5 260.5C153.079 265.888 150.5 270.5 150.5 277.5C150.5 287.5 154.5 295.5 163.5 295.5C170.5 295.5 174.5 285.5 175.5 281.5C176.5 280.5 176.5 281.5 176.5 282.5C175.5 290.5 175.5 292.5 174.5 298.5C173.5 304.5 170.5 315.5 170.5 315.5C175.5 313.5 185.5 313.5 190.5 315.5C190.5 315.5 187.5 304.5 186.5 298.5C185.5 292.5 185.5 290.5 184.5 282.5C184.5 281.5 184.5 280.5 185.5 281.5Z" fill="black"/>
<path d="M33 118.5C33.5 120.5 35.5 125.5 39 125.5C43.5 125.5 45.5 121.5 45.5 116.5C45.5 113 44.2105 110.694 43 108C41.7111 105.132 39.8103 102.571 38 100C35.6773 96.701 30.5 90.5 30.5 90.5C30.5 90.5 25.3226 96.701 23 100C21.1897 102.571 19.2889 105.132 18 108C16.7895 110.694 15.5 113 15.5 116.5C15.5 121.5 17.5 125.5 22 125.5C25.5 125.5 27.5 120.5 28 118.5C28.5 118 28.5 118.5 28.5 119C28 123 28 124 27.5 127C27 130 25.5 135.5 25.5 135.5C28 134.5 33 134.5 35.5 135.5C35.5 135.5 34 130 33.5 127C33 124 33 123 32.5 119C32.5 118.5 32.5 118 33 118.5Z" fill="black"/>
<path d="M333 422.5C333.5 420.5 335.5 415.5 339 415.5C343.5 415.5 345.5 419.5 345.5 424.5C345.5 428 344.211 430.306 343 433C341.711 435.868 339.81 438.429 338 441C335.677 444.299 330.5 450.5 330.5 450.5C330.5 450.5 325.323 444.299 323 441C321.19 438.429 319.289 435.868 318 433C316.789 430.306 315.5 428 315.5 424.5C315.5 419.5 317.5 415.5 322 415.5C325.5 415.5 327.5 420.5 328 422.5C328.5 423 328.5 422.5 328.5 422C328 418 328 417 327.5 414C327 411 325.5 405.5 325.5 405.5C328 406.5 333 406.5 335.5 405.5C335.5 405.5 334 411 333.5 414C333 417 333 418 332.5 422C332.5 422.5 332.5 423 333 422.5Z" fill="black"/>
</svg>
