<svg width="361" height="541" viewBox="0 0 361 541" fill="none" xmlns="http://www.w3.org/2000/svg">
<path d="M330.056 1.00391H30.9444C14.4066 1.00391 1 14.4105 1 30.9484V510.059C1 526.597 14.4066 540.004 30.9444 540.004H330.056C346.593 540.004 360 526.597 360 510.059V30.9484C360 14.4105 346.593 1.00391 330.056 1.00391Z" fill="white" stroke="black"/>
<path d="M28 30.5039L19 80.5039H24L26.3438 67.5039H34.6562L37 80.5039H42L33 30.5039H28ZM30.5 44.4102L33.75 62.5039H27.25L30.5 44.4102Z" fill="black"/>
<path d="M328 510.504L319 460.504H324L326.344 473.504H334.656L337 460.504H342L333 510.504H328ZM330.5 496.598L333.75 478.504H327.25L330.5 496.598Z" fill="black"/>
<path d="M185.5 281.504C187.5 285.504 192.5 291.504 197.5 291.504C206.5 291.504 210.5 283.504 210.5 273.504C210.5 263.504 206.5 254.504 197.5 254.504C192.5 254.504 189.5 259.504 186.5 262.504C185.5 263.504 184.5 262.504 185.5 261.504C188.5 258.504 193.5 250.504 193.5 243.504C193.5 235.504 188.5 225.504 180.5 225.504C172.5 225.504 167.5 235.504 167.5 243.504C167.5 250.504 172.5 258.504 175.5 261.504C176.5 262.504 175.5 263.504 174.5 262.504C171.5 259.504 168.5 254.504 163.5 254.504C154.5 254.504 150.5 263.504 150.5 273.504C150.5 283.504 154.5 291.504 163.5 291.504C168.5 291.504 173.5 285.504 175.5 281.504C176.5 280.504 176.5 281.504 176.5 282.504C175.5 290.504 175.5 292.504 174.5 298.504C173.5 304.504 170.5 315.504 170.5 315.504C175.5 313.504 185.5 313.504 190.5 315.504C190.5 315.504 187.5 304.504 186.5 298.504C185.5 292.504 185.5 290.504 184.5 282.504C184.5 281.504 184.5 280.504 185.5 281.504Z" fill="black"/>
<path d="M33 118.504C34 120.504 36.5 123.504 39 123.504C43.5 123.504 45.5 119.504 45.5 114.504C45.5 109.504 43.5 105.004 39 105.004C36.5 105.004 35 107.504 33.5 109.004C33 109.504 32.5 109.004 33 108.504C34.5 107.004 37 103.004 37 99.5039C37 95.5039 34.5 90.5039 30.5 90.5039C26.5 90.5039 24 95.5039 24 99.5039C24 103.004 26.5 107.004 28 108.504C28.5 109.004 28 109.504 27.5 109.004C26 107.504 24.5 105.004 22 105.004C17.5 105.004 15.5 109.504 15.5 114.504C15.5 119.504 17.5 123.504 22 123.504C24.5 123.504 27 120.504 28 118.504C28.5 118.004 28.5 118.504 28.5 119.004C28 123.004 28 124.004 27.5 127.004C27 130.004 25.5 135.504 25.5 135.504C28 134.504 33 134.504 35.5 135.504C35.5 135.504 34 130.004 33.5 127.004C33 124.004 33 123.004 32.5 119.004C32.5 118.504 32.5 118.004 33 118.504Z" fill="black"/>
<path d="M333 422.504C334 420.504 336.5 417.504 339 417.504C343.5 417.504 345.5 421.504 345.5 426.504C345.5 431.504 343.5 436.004 339 436.004C336.5 436.004 335 433.504 333.5 432.004C333 431.504 332.5 432.004 333 432.504C334.5 434.004 337 438.004 337 441.504C337 445.504 334.5 450.504 330.5 450.504C326.5 450.504 324 445.504 324 441.504C324 438.004 326.5 434.004 328 432.504C328.5 432.004 328 431.504 327.5 432.004C326 433.504 324.5 436.004 322 436.004C317.5 436.004 315.5 431.504 315.5 426.504C315.5 421.504 317.5 417.504 322 417.504C324.5 417.504 327 420.504 328 422.504C328.5 423.004 328.5 422.504 328.5 422.004C328 418.004 328 417.004 327.5 414.004C327 411.004 325.5 405.504 325.5 405.504C328 406.504 333 406.504 335.5 405.504C335.5 405.504 334 411.004 333.5 414.004C333 417.004 333 418.004 332.5 422.004C332.5 422.504 332.5 423.004 333 422.504Z" fill="black"/>
</svg>
