<svg width="361" height="541" viewBox="0 0 361 541" fill="none" xmlns="http://www.w3.org/2000/svg">
<path d="M330.056 1H30.9444C14.4066 1 1 14.4066 1 30.9445V510.056C1 526.593 14.4066 540 30.9444 540H330.056C346.593 540 360 526.593 360 510.056V30.9445C360 14.4066 346.593 1 330.056 1Z" fill="white" stroke="black"/>
<path d="M28 30.5L19 80.5H24L26.3438 67.5H34.6562L37 80.5H42L33 30.5H28ZM30.5 44.4062L33.75 62.5H27.25L30.5 44.4062Z" fill="#FF5555"/>
<path d="M328 510.5L319 460.5H324L326.344 473.5H334.656L337 460.5H342L333 510.5H328ZM330.5 496.594L333.75 478.5H327.25L330.5 496.594Z" fill="#FF5555"/>
<path d="M179.5 243.5C179.5 232.454 173.784 225.5 165.5 225.5C157.216 225.5 150.5 234.454 150.5 245.5C150.535 246.456 150.518 247.391 150.5 248.312C150.5 255.611 153.177 262.689 155.5 269.312C157.889 276.123 161.334 282.093 164.562 288.188C169.564 297.627 180.5 315.5 180.5 315.5C180.5 315.5 191.436 297.627 196.438 288.188C199.666 282.093 203.111 276.123 205.5 269.312C207.823 262.689 210.5 255.611 210.5 248.312C210.472 247.338 210.481 246.398 210.5 245.5C210.5 234.454 203.784 225.5 195.5 225.5C187.216 225.5 181.5 232.454 181.5 243.5C181.5 245.5 179.5 245.5 179.5 243.5Z" fill="#FF5555"/>
<path d="M30 99.5C30 93.9771 27.1421 90.5 23 90.5C18.8579 90.5 15.5 94.9771 15.5 100.5C15.5174 100.978 15.5091 101.446 15.5 101.906C15.5 105.555 16.8384 109.095 18 112.406C19.1945 115.812 20.9168 118.797 22.5312 121.844C25.0319 126.563 30.5 135.5 30.5 135.5C30.5 135.5 35.9681 126.563 38.4688 121.844C40.0832 118.797 41.8055 115.812 43 112.406C44.1616 109.095 45.5 105.555 45.5 101.906C45.4858 101.419 45.4907 100.949 45.5 100.5C45.5 94.9771 42.1421 90.5 38 90.5C33.8579 90.5 31 93.9771 31 99.5C31 100.5 30 100.5 30 99.5Z" fill="#FF5555"/>
<path d="M330 441.5C330 447.023 327.142 450.5 323 450.5C318.858 450.5 315.5 446.023 315.5 440.5C315.517 440.022 315.509 439.554 315.5 439.094C315.5 435.445 316.838 431.905 318 428.594C319.195 425.188 320.917 422.203 322.531 419.156C325.032 414.437 330.5 405.5 330.5 405.5C330.5 405.5 335.968 414.437 338.469 419.156C340.083 422.203 341.805 425.188 343 428.594C344.162 431.905 345.5 435.445 345.5 439.094C345.486 439.581 345.491 440.051 345.5 440.5C345.5 446.023 342.142 450.5 338 450.5C333.858 450.5 331 447.023 331 441.5C331 440.5 330 440.5 330 441.5Z" fill="#FF5555"/>
</svg>
