<svg width="361" height="541" viewBox="0 0 361 541" fill="none" xmlns="http://www.w3.org/2000/svg">
<path d="M330.056 1H30.9444C14.4066 1 1 14.4066 1 30.9445V510.056C1 526.593 14.4066 540 30.9444 540H330.056C346.593 540 360 526.593 360 510.056V30.9445C360 14.4066 346.593 1 330.056 1Z" fill="white" stroke="black"/>
<path d="M180.5 225.5C180.5 225.5 186.5 240.5 193.5 250.5C200.5 260.5 210.5 270.5 210.5 270.5C210.5 270.5 200.5 280.5 193.5 290.5C186.5 300.5 180.5 315.5 180.5 315.5C180.5 315.5 174.5 300.5 167.5 290.5C160.5 280.5 150.5 270.5 150.5 270.5C150.5 270.5 160.5 260.5 167.5 250.5C174.5 240.5 180.5 225.5 180.5 225.5Z" fill="#FF5555"/>
<path d="M28 30.5L19 80.5H24L26.3438 67.5H34.6562L37 80.5H42L33 30.5H28ZM30.5 44.4062L33.75 62.5H27.25L30.5 44.4062Z" fill="#FF5555"/>
<path d="M328 510.5L319 460.5H324L326.344 473.5H334.656L337 460.5H342L333 510.5H328ZM330.5 496.594L333.75 478.5H327.25L330.5 496.594Z" fill="#FF5555"/>
<path d="M30.5 90.5C30.5 90.5 33.5 98 37 103C40.5 108 45.5 113 45.5 113C45.5 113 40.5 118 37 123C33.5 128 30.5 135.5 30.5 135.5C30.5 135.5 27.5 128 24 123C20.5 118 15.5 113 15.5 113C15.5 113 20.5 108 24 103C27.5 98 30.5 90.5 30.5 90.5Z" fill="#FF5555"/>
<path d="M330.5 405.5C330.5 405.5 333.5 413 337 418C340.5 423 345.5 428 345.5 428C345.5 428 340.5 433 337 438C333.5 443 330.5 450.5 330.5 450.5C330.5 450.5 327.5 443 324 438C320.5 433 315.5 428 315.5 428C315.5 428 320.5 423 324 418C327.5 413 330.5 405.5 330.5 405.5Z" fill="#FF5555"/>
</svg>
