<svg width="361" height="541" viewBox="0 0 361 541" fill="none" xmlns="http://www.w3.org/2000/svg">
<path d="M330.056 1H30.9444C14.4066 1 1 14.4066 1 30.9445V510.056C1 526.593 14.4066 540 30.9444 540H330.056C346.593 540 360 526.593 360 510.056V30.9445C360 14.4066 346.593 1 330.056 1Z" fill="white" stroke="black"/>
<path d="M30.5 30.5C24.9772 30.5 20.5 34.9771 20.5 40.5V70.5C20.5 76.0229 24.9772 80.5 30.5 80.5C30.9337 80.5 31.3621 80.4598 31.7812 80.4063C33.4941 83.4558 36.7534 85.5001 40.5 85.5001V80.5001C38.8604 80.5001 37.4118 79.688 36.5 78.4688C38.9244 76.644 40.5 73.7682 40.5 70.5001V40.5001C40.5 34.9772 36.0228 30.5001 30.5 30.5001V30.5ZM30.5 35.5C33.2614 35.5 35.5 37.7386 35.5 40.5V70.5C35.5 71.2157 35.3334 71.8844 35.0625 72.5C33.7878 68.4436 29.9772 65.5 25.5 65.5V40.5C25.5 37.7386 27.7386 35.5 30.5 35.5ZM25.5 70.5C28.2614 70.5 30.5 72.7386 30.5 75.5C27.7386 75.5 25.5 73.2614 25.5 70.5Z" fill="#FF5555"/>
<path d="M330.5 510.499C336.023 510.499 340.5 506.022 340.5 500.499V470.499C340.5 464.977 336.023 460.499 330.5 460.499C330.066 460.499 329.638 460.539 329.219 460.593C327.506 457.544 324.247 455.5 320.5 455.5V460.5C322.14 460.5 323.588 461.312 324.5 462.531C322.076 464.356 320.5 467.232 320.5 470.5V500.5C320.5 506.022 324.977 510.5 330.5 510.5V510.499ZM330.5 505.499C327.739 505.499 325.5 503.261 325.5 500.499V470.499C325.5 469.784 325.667 469.115 325.938 468.499C327.212 472.556 331.023 475.499 335.5 475.499V500.499C335.5 503.261 333.261 505.499 330.5 505.499ZM335.5 470.499C332.739 470.499 330.5 468.261 330.5 465.499C333.261 465.499 335.5 467.738 335.5 470.499Z" fill="#FF5555"/>
<path d="M60.5 30.5H330.5V390.5" stroke="#5555AA" stroke-width="2"/>
<path d="M30.5 150.5V510.5H300.5" stroke="#5555AA" stroke-width="2"/>
<path d="M145.561 198.125L147.511 190.521C147.511 190.521 156.134 193.788 160.574 195.005C165.823 196.444 171.201 197.382 176.562 198.32C179.731 198.874 182.909 199.424 186.116 199.685C192.595 200.21 199.114 200.202 205.613 200.075C212.188 199.945 218.755 199.484 225.306 198.905C228.63 198.611 231.946 198.213 235.249 197.735C239.035 197.186 246.558 195.785 246.558 195.785L233.689 208.263L209.513 208.458L197.034 239.654L216.142 241.019L212.437 262.076C212.437 262.076 197.731 261.396 190.405 260.712C183.623 260.078 176.861 259.209 170.128 258.177C165.818 257.516 161.557 256.572 157.259 255.837C154.016 255.283 147.511 254.277 147.511 254.277C147.511 254.277 144.83 247.309 143.221 243.944C140.7 238.67 134.837 228.541 134.837 228.541L152.58 232.83L162.329 203.779L145.561 198.125Z" fill="black"/>
<path d="M121.523 178.123C121.523 178.123 129.986 183.639 134.497 185.886C138.708 187.984 147.578 191.189 147.578 191.189L135.911 228.666C135.911 228.666 129.405 219.438 125.658 215.231C122.158 211.301 118.246 207.749 114.298 204.271C110.91 201.286 103.738 195.785 103.738 195.785L121.523 178.123Z" fill="#5555AA"/>
<path d="M123.89 244.929C123.89 244.929 128.358 258.425 129.193 265.436C130.072 272.809 130.108 280.393 128.84 287.709C127.713 294.209 125.259 300.467 122.476 306.448C119.977 311.817 117.123 317.142 113.283 321.651C109.976 325.533 105.766 328.585 101.616 331.55C96.3704 335.299 84.9992 341.45 84.9992 341.45L81.4636 338.268C81.4636 338.268 82.822 324.035 84.292 317.054C85.8599 309.609 87.9356 302.24 90.656 295.134C93.1814 288.538 96.5229 282.273 99.8484 276.042C103.132 269.89 106.151 263.497 110.455 258.011C114.313 253.093 123.89 244.929 123.89 244.929Z" fill="#5555AA"/>
<path d="M117.526 251.647C117.526 251.647 121.777 264.441 122.122 271.092C122.504 278.45 121.288 285.92 119.294 293.013C117.338 299.97 114.461 306.796 110.455 312.812C107.405 317.392 103.371 321.313 99.1413 324.832C94.2918 328.868 83.2314 335.085 83.2314 335.085C83.2314 335.085 84.7299 320.411 86.0599 313.165C87.0661 307.683 88.1209 302.167 89.949 296.902C92.249 290.277 95.5395 284.025 98.7878 277.81C101.381 272.848 103.996 267.854 107.273 263.314C110.304 259.116 117.526 251.647 117.526 251.647Z" fill="#FF5555"/>
<path d="M48.2648 226.138L42.4614 239.13C42.4614 239.13 43.2929 243.359 44.997 244.114C46.0237 244.569 47.3186 243.987 48.247 243.228C49.4339 242.257 50.747 238.918 50.747 238.918L55.7074 228.481" fill="#FFFF55"/>
<path d="M48.2648 226.138L42.4614 239.13C42.4614 239.13 43.2929 243.359 44.997 244.114C46.0237 244.569 47.3186 243.987 48.247 243.228C49.4339 242.257 50.747 238.918 50.747 238.918L55.7074 228.481" stroke="#5555AA" stroke-width="2" stroke-linecap="round" stroke-linejoin="round"/>
<path d="M43.449 238.759C43.449 238.759 45.9323 237.751 47.2471 237.665C48.2997 237.596 50.3757 238.139 50.3757 238.139" stroke="#5555AA" stroke-width="2" stroke-linecap="round" stroke-linejoin="round"/>
<path d="M166.708 66.2819C166.708 66.2819 152.926 80.3282 147.629 88.5397C142.085 97.1334 137.926 106.65 134.638 116.334C131.786 124.732 130.282 133.555 128.898 142.316C128.077 147.512 127.797 152.781 127.387 158.026C126.995 163.055 126.481 173.131 126.481 173.131L171.496 131.44C171.496 131.44 168.78 122.267 168.172 117.542C167.568 112.847 167.921 108.077 167.87 103.343C167.803 96.9992 168.075 90.6512 167.87 84.3101C167.677 78.2913 166.708 66.2819 166.708 66.2819Z" fill="black"/>
<path d="M300.278 174.869C295.211 177.461 288.212 180.944 282.031 183.662C276.198 186.227 270.317 188.721 264.275 190.746C259.192 192.449 253.967 193.7 248.764 194.989C243.942 196.183 239.128 197.478 234.216 198.223C229.137 198.993 223.979 199.112 218.856 199.489C214.736 199.793 210.619 200.214 206.488 200.292C201.485 200.386 196.477 200.174 191.482 199.886C186.893 199.622 182.287 199.387 177.746 198.675C172.627 197.873 167.599 196.553 162.589 195.237C158.272 194.104 154.005 192.785 149.762 191.401C145.11 189.883 140.41 188.453 135.921 186.503C130.658 184.217 124.182 180.329 120.646 178.561L165.938 136.512C165.938 136.512 168.68 137.021 170.042 137.319C172.631 137.885 172.489 138.266 177.772 139.177C180.267 140.215 181.937 142.748 184.417 143.822C187.44 145.13 190.794 145.86 194.087 145.852C200.377 145.838 207.954 144.156 212.535 141.891C214.918 141.889 217.02 141.491 219.262 141.275C222.372 140.975 225.492 140.752 228.587 140.329C231.913 139.874 235.277 139.517 238.511 138.618C241.277 137.85 243.902 136.634 246.537 135.494C249.428 134.243 255.065 131.423 255.065 131.423C259.047 138.062 264.103 146.926 272.657 155.028C276.934 159.079 281.933 164.766 286.207 168.011C290.482 171.256 297.278 173.278 300.278 174.869Z" fill="#FFFF58"/>
<path d="M167.693 104.158C167.693 104.158 161.599 113.891 159.109 119.053C157.322 122.759 155.722 126.582 154.577 130.533C153.675 133.647 153.063 136.86 152.76 140.088C152.502 142.832 152.765 148.358 152.765 148.358L171.798 131.44C171.798 131.44 169.154 122.867 168.475 118.449C167.75 113.733 167.693 104.158 167.693 104.158H167.693Z" fill="#FF5555"/>
<path d="M224.5 30.5L290 114.667L297.833 113L238.5 30.5H224.5Z" fill="black"/>
<path d="M307.5 30.5C305.828 40.3989 305.157 50.4667 305.5 60.5C305.848 70.668 307.252 80.8586 310.5 90.5C312.888 97.5861 316.264 104.338 320.5 110.5C317.172 110.28 313.828 110.28 310.5 110.5C306.12 110.789 301.765 111.459 297.5 112.5L238.5 30.5H307.5Z" fill="#FFFF55" stroke="#5555AA" stroke-width="2" stroke-linecap="round" stroke-linejoin="round"/>
<path d="M274.092 55.9702C274.488 56.9611 274.944 57.9523 275.61 58.7799C276.49 59.8716 277.454 61.0926 278.802 61.5223C280.497 62.0626 282.794 62.2471 284.193 61.0721C285.556 59.927 285.983 57.6381 285.539 55.9666C285.027 54.0373 281.312 51.783 281.312 51.783C281.312 51.783 286.04 50.2027 286.868 48.1704C287.645 46.2622 286.834 43.7176 285.428 42.2915C284.041 40.8847 281.5 39.9504 279.632 40.7727C277.534 41.696 276.332 46.7959 276.332 46.7959C276.332 46.7959 275.494 43.0428 274.281 41.6666C273.204 40.4444 271.654 39.25 269.991 39.2862C268.516 39.3184 266.814 40.2435 266.124 41.5653C265.039 43.6455 265.513 46.5329 266.749 48.4438C267.989 50.3592 272.747 51.786 272.747 51.786C272.747 51.786 271.472 49.0827 273.729 47.523C275.533 46.2764 278.775 47.7613 279.776 49.6306C280.623 51.2129 280.176 54.2506 278.475 54.9786C275.081 56.4315 273.357 53.2567 273.357 53.2567C273.357 53.2567 273.746 55.1024 274.092 55.9702Z" fill="black" stroke="#000100" stroke-width="2" stroke-linecap="round" stroke-linejoin="round"/>
<path d="M293.668 83.2082C294.021 84.1043 294.428 85.0007 295.023 85.7493C295.807 86.7366 296.668 87.8407 297.87 88.2294C299.383 88.718 301.432 88.8849 302.68 87.8222C303.897 86.7866 304.277 84.7166 303.882 83.2049C303.425 81.4601 300.11 79.4214 300.11 79.4214C300.11 79.4214 303.817 77.5944 304.4 75.8209C304.97 74.0889 304.411 71.7868 303.116 70.5041C302.02 69.4199 300.015 68.8296 298.611 69.4639C296.73 70.3133 295.666 74.9111 295.666 74.9111C295.666 74.9111 294.919 71.5169 293.837 70.2723C292.876 69.167 291.492 68.0867 290.009 68.1195C288.693 68.1486 287.174 68.9853 286.559 70.1807C285.591 72.062 286.013 74.6733 287.117 76.4015C288.223 78.1337 292.468 79.4241 292.468 79.4241C292.468 79.4241 291.331 76.9792 293.344 75.5687C294.954 74.4413 297.847 75.7842 298.739 77.4748C299.495 78.9058 299.097 81.653 297.579 82.3115C294.55 83.6254 293.012 80.7541 293.012 80.7541C293.012 80.7541 293.359 82.4233 293.668 83.2082Z" fill="black" stroke="#000100" stroke-width="2" stroke-linecap="round" stroke-linejoin="round"/>
<path d="M247.833 32.1667C247.833 32.1667 248.421 43.3943 253.333 49.0001C258.055 54.389 263.611 54.6112 268.5 54.1667C268.5 54.1667 266.2 67.3064 270.5 72.6667C275.164 78.4808 290.5 83.0001 290.5 83.0001C290.5 83.0001 286.92 93.0473 291.833 100C294.554 103.85 303.667 109.5 303.667 109.5" stroke="black" stroke-width="2" stroke-linecap="round" stroke-linejoin="round"/>
<path d="M252.594 31.1378C251.904 31.1398 251.254 31.6793 251.125 32.3566C251.125 32.3566 249.302 40.6899 255.188 46.5753C256.098 47.4857 257.405 48.2687 259 49.1378C260.595 50.0069 262.437 50.8978 264.188 51.7003C267.242 53.1006 269.337 53.9 270 54.1691C270.003 54.8758 269.977 56.4001 270.375 59.2003C270.854 62.5753 271.462 67.3605 273.698 70.5233C277.839 76.3813 282.585 78.8875 286 80.5753C288.235 81.6799 289.759 82.0658 290.781 82.2628C290.88 83.0319 291.059 84.6886 291.625 87.5441C292.308 90.9921 293.239 94.9129 294.813 97.4503C296.462 100.11 299.741 102.947 302.688 105.294C305.634 107.641 308.25 109.419 308.25 109.419C308.905 109.861 309.902 109.668 310.344 109.013C310.786 108.358 307.259 105.861 306.604 105.419C306.604 105.419 304.248 102.056 303.729 98.617C300.877 96.3449 298.795 96.2948 297.177 94.2211C295.593 92.1905 295.221 90.2733 294.563 86.9503C293.904 83.6273 293.563 80.8253 293.563 80.8253C293.479 80.1443 292.872 79.5649 292.188 79.5128C292.188 79.5128 286.486 78.0785 284.344 76.2211C281.873 74.079 278.659 73.2606 279.302 67.8045C277.571 65.3558 273.79 61.9017 273.344 58.7628C272.898 55.624 272.906 53.2003 272.906 53.2003C272.925 52.5916 272.534 51.991 271.969 51.7628C271.969 51.7628 268.861 50.5199 265.438 48.9503C263.726 48.1656 261.638 47.9012 260.438 46.4816C258.97 44.7458 258.887 40.3576 258.479 39.9503C253.824 35.2948 254.063 32.9816 254.063 32.9816C254.27 32.1017 253.498 31.1327 252.594 31.1378Z" fill="black"/>
<path d="M211.5 30.5H224.833L330.5 169.167V201.5L211.5 30.5Z" fill="#FF5555" stroke="#5555AA" stroke-width="2"/>
<path d="M187.493 30.5C187.493 30.5 189.263 41.7957 202.145 52.6742C215.026 63.5527 236.503 67.9031 236.503 67.9031" stroke="#5555AA" stroke-width="2" stroke-linecap="round" stroke-linejoin="round"/>
<path d="M192.661 30.5C192.661 30.5 197.873 42.3302 205.089 48.3428C212.305 54.3554 232.621 61.4569 232.621 61.4569" stroke="#5555AA" stroke-width="2" stroke-linecap="round" stroke-linejoin="round"/>
<path d="M198.767 30.5C198.767 30.5 203.178 40.5588 208.559 45.1398C213.941 49.7208 228.484 55.6727 228.484 55.6727" stroke="#5555AA" stroke-width="2" stroke-linecap="round" stroke-linejoin="round"/>
<path d="M203.788 30.5C203.788 30.5 206.52 37.3319 210.818 40.8821C215.116 44.4324 223.709 48.2728 223.709 48.2728" stroke="#5555AA" stroke-width="2" stroke-linecap="round" stroke-linejoin="round"/>
<path d="M189.439 38.0381C189.439 38.0381 188.598 42.1235 183.295 50.995C177.991 59.8665 167.548 63.6274 167.548 63.6274" stroke="#5555AA" stroke-width="2" stroke-linecap="round" stroke-linejoin="round"/>
<path d="M185.551 30.5C185.551 30.5 185.378 37.5485 180.554 45.0611C175.73 52.5737 167.613 56.3753 167.613 56.3753" stroke="#5555AA" stroke-width="2" stroke-linecap="round" stroke-linejoin="round"/>
<path d="M180.18 30.5C180.18 30.5 178.247 37.9579 175.671 42.5389C173.096 47.12 167.81 50.4371 167.81 50.4371" stroke="#5555AA" stroke-width="2" stroke-linecap="round" stroke-linejoin="round"/>
<path d="M174.054 30.5C174.054 30.5 174.235 34.9006 172.111 38.4509C169.988 42.0012 168.521 42.435 168.521 42.435" stroke="#5555AA" stroke-width="2" stroke-linecap="round" stroke-linejoin="round"/>
<path d="M186.905 83.97C186.905 83.97 187.495 86.5507 187.436 87.8571C187.273 91.4331 186.24 94.9545 185.027 98.3224C184.232 100.531 182.027 102.274 181.869 104.616C181.737 106.562 182.485 108.68 183.765 110.153C184.666 111.191 186.404 111.118 187.441 112.021C188.28 112.752 189.347 114.761 189.347 114.761" stroke="#5555AA" stroke-width="2" stroke-linecap="round" stroke-linejoin="round"/>
<path d="M199.248 103.281C199.248 103.281 202.572 106.84 202.107 108.885C201.803 110.22 200.193 111.167 198.839 111.376C197.06 111.65 195.44 110.187 193.757 109.548C192.163 108.942 190.63 107.117 189.01 107.646C188.358 107.859 187.593 108.788 187.921 109.39C188.456 110.374 190.163 109.376 191.282 109.443C194.676 109.647 198.72 112.561 201.426 110.504C202.297 109.842 202.206 108.335 201.971 107.266C201.625 105.695 199.248 103.281 199.248 103.281Z" fill="#5555AA" stroke="#5555AA" stroke-width="2" stroke-linecap="round" stroke-linejoin="round"/>
<path d="M232.701 80.2722C232.701 80.2722 223.493 73.9907 218.203 72.6227C214.041 71.5465 209.465 71.2546 205.31 72.3572C203.638 72.8007 200.859 75.0216 200.859 75.0216C200.859 75.0216 204.934 73.7104 207.047 73.4827C211.317 73.0229 215.761 72.8072 219.925 73.858C224.545 75.0241 232.701 80.2722 232.701 80.2722Z" fill="#5555AA" stroke="#5555AA" stroke-width="2" stroke-linecap="round" stroke-linejoin="round"/>
<path d="M168.771 74.7507C168.771 74.7507 174.338 71.7708 177.311 72.097C181.015 72.5033 186.898 77.6227 186.898 77.6227C186.898 77.6227 180.657 73.3646 177.038 73.2533C174.001 73.1598 168.533 76.4051 168.533 76.4051L168.771 74.7507Z" fill="#5555AA" stroke="#5555AA" stroke-width="2" stroke-linecap="round" stroke-linejoin="round"/>
<path d="M204.44 123.471C204.44 123.471 199.736 121.595 197.286 121.426C195.446 121.299 193.639 122.123 191.798 122.212C189.697 122.313 187.541 121.358 185.493 121.92C184.373 122.227 182.463 123.856 182.463 123.856C182.463 123.856 184.549 123.396 185.599 123.459C187.736 123.587 189.737 125.025 191.876 125.027C194.236 125.031 196.426 123.571 198.806 123.315C200.676 123.114 204.44 123.471 204.44 123.471Z" fill="#5555AA" stroke="#5555AA" stroke-width="2" stroke-linecap="round" stroke-linejoin="round"/>
<path d="M198.078 128.333C198.078 128.333 194.135 129.704 192.088 129.748C190.334 129.786 186.914 128.758 186.914 128.758" stroke="#5555AA" stroke-width="2" stroke-linecap="round" stroke-linejoin="round"/>
<path d="M186.126 83.4C186.126 83.4 181.094 79.2942 176.477 79.1946C171.535 79.0879 168.582 81.7178 168.582 81.7178" stroke="#5555AA" stroke-width="2" stroke-linecap="round" stroke-linejoin="round"/>
<path d="M229.114 85.5458C229.114 85.5458 219.25 78.2202 213.587 78.3834C206.167 78.5973 200.626 83.9425 200.626 83.9425" stroke="#5555AA" stroke-width="2" stroke-linecap="round" stroke-linejoin="round"/>
<path d="M230.205 87.1213C224.353 86.3638 220.051 83.822 214.664 83.3619C210.045 82.9674 200.721 84.3983 200.721 84.3983" stroke="#5555AA" stroke-width="2" stroke-linecap="round" stroke-linejoin="round"/>
<path d="M167.953 87.1937C173.34 84.6519 172.187 83.8434 177.574 83.3832C182.193 82.9887 187.019 85.6091 187.019 85.6091" stroke="#5555AA" stroke-width="2" stroke-linecap="round" stroke-linejoin="round"/>
<path d="M226.969 87.5801C221.702 88.7799 216.2 92.6615 210.241 92.9583C205.826 93.1781 201.09 90.1443 200.702 86.061" stroke="#5555AA" stroke-width="2" stroke-linecap="round" stroke-linejoin="round"/>
<path d="M215.881 84.8955C216.818 89.9593 211.863 91.4547 208.303 91.0171C205.888 90.7203 203.649 87.7571 204.811 84.8633" stroke="#5555AA" stroke-width="2" stroke-linecap="round" stroke-linejoin="round"/>
<path d="M207.632 87.7429C207.534 86.8258 208.378 85.5629 209.338 85.5126C210.178 85.4685 211.062 86.4902 211.044 87.2968C211.025 88.1377 210.06 89.0589 209.183 89.081C208.488 89.0985 207.704 88.4062 207.632 87.7429Z" fill="#5555AA" stroke="#5555AA" stroke-width="2" stroke-linecap="round" stroke-linejoin="round"/>
<path d="M179.058 88.0481C179.084 87.3312 178.211 86.4032 177.315 86.4224C176.532 86.4391 175.783 87.2849 175.857 87.9092C175.934 88.56 176.895 89.2156 177.711 89.1796C178.359 89.1512 179.038 88.5667 179.058 88.0481Z" fill="#5555AA" stroke="#5555AA" stroke-width="2" stroke-linecap="round" stroke-linejoin="round"/>
<path d="M185.468 91.9126C183.375 94.3725 183.224 96.5559 178.889 98.6414" stroke="#5555AA" stroke-width="2" stroke-linecap="round" stroke-linejoin="round"/>
<path d="M200.441 84.4327C202.045 91.5543 203.89 95.7993 209.038 97.9544" stroke="#5555AA" stroke-width="2" stroke-linecap="round" stroke-linejoin="round"/>
<path d="M168.051 89.9142C170.906 91.7182 174.562 92.7834 179.226 92.6616C182.681 92.5713 186.194 90.1233 186.255 87.1652" stroke="#5555AA" stroke-width="2" stroke-linecap="round" stroke-linejoin="round"/>
<path d="M173.326 84.6032C172.214 89.5022 174.421 92.1391 178.469 92.0561C180.249 92.0196 183.892 88.0169 181.217 84.2115" stroke="#5555AA" stroke-width="2" stroke-linecap="round" stroke-linejoin="round"/>
<path d="M169.5 30.5C169.5 30.5 167.205 52.4704 167 63.5C166.839 72.1716 167.745 80.8307 168 89.5C168.24 97.6648 167.589 105.883 168.5 114C169.145 119.749 169.435 125.814 172 131C174.252 135.553 177.707 139.784 182 142.5C185.657 144.813 190.179 145.774 194.5 146C198.889 146.23 203.332 145.187 207.5 143.791C213.196 141.883 218.485 138.806 223.5 135.5C228.542 132.176 233.357 128.394 237.5 124C240.61 120.701 245.5 113 245.5 113" stroke="#5555AA" stroke-width="2" stroke-linecap="round" stroke-linejoin="round"/>
<path d="M166.853 136.942C171.522 139.349 175.669 139.774 178.803 140.133" stroke="#5555AA" stroke-width="2" stroke-linecap="round" stroke-linejoin="round"/>
<path d="M211.562 142.515C218.826 141.162 227.798 140.317 235.702 138.243C242.346 136.499 248.662 133.685 255.142 131.406" stroke="#5555AA" stroke-width="2" stroke-linecap="round" stroke-linejoin="round"/>
<path d="M243.393 117.307L249.374 133.116" stroke="#5555AA" stroke-width="2" stroke-linecap="round" stroke-linejoin="round"/>
<path d="M239.975 121.58L244.888 134.611" stroke="#5555AA" stroke-width="2" stroke-linecap="round" stroke-linejoin="round"/>
<path d="M236.129 126.28L239.334 135.679" stroke="#5555AA" stroke-width="2" stroke-linecap="round" stroke-linejoin="round"/>
<path d="M232.284 129.698L235.275 137.174" stroke="#5555AA" stroke-width="2" stroke-linecap="round" stroke-linejoin="round"/>
<path d="M228.225 133.116L231.002 139.311" stroke="#5555AA" stroke-width="2" stroke-linecap="round" stroke-linejoin="round"/>
<path d="M224.38 135.893L226.089 139.524" stroke="#5555AA" stroke-width="2" stroke-linecap="round" stroke-linejoin="round"/>
<path d="M245.315 80.5637C244.318 82.4151 243.09 84.1594 242.324 86.118C241.281 88.7884 240.9 91.6723 240.188 94.4494" stroke="#5555AA" stroke-width="2" stroke-linecap="round" stroke-linejoin="round"/>
<path d="M249.374 86.5452C248.092 89.1087 246.464 91.5266 245.529 94.2357C244.367 97.6018 244.105 101.214 243.393 104.703" stroke="#5555AA" stroke-width="2" stroke-linecap="round" stroke-linejoin="round"/>
<path d="M253.006 91.8857C251.866 94.5917 250.415 97.1865 249.588 100.004C248.304 104.373 248.021 108.976 247.238 113.462" stroke="#5555AA" stroke-width="2" stroke-linecap="round" stroke-linejoin="round"/>
<path d="M257.065 97.0128C255.712 100.502 253.784 103.82 253.006 107.48C251.804 113.129 252.436 119.016 252.151 124.784" stroke="#5555AA" stroke-width="2" stroke-linecap="round" stroke-linejoin="round"/>
<path d="M261.337 102.567C260.127 105.131 258.365 107.5 257.706 110.258C255.949 117.602 257.278 125.354 257.065 132.902" stroke="#5555AA" stroke-width="2" stroke-linecap="round" stroke-linejoin="round"/>
<path d="M265.61 108.121C264.328 111.326 262.27 115.344 261.764 119.23C260.779 126.807 262.904 134.469 263.473 142.088" stroke="#5555AA" stroke-width="2" stroke-linecap="round" stroke-linejoin="round"/>
<path d="M269.455 114.957C268.387 118.375 267.218 123.863 267.105 128.416C266.918 135.947 268.672 142.302 269.882 150.847" stroke="#5555AA" stroke-width="2" stroke-linecap="round" stroke-linejoin="round"/>
<path d="M274.155 121.58C273.443 126.351 273.244 130.555 273.514 135.038C274.026 143.545 275.65 152.057 277.786 160.246" stroke="#5555AA" stroke-width="2" stroke-linecap="round" stroke-linejoin="round"/>
<path d="M279.709 129.698C279.567 134.184 279.076 139.282 279.709 144.01C280.787 152.058 283.839 159.391 286.118 167.509" stroke="#5555AA" stroke-width="2" stroke-linecap="round" stroke-linejoin="round"/>
<path d="M286.545 139.524C286.26 142.8 286.262 147.42 286.972 151.274C288.294 158.449 290.319 164.803 294.022 171.996" stroke="#5555AA" stroke-width="2" stroke-linecap="round" stroke-linejoin="round"/>
<path d="M292.74 148.497C293.239 152.199 293.126 156.037 294.236 159.605C295.919 165.018 299.719 170.073 301.926 174.773" stroke="#5555AA" stroke-width="2" stroke-linecap="round" stroke-linejoin="round"/>
<path d="M90.2967 208.462C90.2967 208.462 85.8923 203.253 83.4282 200.861C80.8345 198.342 78.1363 195.88 75.1287 193.783C72.8114 192.168 70.4467 190.293 67.6878 189.59C66.0595 189.175 64.2036 189.027 62.6473 189.66C61.5037 190.126 60.2283 191.005 59.9607 192.211C59.452 194.502 61.0617 196.938 62.5364 198.764C64.0315 200.615 66.3043 201.756 68.4821 202.715C69.7965 203.294 71.3972 203.618 72.6639 203.752C73.493 206.353 71.0089 205.76 71.5368 210.89C71.6916 212.395 71.8987 214.459 71.8987 214.459" stroke="#5555AA" stroke-width="2" stroke-linecap="round" stroke-linejoin="round"/>
<path d="M63.9673 194.186C63.9673 194.186 64.455 195.851 65.112 196.405C65.7117 196.91 66.5947 197.183 67.4016 197.191C68.1928 197.199 69.662 196.466 69.662 196.466" stroke="#5555AA" stroke-width="2" stroke-linecap="round" stroke-linejoin="round"/>
<path d="M59.3882 191.424C59.3882 191.424 55.4211 189.61 53.6644 190.376C51.8152 191.183 50.8098 193.48 50.8025 195.356C50.7911 198.209 53.58 200.473 55.0954 202.958C56.0166 204.468 56.629 206.287 58.0101 207.393C59.3632 208.476 61.1817 209.596 62.8753 209.227C64.1985 208.94 65.2618 207.612 65.7372 206.344C66.1615 205.213 66.3199 203.618 65.5047 202.726C64.4105 201.529 62.2818 201.636 60.6968 201.98C59.8498 202.163 59.0629 202.728 58.5234 203.406C57.969 204.103 57.5973 205.912 57.5973 205.912" stroke="#5555AA" stroke-width="2" stroke-linecap="round" stroke-linejoin="round"/>
<path d="M49.944 196.667C49.944 196.667 47.1416 197.523 46.2235 198.502C45.2992 199.487 44.7333 200.873 44.7926 202.171C44.889 204.281 46.3413 206.202 47.6545 207.938C49.1914 209.969 51.1992 211.785 53.3782 213.18C54.9946 214.215 56.7952 215.086 58.6873 215.407C60.1007 215.647 61.9978 216.189 62.9801 215.145C63.8183 214.254 63.586 212.538 62.9801 211.476C62.523 210.674 61.4817 210.329 60.5973 210.065C59.3964 209.707 57.8905 209.207 56.8416 209.893C55.9014 210.508 55.6325 213.039 55.6325 213.039" stroke="#5555AA" stroke-width="2" stroke-linecap="round" stroke-linejoin="round"/>
<path d="M45.365 206.627C45.365 206.627 41.881 208.838 41.6445 210.559C41.4846 211.722 42.5502 212.798 43.3616 213.704C45.4304 216.016 48.3098 217.642 51.0887 219.209C52.7968 220.172 54.5209 221.546 56.5263 221.568C57.4658 221.578 58.6344 221.266 59.102 220.519C59.532 219.833 59.1901 218.873 58.8158 218.16C58.1145 216.824 56.9996 214.966 55.3816 215.015C54.3681 215.046 53.7776 216.258 53.3783 217.112C52.9633 217.999 53.0921 219.995 53.0921 219.995" stroke="#5555AA" stroke-width="2" stroke-linecap="round" stroke-linejoin="round"/>
<path d="M43.6479 215.801C43.6479 215.801 42.3914 217.846 42.5031 218.947C42.6849 220.738 43.9874 222.382 45.365 223.665C47.151 225.327 49.5384 226.506 51.9821 227.162C53.2539 227.504 54.943 228.119 55.954 227.334C57.1996 226.367 57.2803 224.205 56.5264 222.878C55.8761 221.734 54.1979 220.846 52.8059 221.044C51.7554 221.192 51.082 222.279 50.5859 223.141C50.086 224.008 49.944 226.024 49.944 226.024" stroke="#5555AA" stroke-width="2" stroke-linecap="round" stroke-linejoin="round"/>
<path d="M55.2375 228.772C55.2375 228.772 56.111 230.136 56.7152 230.658C57.2836 231.149 57.9848 231.473 58.6718 231.777C60.0362 232.381 62.9294 233.16 62.9294 233.16" stroke="#5555AA" stroke-width="2" stroke-linecap="round" stroke-linejoin="round"/>
<path d="M64.1684 191.216C64.1684 191.216 58.6512 192.422 55.8594 192.316C53.732 192.236 51.5381 191.903 49.6093 191.002C47.5175 190.024 45.6279 188.505 44.1665 186.718C42.5305 184.717 40.6774 179.793 40.6774 179.793C40.6774 179.793 45.0317 180.721 47.2449 180.88C49.6315 181.051 52.0415 180.481 54.4214 180.729C56.196 180.913 57.9534 181.344 59.6351 181.939C60.9819 182.416 62.3462 182.958 63.4896 183.814C64.6075 184.652 65.5348 185.753 66.3072 186.917C66.9523 187.889 67.7805 190.091 67.7805 190.091L64.1684 191.216Z" fill="#FFFF55" stroke="#5555AA" stroke-width="2" stroke-linecap="round" stroke-linejoin="round"/>
<path d="M49.1228 185.52C49.1228 185.52 52.0563 187.044 53.6352 187.494C56.0213 188.173 58.5559 188.139 61.0024 188.551C62.827 188.859 66.4524 189.605 66.4524 189.605" stroke="#5555AA" stroke-width="2" stroke-linecap="round" stroke-linejoin="round"/>
<path d="M67.0266 188.646L67.9144 178.326L70.9819 175.62L73.6351 178.299L73.0436 192.059L67.0266 188.646Z" fill="#FFFF55" stroke="#5555AA" stroke-width="2" stroke-linecap="round" stroke-linejoin="round"/>
<path d="M74.7902 191.846C74.7902 191.846 76.5946 187.946 78.149 186.441C79.951 184.696 82.3402 183.466 84.7567 182.539C87.0131 181.674 89.6141 181.829 91.9161 181.072C94.0687 180.364 98.0374 178.23 98.0374 178.23C98.0374 178.23 97.6099 182.918 96.5445 184.951C95.4107 187.114 93.6354 189.029 91.5665 190.326C88.774 192.078 85.3584 192.662 82.1091 193.217C80.6535 193.466 79.1167 193.728 77.6828 193.402C76.5979 193.156 74.7902 191.846 74.7902 191.846Z" fill="#FFFF55" stroke="#5555AA" stroke-width="2.00118" stroke-linecap="round" stroke-linejoin="round"/>
<path d="M75.8554 191.757C75.8554 191.757 79.0962 189.242 80.9921 188.547C83.2096 187.734 85.8049 188.392 88.0039 187.531C89.6145 186.901 92.2789 184.59 92.2789 184.59" stroke="#5555AA" stroke-width="2.00118" stroke-linecap="round" stroke-linejoin="round"/>
<path d="M80.8992 160.189L86.7418 156.052L92.3575 159.179L86.7136 163.838L80.8992 160.189Z" fill="#5555AA" stroke="#5555AA" stroke-width="2" stroke-linecap="round" stroke-linejoin="round"/>
<path d="M67.1412 152.008L62.8616 146.257L66.8376 140.52L71.1437 146.179L67.1412 152.008Z" fill="#5555AA" stroke="#5555AA" stroke-width="2" stroke-linecap="round" stroke-linejoin="round"/>
<path d="M51.3284 160.867L45.8538 165.343L52.5291 168.425L56.5908 164.009L51.3284 160.867Z" fill="#5555AA" stroke="#5555AA" stroke-width="2" stroke-linecap="round" stroke-linejoin="round"/>
<path d="M54.1871 166.222C53.0618 168.437 51.5185 170.796 51.7252 173.257C51.881 175.113 53.02 176.928 54.4433 178.21C56.298 179.881 58.929 180.794 61.4271 181.239C62.6419 181.456 63.9881 181.515 65.1228 181.03C67.3754 180.068 70.4964 176.018 70.4964 176.018C70.4964 176.018 73.4086 178.596 75.2223 179.078C78.0299 179.823 81.3678 179.975 83.9233 178.594C85.711 177.628 86.9608 175.635 87.5417 173.688C88.1722 171.575 87.8344 169.186 87.1738 167.082C86.7642 165.778 85.9805 164.564 85.0201 163.591C83.5998 162.153 79.8999 160.34 79.8999 160.34C79.8999 160.34 84.0751 157.412 85.3161 155.274C86.1621 153.817 86.6538 152.032 86.4837 150.356C86.3156 148.697 85.5126 147.073 84.3754 145.821C83.0632 144.376 81.2715 143.012 79.2756 142.761C76.7856 142.449 74.1342 143.457 72.0731 144.876C70.9751 145.631 70.3622 146.93 69.6512 148.058C68.7157 149.541 67.2464 152.737 67.2464 152.737C67.2464 152.737 64.5005 149.216 62.6271 148.097C60.2525 146.677 57.4295 145.368 54.6739 145.726C52.9401 145.951 51.2288 147.005 50.2701 148.438C49.0964 150.192 49.0342 152.589 49.2577 154.688C49.4693 156.674 50.2035 158.7 51.4406 160.269C52.6486 161.801 56.244 163.611 56.244 163.611C55.8341 164.995 54.9177 165.05 54.1871 166.222Z" fill="#FFFF55" stroke="#5555AA" stroke-width="2" stroke-linecap="round" stroke-linejoin="round"/>
<path d="M66.9868 156.699C63.9719 157.095 60.873 160.716 61.1874 163.741C61.5073 166.819 65.366 169.923 68.4367 169.54C71.6156 169.144 74.7193 165.044 74.2362 161.877C73.7884 158.941 69.931 156.311 66.9868 156.699Z" fill="#FF5555" stroke="#5555AA" stroke-width="2" stroke-linecap="round" stroke-linejoin="round"/>
<path d="M58.0806 155.042L62.2231 158.563L58.0806 155.042Z" fill="black"/>
<path d="M58.0806 155.042L62.2231 158.563" stroke="#5555AA" stroke-width="2" stroke-linecap="round" stroke-linejoin="round"/>
<path d="M76.3075 153.177L72.165 158.356L76.3075 153.177Z" fill="black"/>
<path d="M76.3075 153.177L72.165 158.356" stroke="#5555AA" stroke-width="2" stroke-linecap="round" stroke-linejoin="round"/>
<path d="M73.4077 166.226L78.3787 169.955L73.4077 166.226Z" fill="black"/>
<path d="M73.4077 166.226L78.3787 169.955" stroke="#5555AA" stroke-width="2" stroke-linecap="round" stroke-linejoin="round"/>
<path d="M64.7085 168.505L60.3589 174.097L64.7085 168.505Z" fill="black"/>
<path d="M64.7085 168.505L60.3589 174.097" stroke="#5555AA" stroke-width="2" stroke-linecap="round" stroke-linejoin="round"/>
<path d="M183.218 167.266L180.742 180.44L193.802 181.656L194.969 168.732L183.218 167.266ZM188.594 171.382L191.781 174.563L188.25 177.406L185.156 174.219L188.594 171.382Z" fill="black"/>
<path d="M174 153.606L170.189 165.753L183.146 168.407L185.649 155.586L174 153.606ZM178.349 156.9L181.536 160.081L178.005 162.924L174.911 159.737L178.349 156.9Z" fill="black"/>
<path d="M159.383 161.313L154.241 173.261L167.314 177.667L171.047 164.935L159.383 161.313ZM164.088 166.425L166.391 170.294L162.266 172.177L160.056 168.323L164.088 166.425Z" fill="black"/>
<path d="M142.787 168.081L138.082 178.835L149.973 184.37L155.075 173.031L142.787 168.081ZM148.521 172.943L150.454 177.01L146.173 178.501L144.33 174.459L148.521 172.943Z" fill="black"/>
<path d="M156.094 146.762L150.967 150.986L147.894 156.854L159.681 161.581L164.207 151.171L156.094 146.762ZM157.615 150.828L159.4 154.962L155.068 156.298L153.372 152.192L157.615 150.828Z" fill="black"/>
<path d="M167.209 177.025L163.75 188.356L178.093 191.476L180.87 179.836L167.209 177.025ZM172.742 181.331L175.814 184.623L172.183 187.339L169.206 184.043L172.742 181.331Z" fill="black"/>
<path d="M196.385 156.587L194.679 169.31L207.87 169.451L208.568 156.705L196.385 156.587ZM202.282 160.041L205.555 163.134L202.102 166.072L198.923 162.97L202.282 160.041Z" fill="black"/>
<path d="M193.467 180.981L191.901 192.919L206.235 193.643L206.791 181.399L193.467 180.981ZM199.95 184.746L203.278 187.778L199.88 190.779L196.645 187.736L199.95 184.746Z" fill="black"/>
<path d="M207.334 169.134L206.375 181.841L220.003 181.45L219.124 169.196L207.334 169.134ZM213.212 172.318L216.631 175.248L213.324 178.351L209.999 175.406L213.212 172.318Z" fill="black"/>
<path d="M218.478 156.7L219.191 169.487L231.755 167.243L230.221 155.754L218.478 156.7ZM224.473 159.95L228.152 162.545L225.153 165.946L221.565 163.328L224.473 159.95Z" fill="black"/>
<path d="M219.8 181.013L220.535 192.263L234.105 190.044L232.76 178.698L219.8 181.013ZM226.139 183.021L230.112 184.809L227.559 187.972L223.673 186.155L226.139 183.021Z" fill="black"/>
<path d="M246.891 175.648L249.578 187.822L263.662 183.549L259.029 171.586L246.891 175.648ZM254.052 176.937L258.025 178.725L255.472 181.887L251.586 180.07L254.052 176.937Z" fill="black"/>
<path d="M271.446 167.893L274.938 178.686L287.165 174.15L281.77 163.913L271.446 167.893ZM278.046 168.705L282.28 169.735L280.349 173.312L276.196 172.238L278.046 168.705Z" fill="black"/>
<path d="M255.41 160.726L258.833 171.816L271.559 167.859L266.954 155.89L255.41 160.726ZM261.191 161.518L265.428 162.534L263.508 166.117L259.352 165.056L261.191 161.518Z" fill="black"/>
<path d="M240.548 152.789L243.324 164.477L255.613 160.487L251.42 148.822L240.548 152.789ZM247.043 154.214L251.162 155.635L248.905 159.016L244.871 157.559L247.043 154.214Z" fill="black"/>
<path d="M231.481 167.018L232.936 178.782L247.122 176.05L243.722 164.087L231.481 167.018ZM237.82 169.54L241.794 171.328L239.24 174.491L235.354 172.674L237.82 169.54Z" fill="black"/>
<path d="M143.093 168.301L148.126 156.589L146.277 155.87L135.696 165.013L143.093 168.301Z" fill="black"/>
<path d="M261.337 144.878L266.782 155.87L271.302 154.021L263.289 143.85L261.337 144.878Z" fill="black"/>
<path d="M156.771 146.642C167.438 153.081 179.656 155.148 191.655 156.78C200.264 157.951 209.076 157.359 217.717 156.456C226.286 155.561 234.81 153.877 243.071 151.43C249.631 149.487 255.934 146.728 262.129 143.813" stroke="#5555AA" stroke-width="2" stroke-linecap="round" stroke-linejoin="round"/>
<path d="M290.414 171.744C285.346 174.337 280.43 177.249 275.211 179.522C271.417 181.175 267.476 182.476 263.544 183.765C258.76 185.333 253.937 186.805 249.048 188.007C244.38 189.155 239.664 190.149 234.906 190.836C230.222 191.512 225.17 192.198 220.456 192.616C215.86 193.023 211.585 193.109 206.975 193.311C202.383 193.511 197.777 193.54 193.187 193.311C188.455 193.075 183.73 192.598 179.045 191.896C174.29 191.185 169.558 190.265 164.902 189.068C160.354 187.899 155.893 186.396 151.467 184.825C146.93 183.216 142.429 181.484 138.032 179.522C134.423 177.911 130.961 175.987 127.426 174.219" stroke="#5555AA" stroke-width="2" stroke-linecap="round" stroke-linejoin="round"/>
<path d="M258.131 136.03C258.131 136.03 245.383 141.89 238.687 143.906C231.808 145.977 224.697 147.343 217.562 148.188C210.586 149.013 203.507 149.439 196.5 148.938C189.183 148.414 181.924 146.948 174.844 145.031C170.626 143.889 162.531 140.531 162.531 140.531L160.272 142.934C160.272 142.934 169.344 146.637 174.062 147.906C181.331 149.861 188.741 151.395 196.281 151.938C203.521 152.459 210.765 152.01 217.937 151.156C225.242 150.286 232.519 148.874 239.562 146.75C246.527 144.65 259.791 138.559 259.791 138.559L258.131 136.03Z" fill="black"/>
<path d="M239.214 70.5774C239.214 70.5774 238.309 85.2895 239.5 92.5C240.642 99.4163 243.288 106.036 246 112.5C249.489 120.818 253.674 128.88 258.5 136.5C261.746 141.625 265.512 146.428 269.5 151C274.922 157.217 280.207 163.819 287 168.5C291.361 171.506 296.582 173.033 301.5 175C306.209 176.884 315.845 180.068 315.845 180.068" stroke="#5555AA" stroke-width="2" stroke-linecap="round" stroke-linejoin="round"/>
<path d="M103.906 196.094C103.906 196.094 117.758 206.207 123.5 212.5C128.829 218.34 137 232 137 232C137 232 122.207 244.239 116 251.5C108.821 259.898 102.68 269.242 97.5 279C93.1177 287.256 89.495 295.992 87 305C85.2885 311.179 84.8302 317.642 84 324C83.3709 328.818 82.5 338.5 82.5 338.5L30.5 288.5V263" fill="#FFFF58"/>
<path d="M103.906 196.094C103.906 196.094 117.758 206.207 123.5 212.5C128.829 218.34 137 232 137 232C137 232 122.207 244.239 116 251.5C108.821 259.898 102.68 269.242 97.5 279C93.1177 287.256 89.495 295.992 87 305C85.2885 311.179 84.8302 317.642 84 324C83.3709 328.818 82.5 338.5 82.5 338.5L30.5 288.5V263" stroke="black" stroke-width="2" stroke-linecap="round" stroke-linejoin="round"/>
<path d="M37.5 266.5L105.5 204C105.5 204 114.306 211.602 118.079 216C121.652 220.165 127.5 229.5 127.5 229.5C127.5 229.5 115.684 241.078 110.5 247.5C104.025 255.522 98.052 264.014 93 273C89.4174 279.373 86.4192 286.101 84 293C82.0069 298.684 80.448 304.552 79.5 310.5C78.6851 315.613 78.5 326 78.5 326L38 285.5L37.5 266.5Z" fill="black" stroke="black" stroke-width="2" stroke-linecap="round" stroke-linejoin="round"/>
<path d="M91.7966 222.479C91.7374 220.852 92.9465 217.731 92.9465 217.731C92.9465 217.731 95.8129 219.224 97.0246 220.271C98.2849 221.36 100.253 224.085 100.253 224.085C100.253 224.085 101.547 221.169 102.493 219.902C103.558 218.474 106.289 216.143 106.289 216.143C106.289 216.143 107.741 219.311 107.916 221.014C108.122 223.018 107.206 227.017 107.206 227.017C107.206 227.017 110.599 225.372 112.431 225.036C114.167 224.719 117.726 225.038 117.726 225.038C117.726 225.038 115.964 228.669 114.692 230.211C113.395 231.784 110.102 234.251 110.102 234.251C110.102 234.251 112.458 235.078 113.385 235.873C114.457 236.79 115.82 239.334 115.82 239.334C115.82 239.334 113.227 240.882 111.778 241.208C110.51 241.493 107.878 241.24 107.878 241.24C107.878 241.24 108.715 244.036 108.727 245.476C108.741 247.054 107.878 250.136 107.878 250.136C107.878 250.136 105.418 248.967 104.435 248.055C103.343 247.043 101.842 244.417 101.842 244.417C101.842 244.417 100.704 248.379 99.6214 250.101C98.3803 252.075 94.8526 255.219 94.8526 255.219C94.8526 255.219 94.145 250.381 94.162 247.946C94.1761 245.935 94.8164 241.948 94.8164 241.948C94.8164 241.948 91.7368 243.585 90.0701 244.049C88.3275 244.535 84.6867 244.735 84.6867 244.735C84.6867 244.735 85.6284 240.874 86.6774 239.227C87.8603 237.371 91.3581 234.569 91.3581 234.569C91.3581 234.569 88.4091 233.849 87.0521 233.195C85.3939 232.395 82.4629 230.121 82.4629 230.121C82.4629 230.121 85.731 227.586 87.6874 227.17C89.5841 226.767 93.4783 227.723 93.4783 227.723C92.0743 226.543 91.8634 224.314 91.7966 222.479Z" fill="#FFFF58"/>
<path d="M99.5312 227.219C97.9638 227.344 96.4604 228.368 95.4375 229.563C94.4143 230.757 93.6931 232.397 93.75 233.969C93.8156 235.785 94.7839 237.615 96.0625 238.906C97.3309 240.188 99.1344 241.259 100.937 241.25C102.656 241.241 104.382 240.218 105.562 238.969C106.752 237.71 107.684 235.917 107.594 234.188C107.496 232.297 106.276 230.457 104.844 229.219C103.412 227.982 101.417 227.068 99.5312 227.219ZM99.6875 229.219C101.072 229.106 102.513 229.84 103.562 230.75C104.595 231.646 105.527 232.947 105.594 234.313C105.652 235.509 104.949 236.724 104.125 237.594C103.295 238.47 102.113 239.25 100.906 239.25C99.6297 239.25 98.3929 238.412 97.5 237.5C96.568 236.548 95.7995 235.238 95.75 233.906C95.7091 232.808 96.2564 231.68 96.9687 230.844C97.6532 230.04 98.6352 229.304 99.6875 229.219Z" fill="black"/>
<path d="M57.6833 268.879V260.301C57.6833 260.301 63.986 259.6 65.9432 257.442C67.772 255.425 67.8493 249.5 67.8493 249.5H79.9213L57.6833 268.879Z" fill="#FFFF58"/>
<path d="M72.4041 262.767C71.1302 264.056 71.6849 266.963 73.0395 268.167C74.3847 269.364 77.1672 269.44 78.4401 268.167C79.5633 267.044 79.5029 264.583 78.4401 263.402C77.0865 261.899 73.8259 261.327 72.4041 262.767Z" fill="#FFFF58"/>
<path d="M91.3581 260.301L74.5208 281.269L83.7336 279.362C83.7336 279.362 83.4922 274.011 85.0044 272.056C86.5697 270.031 91.9935 268.879 91.9935 268.879L91.3581 260.301Z" fill="#FFFF58"/>
<path d="M42.1167 286.351C45.4927 287.05 48.994 287.122 51.6473 291.434C52.0374 284.2 55.9008 280.439 59.5894 276.503C61.6567 281.692 62.7575 286.881 59.5894 292.07C65.3255 287.056 70.1289 289.505 75.156 290.164C72.7994 294.77 69.7628 298.923 64.037 301.283C67.9633 304.508 69.4566 308.951 70.3907 313.672C68.4846 313.227 66.5785 312.977 64.6724 311.449L44.6582 291.434C43.5371 289.74 42.8834 288.046 42.1167 286.351Z" fill="#FFFF58"/>
<path d="M55.9375 293C54.6064 292.602 53.0785 293.145 51.8438 293.781C50.6389 294.403 49.5111 295.402 48.9062 296.594L50.5062 297.681C50.8522 296.999 51.861 296.039 52.7812 295.563C53.6411 295.117 54.6996 294.684 55.625 294.969C57.1598 295.442 58.3678 296.948 58.9688 298.438C59.5456 299.867 59.1328 301.53 58.9688 303.063C58.8588 304.09 58.3125 306.094 58.3125 306.094L60.2241 307.506C60.2241 307.506 60.8298 304.768 60.9375 303.375C61.0821 301.505 61.5897 299.471 60.8438 297.75C59.9382 295.662 58.1185 293.652 55.9375 293Z" fill="black"/>
<path d="M137.74 232.98C137.74 232.98 145.524 247.994 147.589 256.118C149.189 262.416 149.618 269.028 149.442 275.523C149.202 284.323 148.1 293.224 145.506 301.636C142.896 310.099 138.907 318.216 133.981 325.577C129.114 332.849 116.455 345.123 116.455 345.123" stroke="black" stroke-width="2" stroke-linecap="round" stroke-linejoin="round"/>
<path d="M134.246 235.839C134.246 235.839 140.322 248.235 141.87 254.901C143.768 263.073 144.211 271.619 143.776 279.998C143.396 287.318 142.06 294.647 139.849 301.636C137.63 308.65 134.487 315.432 130.584 321.667C126.458 328.257 121.445 334.356 115.82 339.723C112.862 342.544 105.972 347.029 105.972 347.029" stroke="black" stroke-width="2" stroke-linecap="round" stroke-linejoin="round"/>
<path d="M130.434 239.334C130.434 239.334 135.141 250.79 136.47 256.807C137.939 263.462 138.804 270.336 138.552 277.147C138.263 284.955 136.76 292.761 134.449 300.224C132.271 307.255 129.392 314.192 125.351 320.344C121.029 326.922 115.349 332.587 109.466 337.817C104.7 342.053 93.8997 348.936 93.8997 348.936" stroke="black" stroke-width="2" stroke-linecap="round" stroke-linejoin="round"/>
<path d="M126.674 241.725C126.674 241.725 130.281 250.799 131.387 255.536C132.674 261.054 133.459 266.726 133.584 272.391C133.732 279.126 133.421 285.976 131.854 292.529C130.113 299.81 127.253 306.909 123.444 313.355C119.692 319.705 114.882 325.502 109.466 330.51C103.32 336.194 88.8167 344.806 88.8167 344.806" stroke="black" stroke-width="2" stroke-linecap="round" stroke-linejoin="round"/>
<path d="M171.788 131.601L156.298 145.862L126.396 173.479L91.3505 206.62L61.4479 235.38L30.5 263.758" fill="black"/>
<path d="M171.788 131.601L156.298 145.862L126.396 173.479L91.3505 206.62L61.4479 235.38L30.5 263.758" stroke="#5555AA" stroke-width="2" stroke-linecap="round" stroke-linejoin="round"/>
<path d="M142.628 206.746L159.953 211.342L152.928 232.724L135.634 228.481L142.628 206.746Z" fill="#FF5555"/>
<path d="M181.273 200.351C179.06 201.027 176.846 201.704 174.633 202.38C175.924 203.548 177.215 204.716 178.506 205.885C176.723 206.684 174.94 207.483 173.157 208.283C174.325 209.574 175.494 210.865 176.662 212.156C174.51 213.017 172.358 213.878 170.206 214.739C171.312 216.153 172.419 217.567 173.526 218.982C171.374 219.658 169.222 220.334 167.07 221.011C168.422 222.486 169.775 223.962 171.128 225.438C169.16 226.114 167.193 226.79 165.225 227.467C166.086 229.004 166.947 230.541 167.808 232.078C166.332 233.185 164.661 234.292 163.186 235.399C170.318 236.567 177.646 237.735 184.778 238.904C183.917 237.305 183.057 235.706 182.196 234.107C183.61 233.37 185.024 232.632 186.438 231.894C185.639 230.049 184.84 228.205 184.04 226.36C186.131 225.561 188.221 224.761 190.312 223.962C189.39 221.994 188.467 220.027 187.545 218.059C189.513 217.69 191.48 217.321 193.448 216.952C192.157 215.292 190.865 213.632 189.574 211.972C191.542 211.48 193.509 210.988 195.477 210.496C194.432 209.082 193.386 207.668 192.341 206.254C194.309 205.454 196.276 204.655 198.244 203.856C196.607 203.066 194.999 202.176 193.344 201.448C189.321 201.082 185.297 200.717 181.273 200.351Z" fill="#FFFF55"/>
<path d="M182.923 200.537C180.552 206.101 177.589 211.969 175.226 217.814C172.669 224.141 170.361 231.224 168.221 237.051" stroke="black" stroke-width="2" stroke-linecap="round" stroke-linejoin="round"/>
<path d="M192.116 201.616C189.318 207.674 186.722 213.761 184.412 219.987C182.258 225.795 180.362 231.708 178.683 237.667" stroke="black" stroke-width="2" stroke-linecap="round" stroke-linejoin="round"/>
<path d="M186.575 201.366C185.821 201.469 185.035 202.468 185.224 203.205C185.414 203.939 186.581 204.431 187.289 204.159C187.855 203.941 188.154 203.072 188.003 202.485C187.853 201.899 187.174 201.283 186.575 201.366Z" fill="black"/>
<path d="M183.918 207.748C183.162 207.852 182.367 208.847 182.554 209.587C182.743 210.332 183.928 210.839 184.645 210.561C185.217 210.339 185.511 209.454 185.355 208.86C185.2 208.275 184.518 207.665 183.918 207.748Z" fill="black"/>
<path d="M180.967 214.298C180.199 214.421 179.406 215.472 179.636 216.216C179.865 216.956 181.104 217.369 181.807 217.044C182.343 216.796 182.568 215.939 182.397 215.373C182.225 214.802 181.556 214.203 180.967 214.298Z" fill="black"/>
<path d="M178.68 220.805C177.922 220.902 177.125 221.898 177.305 222.64C177.487 223.385 178.656 223.906 179.375 223.641C179.951 223.428 180.263 222.549 180.116 221.953C179.969 221.358 179.288 220.727 178.68 220.805Z" fill="black"/>
<path d="M176.369 227.24C175.583 227.38 174.749 228.465 175.017 229.217C175.287 229.973 176.631 230.291 177.33 229.895C177.828 229.613 177.957 228.772 177.762 228.235C177.567 227.698 176.93 227.141 176.369 227.24Z" fill="black"/>
<path d="M173.983 233.688C173.214 233.809 172.413 234.854 172.64 235.599C172.867 236.341 174.112 236.756 174.817 236.429C175.352 236.18 175.571 235.322 175.4 234.758C175.228 234.191 174.568 233.596 173.983 233.688Z" fill="black"/>
<path d="M205.908 216.916L225.766 217.223L216.012 241.335L196.964 239.822L205.908 216.916Z" fill="#FF5555"/>
<path d="M215.439 342.875L213.489 350.479C213.489 350.479 204.866 347.212 200.426 345.995C195.177 344.556 189.799 343.618 184.438 342.68C181.269 342.126 178.091 341.576 174.884 341.315C168.405 340.79 161.886 340.798 155.387 340.925C148.812 341.055 142.245 341.516 135.694 342.095C132.37 342.389 129.054 342.787 125.751 343.265C121.965 343.814 114.442 345.215 114.442 345.215L127.311 332.737L151.487 332.542L163.966 301.346L144.858 299.981L148.563 278.924C148.563 278.924 163.269 279.604 170.595 280.288C177.377 280.922 184.139 281.791 190.872 282.823C195.182 283.484 199.443 284.428 203.741 285.163C206.984 285.717 213.489 286.723 213.489 286.723C213.489 286.723 216.17 293.691 217.779 297.056C220.3 302.33 226.163 312.459 226.163 312.459L208.42 308.17L198.671 337.221L215.439 342.875Z" fill="black"/>
<path d="M239.477 362.877C239.477 362.877 231.014 357.361 226.503 355.114C222.292 353.016 213.422 349.811 213.422 349.811L225.089 312.334C225.089 312.334 231.595 321.562 235.342 325.769C238.842 329.699 242.754 333.251 246.702 336.729C250.09 339.714 257.262 345.215 257.262 345.215L239.477 362.877Z" fill="#5555AA"/>
<path d="M237.11 296.071C237.11 296.071 232.642 282.575 231.807 275.564C230.928 268.191 230.892 260.607 232.16 253.291C233.287 246.791 235.741 240.533 238.524 234.552C241.023 229.183 243.877 223.858 247.717 219.349C251.024 215.467 255.234 212.415 259.384 209.45C264.63 205.701 276.001 199.55 276.001 199.55L279.536 202.732C279.536 202.732 278.178 216.965 276.708 223.946C275.14 231.391 273.064 238.76 270.344 245.866C267.819 252.462 264.477 258.727 261.152 264.958C257.868 271.11 254.849 277.503 250.545 282.989C246.687 287.907 237.11 296.071 237.11 296.071Z" fill="#5555AA"/>
<path d="M243.474 289.353C243.474 289.353 239.223 276.559 238.878 269.908C238.496 262.55 239.712 255.08 241.706 247.987C243.662 241.03 246.539 234.204 250.545 228.188C253.595 223.608 257.629 219.687 261.859 216.168C266.708 212.132 277.769 205.915 277.769 205.915C277.769 205.915 276.27 220.589 274.94 227.835C273.934 233.317 272.879 238.833 271.051 244.098C268.751 250.723 265.46 256.975 262.212 263.19C259.619 268.152 257.004 273.146 253.727 277.686C250.696 281.884 243.474 289.353 243.474 289.353Z" fill="#FF5555"/>
<path d="M312.735 314.862L318.539 301.87C318.539 301.87 317.707 297.641 316.003 296.886C314.976 296.431 313.681 297.013 312.753 297.772C311.566 298.743 310.253 302.082 310.253 302.082L305.293 312.519" fill="#FFFF55"/>
<path d="M312.735 314.862L318.539 301.87C318.539 301.87 317.707 297.641 316.003 296.886C314.976 296.431 313.681 297.013 312.753 297.772C311.566 298.743 310.253 302.082 310.253 302.082L305.293 312.519" stroke="#5555AA" stroke-width="2" stroke-linecap="round" stroke-linejoin="round"/>
<path d="M317.551 302.241C317.551 302.241 315.068 303.249 313.753 303.335C312.7 303.404 310.624 302.861 310.624 302.861" stroke="#5555AA" stroke-width="2" stroke-linecap="round" stroke-linejoin="round"/>
<path d="M194.292 474.718C194.292 474.718 208.074 460.672 213.371 452.46C218.915 443.867 223.074 434.35 226.362 424.666C229.214 416.268 230.718 407.445 232.102 398.684C232.923 393.488 233.203 388.219 233.613 382.974C234.005 377.945 234.519 367.869 234.519 367.869L189.504 409.56C189.504 409.56 192.22 418.733 192.828 423.458C193.432 428.153 193.079 432.923 193.13 437.657C193.197 444.001 192.925 450.349 193.13 456.69C193.323 462.709 194.292 474.718 194.292 474.718Z" fill="black"/>
<path d="M60.7215 366.131C65.7891 363.539 72.7884 360.056 78.9689 357.338C84.8022 354.773 90.6831 352.279 96.7254 350.254C101.808 348.551 107.033 347.3 112.236 346.011C117.058 344.817 121.872 343.522 126.784 342.777C131.863 342.007 137.021 341.888 142.144 341.511C146.264 341.207 150.381 340.786 154.512 340.708C159.515 340.614 164.523 340.826 169.518 341.114C174.107 341.378 178.713 341.613 183.254 342.325C188.373 343.127 193.401 344.447 198.411 345.763C202.728 346.896 206.995 348.215 211.238 349.599C215.89 351.117 220.59 352.547 225.079 354.497C230.342 356.783 236.818 360.671 240.354 362.439L195.062 404.488C195.062 404.488 192.32 403.979 190.958 403.681C188.369 403.115 188.511 402.734 183.228 401.823C180.733 400.785 179.063 398.252 176.583 397.178C173.56 395.87 170.206 395.14 166.913 395.148C160.623 395.162 153.046 396.844 148.465 399.109C146.082 399.111 143.98 399.509 141.738 399.725C138.628 400.025 135.508 400.248 132.413 400.671C129.087 401.126 125.723 401.483 122.489 402.382C119.723 403.15 117.098 404.366 114.463 405.506C111.572 406.757 105.935 409.577 105.935 409.577C101.953 402.938 96.8972 394.074 88.3431 385.972C84.0661 381.921 79.0667 376.234 74.7925 372.989C70.5183 369.744 63.7216 367.722 60.7215 366.131Z" fill="#FFFF58"/>
<path d="M193.307 436.842C193.307 436.842 199.401 427.109 201.891 421.947C203.678 418.241 205.278 414.418 206.423 410.467C207.325 407.353 207.937 404.14 208.24 400.912C208.498 398.168 208.235 392.642 208.235 392.642L189.202 409.56C189.202 409.56 191.846 418.133 192.525 422.551C193.25 427.267 193.307 436.842 193.307 436.842H193.307Z" fill="#FF5555"/>
<path d="M136.5 510.5L71 426.333L63.1667 428L122.5 510.5H136.5Z" fill="black"/>
<path d="M53.5 510.5C55.1721 500.601 55.8433 490.533 55.5 480.5C55.1521 470.332 53.7485 460.141 50.5 450.5C48.1125 443.414 44.7364 436.662 40.5 430.5C43.8285 430.72 47.1715 430.72 50.5 430.5C54.8803 430.211 59.2354 429.541 63.5 428.5L122.5 510.5H53.5Z" fill="#FFFF55" stroke="#5555AA" stroke-width="2" stroke-linecap="round" stroke-linejoin="round"/>
<path d="M86.9077 485.03C86.5123 484.039 86.0562 483.048 85.3896 482.22C84.5103 481.128 83.546 479.907 82.1981 479.478C80.5033 478.937 78.2059 478.753 76.8071 479.928C75.4439 481.073 75.0171 483.362 75.4606 485.033C75.9725 486.963 79.6885 489.217 79.6885 489.217C79.6885 489.217 74.9604 490.797 74.1324 492.83C73.3549 494.738 74.1659 497.282 75.5721 498.708C76.9593 500.115 79.5004 501.05 81.3683 500.227C83.4656 499.304 84.6683 494.204 84.6683 494.204C84.6683 494.204 85.5063 497.957 86.7189 499.333C87.7958 500.556 89.3463 501.75 91.0091 501.714C92.4843 501.682 94.1862 500.756 94.8758 499.435C95.9611 497.354 95.4871 494.467 94.2506 492.556C93.0111 490.641 88.2528 489.214 88.2528 489.214C88.2528 489.214 89.5277 491.917 87.2706 493.477C85.4666 494.724 82.2246 493.239 81.2241 491.369C80.3771 489.787 80.8237 486.749 82.5248 486.021C85.9193 484.569 87.6428 487.743 87.6428 487.743C87.6428 487.743 87.254 485.898 86.9077 485.03Z" fill="black" stroke="#000100" stroke-width="2" stroke-linecap="round" stroke-linejoin="round"/>
<path d="M67.3317 457.792C66.9789 456.896 66.572 455.999 65.9772 455.251C65.1927 454.263 64.3323 453.159 63.1296 452.771C61.6175 452.282 59.5677 452.115 58.3197 453.178C57.1034 454.213 56.7225 456.283 57.1183 457.795C57.575 459.54 60.8905 461.579 60.8905 461.579C60.8905 461.579 57.1832 463.406 56.5998 465.179C56.0301 466.911 56.5886 469.213 57.8844 470.496C58.9796 471.58 60.9847 472.17 62.3893 471.536C64.2704 470.687 65.3337 466.089 65.3337 466.089C65.3337 466.089 66.0813 469.483 67.1632 470.728C68.1241 471.833 69.5075 472.913 70.9911 472.88C72.3073 472.851 73.8258 472.015 74.4411 470.819C75.4094 468.938 74.9865 466.327 73.8832 464.599C72.7773 462.866 68.5319 461.576 68.5319 461.576C68.5319 461.576 69.6693 464.021 67.6555 465.431C66.0459 466.559 63.1533 465.216 62.2606 463.525C61.5049 462.094 61.9033 459.347 63.4211 458.689C66.4498 457.375 67.9875 460.246 67.9875 460.246C67.9875 460.246 67.6406 458.577 67.3317 457.792Z" fill="black" stroke="#000100" stroke-width="2" stroke-linecap="round" stroke-linejoin="round"/>
<path d="M113.167 508.833C113.167 508.833 112.579 497.606 107.667 492C102.945 486.611 97.389 486.389 92.5001 486.833C92.5001 486.833 94.8 473.694 90.5001 468.333C85.8362 462.519 70.5001 458 70.5001 458C70.5001 458 74.0801 447.953 69.1667 441C66.4462 437.15 57.3334 431.5 57.3334 431.5" stroke="black" stroke-width="2" stroke-linecap="round" stroke-linejoin="round"/>
<path d="M108.406 509.862C109.096 509.86 109.746 509.321 109.875 508.643C109.875 508.643 111.698 500.31 105.812 494.425C104.902 493.514 103.595 492.731 102 491.862C100.405 490.993 98.5629 490.102 96.8124 489.3C93.758 487.899 91.6632 487.1 90.9999 486.831C90.9969 486.124 91.0226 484.6 90.6249 481.8C90.1456 478.425 89.5376 473.64 87.302 470.477C83.1613 464.619 78.4152 462.113 74.9999 460.425C72.7649 459.32 71.2406 458.934 70.2186 458.737C70.1201 457.968 69.9405 456.311 69.3749 453.456C68.6919 450.008 67.7608 446.087 66.1874 443.55C64.5384 440.89 61.2591 438.053 58.3124 435.706C55.3657 433.359 52.7499 431.581 52.7499 431.581C52.0954 431.139 51.0977 431.332 50.6559 431.987C50.214 432.642 53.741 435.139 54.3957 435.581C54.3957 435.581 56.7518 438.944 57.2707 442.383C60.123 444.655 62.205 444.705 63.8228 446.779C65.4071 448.81 65.7791 450.727 66.4374 454.05C67.0956 457.373 67.4374 460.175 67.4374 460.175C67.5213 460.856 68.1282 461.435 68.8124 461.487C68.8124 461.487 74.5136 462.922 76.6561 464.779C79.1273 466.921 82.3412 467.739 81.6978 473.195C83.4287 475.644 87.2104 479.098 87.6561 482.237C88.1019 485.376 88.0936 487.8 88.0936 487.8C88.0747 488.408 88.4665 489.009 89.0311 489.237C89.0311 489.237 92.1388 490.48 95.5624 492.05C97.2742 492.834 99.3625 493.099 100.562 494.518C102.03 496.254 102.113 500.642 102.521 501.05C107.176 505.705 106.937 508.018 106.937 508.018C106.73 508.898 107.502 509.867 108.406 509.862Z" fill="black"/>
<path d="M149.5 510.5H136.167L30.5 371.833V339.5L149.5 510.5Z" fill="#FF5555" stroke="#5555AA" stroke-width="2"/>
<path d="M173.507 510.5C173.507 510.5 171.737 499.204 158.855 488.326C145.974 477.447 124.497 473.097 124.497 473.097" stroke="#5555AA" stroke-width="2" stroke-linecap="round" stroke-linejoin="round"/>
<path d="M168.339 510.5C168.339 510.5 163.127 498.67 155.911 492.657C148.695 486.645 128.379 479.543 128.379 479.543" stroke="#5555AA" stroke-width="2" stroke-linecap="round" stroke-linejoin="round"/>
<path d="M162.233 510.5C162.233 510.5 157.822 500.441 152.441 495.86C147.059 491.279 132.516 485.327 132.516 485.327" stroke="#5555AA" stroke-width="2" stroke-linecap="round" stroke-linejoin="round"/>
<path d="M157.212 510.5C157.212 510.5 154.48 503.668 150.182 500.118C145.884 496.568 137.291 492.727 137.291 492.727" stroke="#5555AA" stroke-width="2" stroke-linecap="round" stroke-linejoin="round"/>
<path d="M171.561 502.962C171.561 502.962 172.402 498.877 177.705 490.005C183.009 481.133 193.452 477.373 193.452 477.373" stroke="#5555AA" stroke-width="2" stroke-linecap="round" stroke-linejoin="round"/>
<path d="M175.449 510.5C175.449 510.5 175.622 503.451 180.446 495.939C185.27 488.426 193.387 484.625 193.387 484.625" stroke="#5555AA" stroke-width="2" stroke-linecap="round" stroke-linejoin="round"/>
<path d="M180.82 510.5C180.82 510.5 182.753 503.042 185.329 498.461C187.904 493.88 193.19 490.563 193.19 490.563" stroke="#5555AA" stroke-width="2" stroke-linecap="round" stroke-linejoin="round"/>
<path d="M186.946 510.5C186.946 510.5 186.765 506.099 188.889 502.549C191.012 498.999 192.479 498.565 192.479 498.565" stroke="#5555AA" stroke-width="2" stroke-linecap="round" stroke-linejoin="round"/>
<path d="M174.095 457.207C174.095 457.207 173.499 454.507 173.564 453.143C173.737 449.567 174.76 446.046 175.973 442.678C176.768 440.469 178.973 438.726 179.131 436.384C179.263 434.438 178.515 432.32 177.235 430.847C176.334 429.809 174.596 429.882 173.559 428.979C172.72 428.248 171.653 426.239 171.653 426.239" stroke="#5555AA" stroke-width="2" stroke-linecap="round" stroke-linejoin="round"/>
<path d="M161.752 437.719C161.752 437.719 158.428 434.16 158.893 432.115C159.197 430.78 160.807 429.833 162.161 429.624C163.94 429.35 165.56 430.813 167.243 431.452C168.837 432.058 170.37 433.883 171.99 433.354C172.642 433.141 173.407 432.212 173.079 431.61C172.544 430.626 170.837 431.624 169.718 431.557C166.324 431.353 162.28 428.439 159.574 430.496C158.703 431.158 158.794 432.665 159.029 433.734C159.375 435.305 161.752 437.719 161.752 437.719Z" fill="#5555AA" stroke="#5555AA" stroke-width="2" stroke-linecap="round" stroke-linejoin="round"/>
<path d="M128.299 460.728C128.299 460.728 137.507 467.009 142.797 468.377C146.959 469.454 151.535 469.745 155.69 468.643C157.362 468.199 160.141 465.978 160.141 465.978C160.141 465.978 156.066 467.29 153.953 467.517C149.683 467.977 145.239 468.193 141.075 467.142C136.455 465.976 128.299 460.728 128.299 460.728Z" fill="#5555AA" stroke="#5555AA" stroke-width="2" stroke-linecap="round" stroke-linejoin="round"/>
<path d="M192.229 466.249C192.229 466.249 186.662 469.229 183.689 468.903C179.985 468.497 174.102 463.377 174.102 463.377C174.102 463.377 180.343 467.635 183.962 467.747C186.999 467.84 192.467 464.595 192.467 464.595L192.229 466.249Z" fill="#5555AA" stroke="#5555AA" stroke-width="2" stroke-linecap="round" stroke-linejoin="round"/>
<path d="M156.56 417.529C156.56 417.529 161.264 419.405 163.714 419.574C165.554 419.701 167.361 418.877 169.202 418.788C171.303 418.687 173.459 419.642 175.507 419.08C176.627 418.773 178.537 417.144 178.537 417.144C178.537 417.144 176.451 417.604 175.401 417.541C173.264 417.413 171.263 415.975 169.124 415.973C166.764 415.969 164.574 417.429 162.194 417.685C160.324 417.886 156.56 417.529 156.56 417.529Z" fill="#5555AA" stroke="#5555AA" stroke-width="2" stroke-linecap="round" stroke-linejoin="round"/>
<path d="M162.922 412.667C162.922 412.667 166.865 411.296 168.912 411.252C170.666 411.214 174.086 412.242 174.086 412.242" stroke="#5555AA" stroke-width="2" stroke-linecap="round" stroke-linejoin="round"/>
<path d="M174.874 457.6C174.874 457.6 179.906 461.706 184.523 461.805C189.465 461.912 192.418 459.282 192.418 459.282" stroke="#5555AA" stroke-width="2" stroke-linecap="round" stroke-linejoin="round"/>
<path d="M131.886 455.454C131.886 455.454 141.75 462.78 147.413 462.617C154.833 462.403 160.374 457.057 160.374 457.057" stroke="#5555AA" stroke-width="2" stroke-linecap="round" stroke-linejoin="round"/>
<path d="M130.795 453.879C136.647 454.636 140.949 457.178 146.336 457.638C150.955 458.033 160.279 456.602 160.279 456.602" stroke="#5555AA" stroke-width="2" stroke-linecap="round" stroke-linejoin="round"/>
<path d="M193.047 453.806C187.66 456.348 188.813 457.157 183.426 457.617C178.807 458.011 173.981 455.391 173.981 455.391" stroke="#5555AA" stroke-width="2" stroke-linecap="round" stroke-linejoin="round"/>
<path d="M134.031 453.42C139.298 452.22 144.8 448.338 150.759 448.042C155.174 447.822 159.91 450.856 160.298 454.939" stroke="#5555AA" stroke-width="2" stroke-linecap="round" stroke-linejoin="round"/>
<path d="M145.119 456.104C144.182 451.041 149.137 449.545 152.697 449.983C155.112 450.28 157.351 453.243 156.189 456.137" stroke="#5555AA" stroke-width="2" stroke-linecap="round" stroke-linejoin="round"/>
<path d="M153.368 453.257C153.466 454.174 152.622 455.437 151.662 455.487C150.822 455.531 149.938 454.51 149.956 453.703C149.975 452.862 150.94 451.941 151.817 451.919C152.512 451.901 153.296 452.594 153.368 453.257Z" fill="#5555AA" stroke="#5555AA" stroke-width="2" stroke-linecap="round" stroke-linejoin="round"/>
<path d="M181.942 452.952C181.916 453.669 182.789 454.597 183.685 454.578C184.468 454.561 185.217 453.715 185.143 453.091C185.066 452.44 184.105 451.784 183.289 451.82C182.641 451.849 181.962 452.433 181.942 452.952Z" fill="#5555AA" stroke="#5555AA" stroke-width="2" stroke-linecap="round" stroke-linejoin="round"/>
<path d="M175.532 449.087C177.625 446.628 177.776 444.444 182.111 442.359" stroke="#5555AA" stroke-width="2" stroke-linecap="round" stroke-linejoin="round"/>
<path d="M160.985 456.141C159.38 449.02 157.11 445.201 151.962 443.046" stroke="#5555AA" stroke-width="2" stroke-linecap="round" stroke-linejoin="round"/>
<path d="M192.949 451.086C190.094 449.282 186.438 448.217 181.774 448.338C178.319 448.429 174.806 450.877 174.745 453.835" stroke="#5555AA" stroke-width="2" stroke-linecap="round" stroke-linejoin="round"/>
<path d="M187.674 456.397C188.786 451.498 186.579 448.861 182.531 448.944C180.751 448.98 177.108 452.983 179.783 456.788" stroke="#5555AA" stroke-width="2" stroke-linecap="round" stroke-linejoin="round"/>
<path d="M191.5 510.5C191.5 510.5 193.795 488.53 194 477.5C194.161 468.828 193.255 460.169 193 451.5C192.76 443.335 193.411 435.117 192.5 427C191.855 421.251 191.565 415.186 189 410C186.748 405.447 183.293 401.216 179 398.5C175.343 396.187 170.821 395.226 166.5 395C162.111 394.77 157.668 395.813 153.5 397.209C147.804 399.117 142.515 402.194 137.5 405.5C132.458 408.824 127.643 412.606 123.5 417C120.39 420.299 115.5 428 115.5 428" stroke="#5555AA" stroke-width="2" stroke-linecap="round" stroke-linejoin="round"/>
<path d="M194.147 404.058C189.478 401.651 185.331 401.226 182.197 400.867" stroke="#5555AA" stroke-width="2" stroke-linecap="round" stroke-linejoin="round"/>
<path d="M149.438 398.485C142.174 399.838 133.202 400.683 125.298 402.757C118.654 404.501 112.338 407.315 105.858 409.594" stroke="#5555AA" stroke-width="2" stroke-linecap="round" stroke-linejoin="round"/>
<path d="M117.607 423.693L111.626 407.884" stroke="#5555AA" stroke-width="2" stroke-linecap="round" stroke-linejoin="round"/>
<path d="M121.025 419.42L116.112 406.389" stroke="#5555AA" stroke-width="2" stroke-linecap="round" stroke-linejoin="round"/>
<path d="M124.871 414.72L121.666 405.321" stroke="#5555AA" stroke-width="2" stroke-linecap="round" stroke-linejoin="round"/>
<path d="M128.716 411.302L125.725 403.826" stroke="#5555AA" stroke-width="2" stroke-linecap="round" stroke-linejoin="round"/>
<path d="M132.775 407.884L129.998 401.689" stroke="#5555AA" stroke-width="2" stroke-linecap="round" stroke-linejoin="round"/>
<path d="M136.62 405.107L134.911 401.476" stroke="#5555AA" stroke-width="2" stroke-linecap="round" stroke-linejoin="round"/>
<path d="M115.685 460.436C116.682 458.585 117.91 456.841 118.676 454.882C119.719 452.212 120.1 449.328 120.812 446.551" stroke="#5555AA" stroke-width="2" stroke-linecap="round" stroke-linejoin="round"/>
<path d="M111.626 454.455C112.908 451.891 114.536 449.473 115.471 446.764C116.633 443.398 116.895 439.786 117.607 436.297" stroke="#5555AA" stroke-width="2" stroke-linecap="round" stroke-linejoin="round"/>
<path d="M107.994 449.114C109.134 446.408 110.585 443.813 111.412 440.996C112.696 436.627 112.979 432.024 113.762 427.538" stroke="#5555AA" stroke-width="2" stroke-linecap="round" stroke-linejoin="round"/>
<path d="M103.935 443.987C105.288 440.498 107.216 437.18 107.994 433.52C109.196 427.871 108.564 421.984 108.849 416.216" stroke="#5555AA" stroke-width="2" stroke-linecap="round" stroke-linejoin="round"/>
<path d="M99.6629 438.433C100.873 435.869 102.635 433.5 103.294 430.742C105.051 423.398 103.722 415.646 103.935 408.098" stroke="#5555AA" stroke-width="2" stroke-linecap="round" stroke-linejoin="round"/>
<path d="M95.3904 432.879C96.6721 429.674 98.7303 425.656 99.2356 421.77C100.221 414.193 98.0963 406.531 97.5266 398.912" stroke="#5555AA" stroke-width="2" stroke-linecap="round" stroke-linejoin="round"/>
<path d="M91.545 426.043C92.6131 422.625 93.7818 417.137 93.8949 412.584C94.082 405.053 92.3283 398.698 91.1177 390.153" stroke="#5555AA" stroke-width="2" stroke-linecap="round" stroke-linejoin="round"/>
<path d="M86.8453 419.42C87.5574 414.649 87.7562 410.445 87.4862 405.962C86.9738 397.455 85.35 388.943 83.2137 380.754" stroke="#5555AA" stroke-width="2" stroke-linecap="round" stroke-linejoin="round"/>
<path d="M81.2911 411.302C81.4335 406.816 81.9243 401.718 81.2911 396.99C80.2134 388.942 77.161 381.609 74.8823 373.491" stroke="#5555AA" stroke-width="2" stroke-linecap="round" stroke-linejoin="round"/>
<path d="M74.455 401.476C74.7398 398.2 74.7376 393.58 74.0277 389.726C72.7062 382.551 70.6809 376.197 66.9781 369.004" stroke="#5555AA" stroke-width="2" stroke-linecap="round" stroke-linejoin="round"/>
<path d="M68.2598 392.503C67.7613 388.801 67.874 384.963 66.7644 381.395C65.0809 375.982 61.2813 370.927 59.0739 366.227" stroke="#5555AA" stroke-width="2" stroke-linecap="round" stroke-linejoin="round"/>
<path d="M270.703 332.538C270.703 332.538 275.108 337.747 277.572 340.139C280.165 342.658 282.864 345.12 285.871 347.217C288.189 348.832 290.553 350.707 293.312 351.41C294.94 351.825 296.796 351.973 298.353 351.34C299.496 350.874 300.772 349.995 301.039 348.789C301.548 346.498 299.938 344.062 298.464 342.236C296.968 340.385 294.696 339.244 292.518 338.285C291.204 337.706 289.603 337.382 288.336 337.248C287.507 334.647 289.991 335.24 289.463 330.11C289.308 328.605 289.101 326.541 289.101 326.541" stroke="#5555AA" stroke-width="2" stroke-linecap="round" stroke-linejoin="round"/>
<path d="M297.033 346.814C297.033 346.814 296.545 345.149 295.888 344.595C295.288 344.09 294.405 343.817 293.598 343.809C292.807 343.801 291.338 344.534 291.338 344.534" stroke="#5555AA" stroke-width="2" stroke-linecap="round" stroke-linejoin="round"/>
<path d="M301.612 349.576C301.612 349.576 305.579 351.39 307.336 350.624C309.185 349.817 310.19 347.52 310.197 345.644C310.209 342.791 307.42 340.527 305.905 338.042C304.983 336.532 304.371 334.713 302.99 333.607C301.637 332.524 299.818 331.404 298.125 331.773C296.801 332.06 295.738 333.388 295.263 334.656C294.839 335.787 294.68 337.382 295.495 338.274C296.589 339.471 298.718 339.364 300.303 339.02C301.15 338.837 301.937 338.272 302.477 337.594C303.031 336.897 303.403 335.088 303.403 335.088" stroke="#5555AA" stroke-width="2" stroke-linecap="round" stroke-linejoin="round"/>
<path d="M311.056 344.333C311.056 344.333 313.858 343.477 314.776 342.498C315.701 341.513 316.267 340.127 316.207 338.829C316.111 336.719 314.659 334.798 313.346 333.062C311.809 331.031 309.801 329.215 307.622 327.82C306.005 326.785 304.205 325.914 302.313 325.593C300.899 325.353 299.002 324.811 298.02 325.855C297.182 326.746 297.414 328.462 298.02 329.524C298.477 330.326 299.518 330.671 300.403 330.935C301.604 331.293 303.109 331.793 304.158 331.107C305.099 330.492 305.367 327.961 305.367 327.961" stroke="#5555AA" stroke-width="2" stroke-linecap="round" stroke-linejoin="round"/>
<path d="M315.635 334.373C315.635 334.373 319.119 332.162 319.356 330.441C319.515 329.278 318.45 328.202 317.638 327.296C315.57 324.984 312.69 323.358 309.911 321.791C308.203 320.828 306.479 319.454 304.474 319.432C303.534 319.422 302.366 319.734 301.898 320.481C301.468 321.167 301.81 322.127 302.184 322.84C302.885 324.176 304 326.034 305.618 325.985C306.632 325.954 307.222 324.742 307.622 323.888C308.037 323.001 307.908 321.005 307.908 321.005" stroke="#5555AA" stroke-width="2" stroke-linecap="round" stroke-linejoin="round"/>
<path d="M317.352 325.199C317.352 325.199 318.609 323.154 318.497 322.053C318.315 320.262 317.013 318.618 315.635 317.335C313.849 315.673 311.462 314.494 309.018 313.838C307.746 313.496 306.057 312.881 305.046 313.666C303.8 314.633 303.72 316.795 304.474 318.122C305.124 319.266 306.802 320.154 308.194 319.956C309.245 319.808 309.918 318.721 310.414 317.859C310.914 316.992 311.056 314.976 311.056 314.976" stroke="#5555AA" stroke-width="2" stroke-linecap="round" stroke-linejoin="round"/>
<path d="M305.762 312.228C305.762 312.228 304.889 310.864 304.285 310.342C303.716 309.851 303.015 309.527 302.328 309.223C300.964 308.619 298.071 307.84 298.071 307.84" stroke="#5555AA" stroke-width="2" stroke-linecap="round" stroke-linejoin="round"/>
<path d="M296.832 349.784C296.832 349.784 302.349 348.578 305.141 348.684C307.268 348.764 309.462 349.097 311.391 349.998C313.483 350.976 315.372 352.495 316.833 354.282C318.469 356.283 320.323 361.207 320.323 361.207C320.323 361.207 315.968 360.279 313.755 360.12C311.368 359.949 308.958 360.519 306.579 360.271C304.804 360.087 303.047 359.656 301.365 359.061C300.018 358.584 298.654 358.042 297.51 357.186C296.393 356.348 295.465 355.247 294.693 354.083C294.048 353.111 293.22 350.909 293.22 350.909L296.832 349.784Z" fill="#FFFF55" stroke="#5555AA" stroke-width="2" stroke-linecap="round" stroke-linejoin="round"/>
<path d="M311.877 355.48C311.877 355.48 308.944 353.956 307.365 353.506C304.979 352.827 302.444 352.861 299.998 352.449C298.173 352.141 294.548 351.395 294.548 351.395" stroke="#5555AA" stroke-width="2" stroke-linecap="round" stroke-linejoin="round"/>
<path d="M293.973 352.354L293.086 362.674L290.018 365.38L287.365 362.701L287.956 348.941L293.973 352.354Z" fill="#FFFF55" stroke="#5555AA" stroke-width="2" stroke-linecap="round" stroke-linejoin="round"/>
<path d="M286.21 349.154C286.21 349.154 284.405 353.054 282.851 354.559C281.049 356.304 278.66 357.534 276.243 358.461C273.987 359.326 271.386 359.171 269.084 359.928C266.931 360.636 262.963 362.77 262.963 362.77C262.963 362.77 263.39 358.082 264.456 356.049C265.589 353.886 267.365 351.971 269.433 350.674C272.226 348.922 275.642 348.338 278.891 347.783C280.347 347.534 281.883 347.272 283.317 347.598C284.402 347.844 286.21 349.154 286.21 349.154Z" fill="#FFFF55" stroke="#5555AA" stroke-width="2.00118" stroke-linecap="round" stroke-linejoin="round"/>
<path d="M285.145 349.243C285.145 349.243 281.904 351.758 280.008 352.453C277.79 353.266 275.195 352.608 272.996 353.469C271.385 354.099 268.721 356.41 268.721 356.41" stroke="#5555AA" stroke-width="2.00118" stroke-linecap="round" stroke-linejoin="round"/>
<path d="M280.101 380.811L274.258 384.948L268.643 381.821L274.286 377.162L280.101 380.811Z" fill="#5555AA" stroke="#5555AA" stroke-width="2" stroke-linecap="round" stroke-linejoin="round"/>
<path d="M293.859 388.992L298.138 394.743L294.162 400.48L289.856 394.821L293.859 388.992Z" fill="#5555AA" stroke="#5555AA" stroke-width="2" stroke-linecap="round" stroke-linejoin="round"/>
<path d="M309.672 380.133L315.146 375.657L308.471 372.575L304.409 376.991L309.672 380.133Z" fill="#5555AA" stroke="#5555AA" stroke-width="2" stroke-linecap="round" stroke-linejoin="round"/>
<path d="M306.813 374.778C307.938 372.563 309.481 370.204 309.275 367.743C309.119 365.887 307.98 364.072 306.557 362.79C304.702 361.119 302.071 360.206 299.573 359.761C298.358 359.544 297.012 359.485 295.877 359.97C293.625 360.932 290.504 364.982 290.504 364.982C290.504 364.982 287.591 362.404 285.778 361.922C282.97 361.177 279.632 361.025 277.077 362.406C275.289 363.372 274.039 365.365 273.458 367.312C272.828 369.425 273.166 371.814 273.826 373.918C274.236 375.222 275.019 376.436 275.98 377.409C277.4 378.847 281.1 380.66 281.1 380.66C281.1 380.66 276.925 383.588 275.684 385.726C274.838 387.183 274.346 388.968 274.516 390.644C274.684 392.303 275.487 393.927 276.625 395.179C277.937 396.624 279.728 397.988 281.724 398.239C284.214 398.551 286.866 397.543 288.927 396.124C290.025 395.369 290.638 394.07 291.349 392.942C292.284 391.459 293.754 388.263 293.754 388.263C293.754 388.263 296.499 391.784 298.373 392.903C300.747 394.323 303.571 395.632 306.326 395.274C308.06 395.049 309.771 393.995 310.73 392.562C311.904 390.808 311.966 388.411 311.742 386.312C311.531 384.326 310.796 382.3 309.559 380.731C308.351 379.199 304.756 377.389 304.756 377.389C305.166 376.005 306.082 375.95 306.813 374.778Z" fill="#FFFF55" stroke="#5555AA" stroke-width="2" stroke-linecap="round" stroke-linejoin="round"/>
<path d="M294.013 384.301C297.028 383.905 300.127 380.284 299.813 377.259C299.493 374.181 295.634 371.077 292.563 371.46C289.384 371.856 286.281 375.956 286.764 379.123C287.212 382.059 291.069 384.689 294.013 384.301Z" fill="#FF5555" stroke="#5555AA" stroke-width="2" stroke-linecap="round" stroke-linejoin="round"/>
<path d="M302.919 385.958L298.777 382.437L302.919 385.958Z" fill="black"/>
<path d="M302.919 385.958L298.777 382.437" stroke="#5555AA" stroke-width="2" stroke-linecap="round" stroke-linejoin="round"/>
<path d="M284.692 387.823L288.835 382.644L284.692 387.823Z" fill="black"/>
<path d="M284.692 387.823L288.835 382.644" stroke="#5555AA" stroke-width="2" stroke-linecap="round" stroke-linejoin="round"/>
<path d="M287.592 374.774L282.621 371.045L287.592 374.774Z" fill="black"/>
<path d="M287.592 374.774L282.621 371.045" stroke="#5555AA" stroke-width="2" stroke-linecap="round" stroke-linejoin="round"/>
<path d="M296.292 372.495L300.641 366.903L296.292 372.495Z" fill="black"/>
<path d="M296.292 372.495L300.641 366.903" stroke="#5555AA" stroke-width="2" stroke-linecap="round" stroke-linejoin="round"/>
<path d="M177.782 373.734L180.258 360.56L167.198 359.344L166.031 372.268L177.782 373.734ZM172.406 369.618L169.219 366.437L172.75 363.594L175.844 366.781L172.406 369.618Z" fill="black"/>
<path d="M187 387.394L190.811 375.247L177.854 372.593L175.351 385.414L187 387.394ZM182.651 384.1L179.464 380.919L182.995 378.076L186.089 381.263L182.651 384.1Z" fill="black"/>
<path d="M201.617 379.687L206.759 367.739L193.686 363.333L189.953 376.065L201.617 379.687ZM196.912 374.575L194.609 370.706L198.734 368.823L200.944 372.677L196.912 374.575Z" fill="black"/>
<path d="M218.213 372.919L222.918 362.165L211.027 356.63L205.925 367.969L218.213 372.919ZM212.479 368.057L210.546 363.99L214.827 362.499L216.67 366.541L212.479 368.057Z" fill="black"/>
<path d="M204.906 394.238L210.033 390.014L213.106 384.146L201.319 379.419L196.793 389.829L204.906 394.238ZM203.385 390.172L201.6 386.038L205.932 384.702L207.628 388.808L203.385 390.172Z" fill="black"/>
<path d="M193.791 363.975L197.25 352.644L182.907 349.524L180.13 361.164L193.791 363.975ZM188.258 359.669L185.186 356.377L188.817 353.661L191.794 356.957L188.258 359.669Z" fill="black"/>
<path d="M164.615 384.413L166.321 371.69L153.13 371.549L152.432 384.295L164.615 384.413ZM158.718 380.959L155.445 377.866L158.898 374.928L162.077 378.03L158.718 380.959Z" fill="black"/>
<path d="M167.533 360.019L169.099 348.081L154.765 347.357L154.209 359.601L167.533 360.019ZM161.05 356.254L157.722 353.222L161.12 350.221L164.355 353.264L161.05 356.254Z" fill="black"/>
<path d="M153.666 371.866L154.625 359.159L140.997 359.55L141.876 371.804L153.666 371.866ZM147.788 368.682L144.369 365.752L147.676 362.649L151.001 365.594L147.788 368.682Z" fill="black"/>
<path d="M142.522 384.3L141.809 371.513L129.245 373.757L130.779 385.246L142.522 384.3ZM136.527 381.05L132.848 378.455L135.847 375.054L139.435 377.672L136.527 381.05Z" fill="black"/>
<path d="M141.2 359.987L140.465 348.737L126.895 350.956L128.24 362.302L141.2 359.987ZM134.861 357.979L130.888 356.191L133.441 353.028L137.327 354.845L134.861 357.979Z" fill="black"/>
<path d="M114.109 365.352L111.422 353.178L97.3383 357.451L101.971 369.414L114.109 365.352ZM106.948 364.063L102.975 362.275L105.528 359.113L109.414 360.93L106.948 364.063Z" fill="black"/>
<path d="M89.5537 373.107L86.0615 362.314L73.8352 366.85L79.2303 377.087L89.5537 373.107ZM82.9536 372.295L78.7198 371.265L80.6505 367.688L84.8035 368.762L82.9536 372.295Z" fill="black"/>
<path d="M105.59 380.274L102.167 369.184L89.4411 373.141L94.0463 385.11L105.59 380.274ZM99.8089 379.482L95.5719 378.466L97.4917 374.883L101.648 375.944L99.8089 379.482Z" fill="black"/>
<path d="M120.452 388.211L117.676 376.523L105.387 380.513L109.58 392.178L120.452 388.211ZM113.957 386.786L109.838 385.365L112.095 381.984L116.129 383.441L113.957 386.786Z" fill="black"/>
<path d="M129.519 373.982L128.064 362.218L113.878 364.95L117.278 376.913L129.519 373.982ZM123.18 371.46L119.206 369.672L121.76 366.509L125.646 368.326L123.18 371.46Z" fill="black"/>
<path d="M217.907 372.699L212.874 384.411L214.723 385.13L225.304 375.987L217.907 372.699Z" fill="black"/>
<path d="M99.6626 396.122L94.2178 385.13L89.6976 386.979L97.7107 397.15L99.6626 396.122Z" fill="black"/>
<path d="M204.229 394.358C193.562 387.919 181.344 385.852 169.345 384.22C160.736 383.049 151.924 383.641 143.283 384.544C134.714 385.439 126.19 387.123 117.929 389.57C111.369 391.513 105.066 394.272 98.8706 397.187" stroke="#5555AA" stroke-width="2" stroke-linecap="round" stroke-linejoin="round"/>
<path d="M70.5861 369.256C75.6537 366.663 80.5703 363.751 85.7889 361.478C89.5828 359.825 93.5238 358.524 97.4561 357.235C102.24 355.667 107.063 354.195 111.952 352.993C116.62 351.845 121.336 350.851 126.094 350.164C130.778 349.488 135.83 348.802 140.544 348.384C145.14 347.977 149.415 347.891 154.025 347.689C158.617 347.489 163.223 347.46 167.813 347.689C172.545 347.925 177.27 348.402 181.955 349.104C186.71 349.815 191.442 350.735 196.098 351.932C200.646 353.101 205.107 354.604 209.533 356.175C214.07 357.784 218.571 359.516 222.968 361.478C226.577 363.089 230.039 365.013 233.574 366.781" stroke="#5555AA" stroke-width="2" stroke-linecap="round" stroke-linejoin="round"/>
<path d="M102.869 404.97C102.869 404.97 115.617 399.11 122.313 397.094C129.192 395.023 136.303 393.657 143.438 392.812C150.414 391.987 157.493 391.561 164.5 392.062C171.817 392.586 179.076 394.052 186.156 395.969C190.374 397.111 198.469 400.469 198.469 400.469L200.728 398.066C200.728 398.066 191.656 394.363 186.938 393.094C179.669 391.139 172.259 389.605 164.719 389.062C157.479 388.541 150.235 388.99 143.063 389.844C135.758 390.714 128.481 392.126 121.438 394.25C114.473 396.35 101.209 402.441 101.209 402.441L102.869 404.97Z" fill="black"/>
<path d="M121.786 470.423C121.786 470.423 122.691 455.711 121.5 448.5C120.358 441.584 117.712 434.964 115 428.5C111.511 420.182 107.326 412.12 102.5 404.5C99.2539 399.375 95.4876 394.572 91.5001 390C86.0778 383.783 80.7928 377.181 74.0001 372.5C69.6387 369.494 64.4179 367.967 59.5001 366C54.7914 364.116 45.1548 360.932 45.1548 360.932" stroke="#5555AA" stroke-width="2" stroke-linecap="round" stroke-linejoin="round"/>
<path d="M257.094 344.906C257.094 344.906 243.242 334.793 237.5 328.5C232.171 322.66 224 309 224 309C224 309 238.793 296.761 245 289.5C252.179 281.102 258.32 271.758 263.5 262C267.882 253.744 271.505 245.008 274 236C275.712 229.821 276.17 223.358 277 217C277.629 212.182 278.5 202.5 278.5 202.5L330.5 252.5V278" fill="#FFFF58"/>
<path d="M257.094 344.906C257.094 344.906 243.242 334.793 237.5 328.5C232.171 322.66 224 309 224 309C224 309 238.793 296.761 245 289.5C252.179 281.102 258.32 271.758 263.5 262C267.882 253.744 271.505 245.008 274 236C275.712 229.821 276.17 223.358 277 217C277.629 212.182 278.5 202.5 278.5 202.5L330.5 252.5V278" stroke="black" stroke-width="2" stroke-linecap="round" stroke-linejoin="round"/>
<path d="M323.5 274.5L255.5 337C255.5 337 246.694 329.398 242.921 325C239.348 320.835 233.5 311.5 233.5 311.5C233.5 311.5 245.316 299.922 250.5 293.5C256.975 285.478 262.948 276.986 268 268C271.583 261.627 274.581 254.899 277 248C278.993 242.316 280.552 236.448 281.5 230.5C282.315 225.387 282.5 215 282.5 215L323 255.5L323.5 274.5Z" fill="black" stroke="black" stroke-width="2" stroke-linecap="round" stroke-linejoin="round"/>
<path d="M269.203 318.521C269.263 320.148 268.053 323.269 268.053 323.269C268.053 323.269 265.187 321.776 263.975 320.729C262.715 319.64 260.747 316.915 260.747 316.915C260.747 316.915 259.453 319.831 258.507 321.098C257.442 322.526 254.711 324.857 254.711 324.857C254.711 324.857 253.259 321.689 253.084 319.986C252.878 317.982 253.794 313.983 253.794 313.983C253.794 313.983 250.401 315.628 248.569 315.964C246.833 316.281 243.274 315.962 243.274 315.962C243.274 315.962 245.036 312.331 246.308 310.789C247.605 309.216 250.898 306.749 250.898 306.749C250.898 306.749 248.542 305.922 247.615 305.127C246.543 304.21 245.18 301.666 245.18 301.666C245.18 301.666 247.773 300.118 249.222 299.792C250.49 299.507 253.122 299.76 253.122 299.76C253.122 299.76 252.285 296.964 252.273 295.524C252.259 293.946 253.122 290.864 253.122 290.864C253.122 290.864 255.582 292.033 256.565 292.945C257.657 293.957 259.158 296.583 259.158 296.583C259.158 296.583 260.296 292.621 261.379 290.899C262.62 288.925 266.147 285.781 266.147 285.781C266.147 285.781 266.855 290.619 266.838 293.054C266.824 295.065 266.184 299.052 266.184 299.052C266.184 299.052 269.263 297.415 270.93 296.951C272.673 296.465 276.313 296.265 276.313 296.265C276.313 296.265 275.372 300.126 274.323 301.773C273.14 303.629 269.642 306.431 269.642 306.431C269.642 306.431 272.591 307.151 273.948 307.805C275.606 308.605 278.537 310.879 278.537 310.879C278.537 310.879 275.269 313.414 273.313 313.83C271.416 314.233 267.522 313.277 267.522 313.277C268.926 314.457 269.137 316.686 269.203 318.521Z" fill="#FFFF58"/>
<path d="M261.469 313.781C263.036 313.656 264.54 312.632 265.563 311.437C266.586 310.243 267.307 308.603 267.25 307.031C267.184 305.215 266.216 303.385 264.938 302.094C263.669 300.812 261.866 299.741 260.063 299.75C258.344 299.759 256.618 300.782 255.438 302.031C254.248 303.29 253.316 305.083 253.406 306.812C253.504 308.703 254.724 310.543 256.156 311.781C257.588 313.018 259.583 313.932 261.469 313.781ZM261.313 311.781C259.928 311.894 258.487 311.16 257.438 310.25C256.405 309.354 255.473 308.053 255.406 306.687C255.348 305.491 256.051 304.276 256.875 303.406C257.705 302.53 258.887 301.75 260.094 301.75C261.37 301.75 262.607 302.588 263.5 303.5C264.432 304.452 265.2 305.762 265.25 307.094C265.291 308.192 264.744 309.32 264.031 310.156C263.347 310.96 262.365 311.696 261.313 311.781Z" fill="black"/>
<path d="M303.317 272.121V280.699C303.317 280.699 297.014 281.4 295.057 283.558C293.228 285.575 293.151 291.5 293.151 291.5H281.079L303.317 272.121Z" fill="#FFFF58"/>
<path d="M288.596 278.233C289.87 276.944 289.315 274.037 287.961 272.833C286.615 271.636 283.833 271.56 282.56 272.833C281.437 273.956 281.497 276.417 282.56 277.598C283.913 279.101 287.174 279.673 288.596 278.233Z" fill="#FFFF58"/>
<path d="M269.642 280.699L286.479 259.731L277.266 261.638C277.266 261.638 277.508 266.989 275.996 268.944C274.43 270.969 269.007 272.121 269.007 272.121L269.642 280.699Z" fill="#FFFF58"/>
<path d="M318.883 254.649C315.507 253.95 312.006 253.878 309.353 249.566C308.963 256.8 305.099 260.561 301.411 264.497C299.343 259.308 298.242 254.119 301.411 248.93C295.674 253.944 290.871 251.495 285.844 250.836C288.201 246.23 291.237 242.077 296.963 239.717C293.037 236.492 291.543 232.049 290.609 227.328C292.515 227.773 294.422 228.023 296.328 229.551L316.342 249.566C317.463 251.26 318.117 252.954 318.883 254.649Z" fill="#FFFF58"/>
<path d="M305.062 248C306.394 248.398 307.922 247.855 309.156 247.219C310.361 246.597 311.489 245.598 312.094 244.406L310.494 243.319C310.148 244.001 309.139 244.961 308.219 245.437C307.359 245.883 306.3 246.316 305.375 246.031C303.84 245.558 302.632 244.052 302.031 242.562C301.454 241.133 301.867 239.47 302.031 237.937C302.141 236.91 302.688 234.906 302.688 234.906L300.776 233.494C300.776 233.494 300.17 236.232 300.062 237.625C299.918 239.495 299.41 241.529 300.156 243.25C301.062 245.338 302.881 247.348 305.062 248Z" fill="black"/>
<path d="M223.26 308.02C223.26 308.02 215.476 293.006 213.411 284.882C211.811 278.584 211.382 271.972 211.558 265.477C211.798 256.677 212.9 247.776 215.494 239.364C218.104 230.901 222.093 222.784 227.019 215.423C231.886 208.151 244.545 195.877 244.545 195.877" stroke="black" stroke-width="2" stroke-linecap="round" stroke-linejoin="round"/>
<path d="M226.754 305.161C226.754 305.161 220.678 292.765 219.13 286.099C217.232 277.927 216.789 269.381 217.224 261.002C217.604 253.682 218.94 246.353 221.151 239.364C223.37 232.35 226.513 225.568 230.416 219.333C234.542 212.743 239.555 206.644 245.18 201.277C248.138 198.456 255.028 193.971 255.028 193.971" stroke="black" stroke-width="2" stroke-linecap="round" stroke-linejoin="round"/>
<path d="M230.566 301.666C230.566 301.666 225.859 290.21 224.53 284.193C223.061 277.538 222.196 270.664 222.448 263.853C222.737 256.045 224.24 248.239 226.551 240.776C228.729 233.745 231.608 226.808 235.649 220.656C239.971 214.078 245.651 208.413 251.534 203.183C256.3 198.947 267.1 192.064 267.1 192.064" stroke="black" stroke-width="2" stroke-linecap="round" stroke-linejoin="round"/>
<path d="M234.326 299.275C234.326 299.275 230.719 290.201 229.613 285.464C228.326 279.946 227.541 274.274 227.416 268.609C227.268 261.874 227.579 255.024 229.146 248.471C230.887 241.19 233.747 234.091 237.556 227.645C241.308 221.295 246.118 215.498 251.534 210.49C257.68 204.806 272.183 196.194 272.183 196.194" stroke="black" stroke-width="2" stroke-linecap="round" stroke-linejoin="round"/>
<path d="M189.212 409.399L204.702 395.138L234.604 367.521L269.65 334.38L299.552 305.62L330.5 277.242" fill="black"/>
<path d="M189.212 409.399L204.702 395.138L234.604 367.521L269.65 334.38L299.552 305.62L330.5 277.242" stroke="#5555AA" stroke-width="2" stroke-linecap="round" stroke-linejoin="round"/>
<path d="M218.372 334.254L201.047 329.658L208.072 308.276L225.366 312.519L218.372 334.254Z" fill="#FF5555"/>
<path d="M179.727 340.649C181.94 339.973 184.154 339.296 186.367 338.62C185.076 337.452 183.785 336.284 182.494 335.115C184.277 334.316 186.06 333.517 187.843 332.717C186.675 331.426 185.506 330.135 184.338 328.844C186.49 327.983 188.642 327.122 190.794 326.261C189.688 324.847 188.581 323.433 187.474 322.018C189.626 321.342 191.778 320.666 193.93 319.989C192.578 318.514 191.225 317.038 189.872 315.562C191.84 314.886 193.807 314.21 195.775 313.533C194.914 311.996 194.053 310.459 193.192 308.922C194.668 307.815 196.339 306.708 197.814 305.601C190.682 304.433 183.354 303.265 176.222 302.096C177.083 303.695 177.943 305.294 178.804 306.893C177.39 307.63 175.976 308.368 174.562 309.106C175.361 310.951 176.16 312.795 176.96 314.64C174.869 315.439 172.779 316.239 170.688 317.038C171.61 319.006 172.533 320.973 173.455 322.941C171.487 323.31 169.52 323.679 167.552 324.048C168.843 325.708 170.135 327.368 171.426 329.028C169.458 329.52 167.491 330.012 165.523 330.504C166.568 331.918 167.614 333.332 168.659 334.746C166.691 335.546 164.724 336.345 162.756 337.144C164.393 337.934 166.001 338.824 167.656 339.552C171.679 339.918 175.703 340.283 179.727 340.649Z" fill="#FFFF55"/>
<path d="M178.077 340.463C180.448 334.899 183.411 329.031 185.774 323.186C188.331 316.859 190.639 309.776 192.779 303.949" stroke="black" stroke-width="2" stroke-linecap="round" stroke-linejoin="round"/>
<path d="M168.884 339.384C171.682 333.326 174.278 327.239 176.588 321.013C178.742 315.205 180.638 309.292 182.317 303.333" stroke="black" stroke-width="2" stroke-linecap="round" stroke-linejoin="round"/>
<path d="M174.425 339.634C175.179 339.531 175.965 338.532 175.776 337.795C175.586 337.061 174.419 336.569 173.711 336.841C173.145 337.059 172.846 337.928 172.997 338.515C173.147 339.101 173.826 339.717 174.425 339.634Z" fill="black"/>
<path d="M177.082 333.252C177.838 333.148 178.633 332.153 178.446 331.413C178.257 330.668 177.072 330.161 176.355 330.439C175.783 330.661 175.489 331.546 175.645 332.14C175.8 332.725 176.482 333.335 177.082 333.252Z" fill="black"/>
<path d="M180.033 326.702C180.801 326.579 181.594 325.528 181.364 324.784C181.135 324.044 179.896 323.631 179.193 323.956C178.657 324.204 178.432 325.061 178.603 325.627C178.775 326.198 179.444 326.797 180.033 326.702Z" fill="black"/>
<path d="M182.32 320.195C183.078 320.098 183.875 319.102 183.695 318.36C183.513 317.615 182.344 317.094 181.625 317.359C181.049 317.572 180.737 318.451 180.884 319.047C181.031 319.642 181.712 320.273 182.32 320.195Z" fill="black"/>
<path d="M184.631 313.76C185.417 313.62 186.251 312.535 185.983 311.783C185.713 311.027 184.369 310.709 183.67 311.105C183.172 311.387 183.043 312.228 183.238 312.765C183.433 313.302 184.07 313.859 184.631 313.76Z" fill="black"/>
<path d="M187.017 307.312C187.786 307.191 188.587 306.146 188.36 305.401C188.133 304.659 186.888 304.244 186.183 304.571C185.648 304.82 185.429 305.678 185.6 306.242C185.772 306.809 186.432 307.404 187.017 307.312Z" fill="black"/>
<path d="M155.092 324.084L136.295 323.821C140.801 316.578 144.45 308.827 146.96 300.058L164.036 301.178L155.092 324.084Z" fill="#FF5555"/>
<path d="M148.074 254.2C148.074 254.2 149.861 263.374 150.215 268.023C150.492 271.662 150.197 278.972 150.197 278.972C150.197 278.972 160.987 279.625 166.371 280.1C171.637 280.565 176.897 281.111 182.141 281.786C186.901 282.398 191.642 283.158 196.38 283.927C201.935 284.828 213.013 286.824 213.013 286.824C213.013 286.824 211.247 278.741 210.863 274.633C210.46 270.317 210.713 261.631 210.713 261.631C210.713 261.631 199.968 261.331 194.611 260.924C189.701 260.55 184.806 259.98 179.924 259.331C174.341 258.589 168.794 257.601 163.234 256.704C158.177 255.888 148.074 254.2 148.074 254.2H148.074Z" fill="#FF5555"/>
<path d="M266.126 191.174L280.999 184.948L330.5 234.5V251.5L266.126 191.174Z" fill="black"/>
<path d="M280.999 184.948L300.021 175.61L314.894 179.76L330.5 201.55V234.753L280.999 184.948Z" fill="#5555AA"/>
<path d="M94.8738 349.781L80.0015 356.007L30.5 306.455V289.455L94.8738 349.781Z" fill="black"/>
<path d="M80.0015 356.007L60.9788 365.345L46.1065 361.195L30.5 339.405V306.202L80.0015 356.007Z" fill="#5555AA"/>
<path d="M90.5 45.5C90.5 45.5 96.5 60.5 103.5 70.5C110.5 80.5 120.5 90.5 120.5 90.5C120.5 90.5 110.5 100.5 103.5 110.5C96.5 120.5 90.5 135.5 90.5 135.5C90.5 135.5 84.5 120.5 77.5 110.5C70.5 100.5 60.5 90.5 60.5 90.5C60.5 90.5 70.5 80.5 77.5 70.5C84.5 60.5 90.5 45.5 90.5 45.5Z" fill="#FF5555"/>
<path d="M30.5 90.5C30.5 90.5 33.5 98 37 103C40.5 108 45.5 113 45.5 113C45.5 113 40.5 118 37 123C33.5 128 30.5 135.5 30.5 135.5C30.5 135.5 27.5 128 24 123C20.5 118 15.5 113 15.5 113C15.5 113 20.5 108 24 103C27.5 98 30.5 90.5 30.5 90.5Z" fill="#FF5555"/>
<path d="M270.5 495.5C270.5 495.5 264.5 480.5 257.5 470.5C250.5 460.5 240.5 450.5 240.5 450.5C240.5 450.5 250.5 440.5 257.5 430.5C264.5 420.5 270.5 405.5 270.5 405.5C270.5 405.5 276.5 420.5 283.5 430.5C290.5 440.5 300.5 450.5 300.5 450.5C300.5 450.5 290.5 460.5 283.5 470.5C276.5 480.5 270.5 495.5 270.5 495.5Z" fill="#FF5555"/>
<path d="M330.5 450.5C330.5 450.5 327.5 443 324 438C320.5 433 315.5 428 315.5 428C315.5 428 320.5 423 324 418C327.5 413 330.5 405.5 330.5 405.5C330.5 405.5 333.5 413 337 418C340.5 423 345.5 428 345.5 428C345.5 428 340.5 433 337 438C333.5 443 330.5 450.5 330.5 450.5Z" fill="#FF5555"/>
</svg>
