<svg width="361" height="541" viewBox="0 0 361 541" fill="none" xmlns="http://www.w3.org/2000/svg">
<path d="M330.056 1H30.9444C14.4066 1 1 14.4066 1 30.9445V510.056C1 526.593 14.4066 540 30.9444 540H330.056C346.593 540 360 526.593 360 510.056V30.9445C360 14.4066 346.593 1 330.056 1Z" fill="white" stroke="black"/>
<path d="M30.5 30.4999C24.96 30.4999 20.5 34.9599 20.5 40.4999V45.4999H25.5V40.4999C25.5 37.7299 27.73 35.4999 30.5 35.4999C33.27 35.4999 35.5 37.7299 35.5 40.4999V45.4999C35.5 46.6274 35.1249 48.5653 34.5 49.3999C30.0367 58.5041 25.2218 66.5285 20.5 75.4999V80.4999H30.5H40.5V75.4999V70.4999H35.5V75.4999H30.5H26C30.4887 67.5844 34.2183 59.9281 38.5 51.8999C39.7501 50.2306 40.5 47.7551 40.5 45.4999V40.4999C40.5 34.9599 36.04 30.4999 30.5 30.4999Z" fill="#FF5555"/>
<path d="M330.5 510.5C336.04 510.5 340.5 506.04 340.5 500.5V495.5H335.5V500.5C335.5 503.27 333.27 505.5 330.5 505.5C327.73 505.5 325.5 503.27 325.5 500.5V495.5C325.5 494.373 325.875 492.435 326.5 491.6C330.963 482.496 335.778 474.471 340.5 465.5V460.5H330.5H320.5V465.5V470.5H325.5V465.5H330.5H335C330.511 473.416 326.782 481.072 322.5 489.1C321.25 490.769 320.5 493.245 320.5 495.5V500.5C320.5 506.04 324.96 510.5 330.5 510.5Z" fill="#FF5555"/>
<path d="M180.5 45.5C180.5 45.5 186.5 60.5 193.5 70.5C200.5 80.5 210.5 90.5 210.5 90.5C210.5 90.5 200.5 100.5 193.5 110.5C186.5 120.5 180.5 135.5 180.5 135.5C180.5 135.5 174.5 120.5 167.5 110.5C160.5 100.5 150.5 90.5 150.5 90.5C150.5 90.5 160.5 80.5 167.5 70.5C174.5 60.5 180.5 45.5 180.5 45.5Z" fill="#FF5555"/>
<path d="M180.5 405.5C180.5 405.5 186.5 420.5 193.5 430.5C200.5 440.5 210.5 450.5 210.5 450.5C210.5 450.5 200.5 460.5 193.5 470.5C186.5 480.5 180.5 495.5 180.5 495.5C180.5 495.5 174.5 480.5 167.5 470.5C160.5 460.5 150.5 450.5 150.5 450.5C150.5 450.5 160.5 440.5 167.5 430.5C174.5 420.5 180.5 405.5 180.5 405.5Z" fill="#FF5555"/>
<path d="M30.5 90.5C30.5 90.5 33.5 98 37 103C40.5 108 45.5 113 45.5 113C45.5 113 40.5 118 37 123C33.5 128 30.5 135.5 30.5 135.5C30.5 135.5 27.5 128 24 123C20.5 118 15.5 113 15.5 113C15.5 113 20.5 108 24 103C27.5 98 30.5 90.5 30.5 90.5Z" fill="#FF5555"/>
<path d="M330.5 405.5C330.5 405.5 333.5 413 337 418C340.5 423 345.5 428 345.5 428C345.5 428 340.5 433 337 438C333.5 443 330.5 450.5 330.5 450.5C330.5 450.5 327.5 443 324 438C320.5 433 315.5 428 315.5 428C315.5 428 320.5 423 324 418C327.5 413 330.5 405.5 330.5 405.5Z" fill="#FF5555"/>
</svg>
