<svg width="361" height="541" viewBox="0 0 361 541" fill="none" xmlns="http://www.w3.org/2000/svg">
<path d="M330.056 1H30.9444C14.4066 1 1 14.4066 1 30.9445V510.056C1 526.593 14.4066 540 30.9444 540H330.056C346.593 540 360 526.593 360 510.056V30.9445C360 14.4066 346.593 1 330.056 1Z" fill="white" stroke="black"/>
<path d="M30.5 30.5C24.96 30.5 20.5 34.96 20.5 40.5V45.5H25.5V40.5C25.5 37.73 27.73 35.5 30.5 35.5C33.27 35.5 35.5 37.73 35.5 40.5V45.5C35.5 48.27 33.27 50.5 30.5 50.5H25.5V55.5H30.5C33.27 55.5 35.5 57.73 35.5 60.5V70.5C35.5 73.27 33.27 75.5 30.5 75.5C27.73 75.5 25.5 73.27 25.5 70.5V65.5H20.5V70.5C20.5 76.04 24.96 80.5 30.5 80.5C36.04 80.5 40.5 76.04 40.5 70.5V60.5C40.5 57.4964 39.177 54.83 37.0938 53C39.177 51.17 40.5 48.5036 40.5 45.5V40.5C40.5 34.96 36.04 30.5 30.5 30.5Z" fill="black"/>
<path d="M330.5 510.5C336.04 510.5 340.5 506.04 340.5 500.5V495.5H335.5V500.5C335.5 503.27 333.27 505.5 330.5 505.5C327.73 505.5 325.5 503.27 325.5 500.5V495.5C325.5 492.73 327.73 490.5 330.5 490.5H335.5V485.5H330.5C327.73 485.5 325.5 483.27 325.5 480.5V470.5C325.5 467.73 327.73 465.5 330.5 465.5C333.27 465.5 335.5 467.73 335.5 470.5V475.5H340.5V470.5C340.5 464.96 336.04 460.5 330.5 460.5C324.96 460.5 320.5 464.96 320.5 470.5V480.5C320.5 483.504 321.823 486.17 323.906 488C321.823 489.83 320.5 492.496 320.5 495.5V500.5C320.5 506.04 324.96 510.5 330.5 510.5Z" fill="black"/>
<path d="M185.5 101.5C186.5 105.5 190.5 115.5 197.5 115.5C206.5 115.5 210.5 107.5 210.5 97.5C210.5 90.5 207.921 85.8877 205.5 80.5C202.922 74.7633 199.121 69.6426 195.5 64.5C190.855 57.9021 180.5 45.5 180.5 45.5C180.5 45.5 170.145 57.9021 165.5 64.5C161.879 69.6426 158.078 74.7633 155.5 80.5C153.079 85.8877 150.5 90.5 150.5 97.5C150.5 107.5 154.5 115.5 163.5 115.5C170.5 115.5 174.5 105.5 175.5 101.5C176.5 100.5 176.5 101.5 176.5 102.5C175.5 110.5 175.5 112.5 174.5 118.5C173.5 124.5 170.5 135.5 170.5 135.5C175.5 133.5 185.5 133.5 190.5 135.5C190.5 135.5 187.5 124.5 186.5 118.5C185.5 112.5 185.5 110.5 184.5 102.5C184.5 101.5 184.5 100.5 185.5 101.5Z" fill="black"/>
<path d="M185.5 281.5C186.5 285.5 190.5 295.5 197.5 295.5C206.5 295.5 210.5 287.5 210.5 277.5C210.5 270.5 207.921 265.888 205.5 260.5C202.922 254.763 199.121 249.643 195.5 244.5C190.855 237.902 180.5 225.5 180.5 225.5C180.5 225.5 170.145 237.902 165.5 244.5C161.879 249.643 158.078 254.763 155.5 260.5C153.079 265.888 150.5 270.5 150.5 277.5C150.5 287.5 154.5 295.5 163.5 295.5C170.5 295.5 174.5 285.5 175.5 281.5C176.5 280.5 176.5 281.5 176.5 282.5C175.5 290.5 175.5 292.5 174.5 298.5C173.5 304.5 170.5 315.5 170.5 315.5C175.5 313.5 185.5 313.5 190.5 315.5C190.5 315.5 187.5 304.5 186.5 298.5C185.5 292.5 185.5 290.5 184.5 282.5C184.5 281.5 184.5 280.5 185.5 281.5Z" fill="black"/>
<path d="M185.5 439.5C186.5 435.5 190.5 425.5 197.5 425.5C206.5 425.5 210.5 433.5 210.5 443.5C210.5 450.5 207.921 455.112 205.5 460.5C202.922 466.237 199.121 471.357 195.5 476.5C190.855 483.098 180.5 495.5 180.5 495.5C180.5 495.5 170.145 483.098 165.5 476.5C161.879 471.357 158.078 466.237 155.5 460.5C153.079 455.112 150.5 450.5 150.5 443.5C150.5 433.5 154.5 425.5 163.5 425.5C170.5 425.5 174.5 435.5 175.5 439.5C176.5 440.5 176.5 439.5 176.5 438.5C175.5 430.5 175.5 428.5 174.5 422.5C173.5 416.5 170.5 405.5 170.5 405.5C175.5 407.5 185.5 407.5 190.5 405.5C190.5 405.5 187.5 416.5 186.5 422.5C185.5 428.5 185.5 430.5 184.5 438.5C184.5 439.5 184.5 440.5 185.5 439.5Z" fill="black"/>
<path d="M33 118.5C33.5 120.5 35.5 125.5 39 125.5C43.5 125.5 45.5 121.5 45.5 116.5C45.5 113 44.2105 110.694 43 108C41.7111 105.132 39.8103 102.571 38 100C35.6773 96.701 30.5 90.5 30.5 90.5C30.5 90.5 25.3226 96.701 23 100C21.1897 102.571 19.2889 105.132 18 108C16.7895 110.694 15.5 113 15.5 116.5C15.5 121.5 17.5 125.5 22 125.5C25.5 125.5 27.5 120.5 28 118.5C28.5 118 28.5 118.5 28.5 119C28 123 28 124 27.5 127C27 130 25.5 135.5 25.5 135.5C28 134.5 33 134.5 35.5 135.5C35.5 135.5 34 130 33.5 127C33 124 33 123 32.5 119C32.5 118.5 32.5 118 33 118.5Z" fill="black"/>
<path d="M333 422.5C333.5 420.5 335.5 415.5 339 415.5C343.5 415.5 345.5 419.5 345.5 424.5C345.5 428 344.211 430.306 343 433C341.711 435.868 339.81 438.429 338 441C335.677 444.299 330.5 450.5 330.5 450.5C330.5 450.5 325.323 444.299 323 441C321.19 438.429 319.289 435.868 318 433C316.789 430.306 315.5 428 315.5 424.5C315.5 419.5 317.5 415.5 322 415.5C325.5 415.5 327.5 420.5 328 422.5C328.5 423 328.5 422.5 328.5 422C328 418 328 417 327.5 414C327 411 325.5 405.5 325.5 405.5C328 406.5 333 406.5 335.5 405.5C335.5 405.5 334 411 333.5 414C333 417 333 418 332.5 422C332.5 422.5 332.5 423 333 422.5Z" fill="black"/>
</svg>
