<svg width="361" height="541" viewBox="0 0 361 541" fill="none" xmlns="http://www.w3.org/2000/svg">
<path d="M330.056 1H30.9444C14.4066 1 1 14.4066 1 30.9445V510.056C1 526.593 14.4066 540 30.9444 540H330.056C346.593 540 360 526.593 360 510.056V30.9445C360 14.4066 346.593 1 330.056 1Z" fill="white" stroke="black"/>
<path d="M30.5 30.4999C24.96 30.4999 20.5 34.9599 20.5 40.4999V45.4999H25.5V40.4999C25.5 37.7299 27.73 35.4999 30.5 35.4999C33.27 35.4999 35.5 37.7299 35.5 40.4999V45.4999C35.5 48.2699 33.27 50.4999 30.5 50.4999H25.5V55.4999H30.5C33.27 55.4999 35.5 57.7299 35.5 60.4999V70.4999C35.5 73.2699 33.27 75.4999 30.5 75.4999C27.73 75.4999 25.5 73.2699 25.5 70.4999V65.4999H20.5V70.4999C20.5 76.0399 24.96 80.4999 30.5 80.4999C36.04 80.4999 40.5 76.0399 40.5 70.4999V60.4999C40.5 57.4963 39.177 54.8299 37.0938 52.9999C39.177 51.1699 40.5 48.5035 40.5 45.4999V40.4999C40.5 34.9599 36.04 30.4999 30.5 30.4999Z" fill="#FF5555"/>
<path d="M330.5 510.5C336.04 510.5 340.5 506.04 340.5 500.5V495.5H335.5V500.5C335.5 503.27 333.27 505.5 330.5 505.5C327.73 505.5 325.5 503.27 325.5 500.5V495.5C325.5 492.73 327.73 490.5 330.5 490.5H335.5V485.5H330.5C327.73 485.5 325.5 483.27 325.5 480.5V470.5C325.5 467.73 327.73 465.5 330.5 465.5C333.27 465.5 335.5 467.73 335.5 470.5V475.5H340.5V470.5C340.5 464.96 336.04 460.5 330.5 460.5C324.96 460.5 320.5 464.96 320.5 470.5V480.5C320.5 483.504 321.823 486.17 323.906 488C321.823 489.83 320.5 492.496 320.5 495.5V500.5C320.5 506.04 324.96 510.5 330.5 510.5Z" fill="#FF5555"/>
<path d="M30.5 90.5C30.5 90.5 33.5 98 37 103C40.5 108 45.5 113 45.5 113C45.5 113 40.5 118 37 123C33.5 128 30.5 135.5 30.5 135.5C30.5 135.5 27.5 128 24 123C20.5 118 15.5 113 15.5 113C15.5 113 20.5 108 24 103C27.5 98 30.5 90.5 30.5 90.5Z" fill="#FF5555"/>
<path d="M330.5 405.5C330.5 405.5 333.5 413 337 418C340.5 423 345.5 428 345.5 428C345.5 428 340.5 433 337 438C333.5 443 330.5 450.5 330.5 450.5C330.5 450.5 327.5 443 324 438C320.5 433 315.5 428 315.5 428C315.5 428 320.5 423 324 418C327.5 413 330.5 405.5 330.5 405.5Z" fill="#FF5555"/>
<path d="M180.5 45.5C180.5 45.5 186.5 60.5 193.5 70.5C200.5 80.5 210.5 90.5 210.5 90.5C210.5 90.5 200.5 100.5 193.5 110.5C186.5 120.5 180.5 135.5 180.5 135.5C180.5 135.5 174.5 120.5 167.5 110.5C160.5 100.5 150.5 90.5 150.5 90.5C150.5 90.5 160.5 80.5 167.5 70.5C174.5 60.5 180.5 45.5 180.5 45.5Z" fill="#FF5555"/>
<path d="M180.5 225.5C180.5 225.5 186.5 240.5 193.5 250.5C200.5 260.5 210.5 270.5 210.5 270.5C210.5 270.5 200.5 280.5 193.5 290.5C186.5 300.5 180.5 315.5 180.5 315.5C180.5 315.5 174.5 300.5 167.5 290.5C160.5 280.5 150.5 270.5 150.5 270.5C150.5 270.5 160.5 260.5 167.5 250.5C174.5 240.5 180.5 225.5 180.5 225.5Z" fill="#FF5555"/>
<path d="M180.5 405.5C180.5 405.5 186.5 420.5 193.5 430.5C200.5 440.5 210.5 450.5 210.5 450.5C210.5 450.5 200.5 460.5 193.5 470.5C186.5 480.5 180.5 495.5 180.5 495.5C180.5 495.5 174.5 480.5 167.5 470.5C160.5 460.5 150.5 450.5 150.5 450.5C150.5 450.5 160.5 440.5 167.5 430.5C174.5 420.5 180.5 405.5 180.5 405.5Z" fill="#FF5555"/>
</svg>
