<svg width="361" height="541" viewBox="0 0 361 541" fill="none" xmlns="http://www.w3.org/2000/svg">
<path d="M330.056 1.00391H30.9444C14.4066 1.00391 1 14.4105 1 30.9484V510.059C1 526.597 14.4066 540.004 30.9444 540.004H330.056C346.593 540.004 360 526.597 360 510.059V30.9484C360 14.4105 346.593 1.00391 330.056 1.00391Z" fill="white" stroke="black"/>
<path d="M30.5 30.5038C24.96 30.5038 20.5 34.9638 20.5 40.5038V45.5038H25.5V40.5038C25.5 37.7338 27.73 35.5038 30.5 35.5038C33.27 35.5038 35.5 37.7338 35.5 40.5038V45.5038C35.5 48.2738 33.27 50.5038 30.5 50.5038H25.5V55.5038H30.5C33.27 55.5038 35.5 57.7338 35.5 60.5038V70.5038C35.5 73.2738 33.27 75.5038 30.5 75.5038C27.73 75.5038 25.5 73.2738 25.5 70.5038V65.5038H20.5V70.5038C20.5 76.0438 24.96 80.5038 30.5 80.5038C36.04 80.5038 40.5 76.0438 40.5 70.5038V60.5038C40.5 57.5002 39.177 54.8338 37.0938 53.0038C39.177 51.1738 40.5 48.5074 40.5 45.5038V40.5038C40.5 34.9638 36.04 30.5038 30.5 30.5038Z" fill="black"/>
<path d="M330.5 510.504C336.04 510.504 340.5 506.044 340.5 500.504V495.504H335.5V500.504C335.5 503.274 333.27 505.504 330.5 505.504C327.73 505.504 325.5 503.274 325.5 500.504V495.504C325.5 492.734 327.73 490.504 330.5 490.504H335.5V485.504H330.5C327.73 485.504 325.5 483.274 325.5 480.504V470.504C325.5 467.734 327.73 465.504 330.5 465.504C333.27 465.504 335.5 467.734 335.5 470.504V475.504H340.5V470.504C340.5 464.964 336.04 460.504 330.5 460.504C324.96 460.504 320.5 464.964 320.5 470.504V480.504C320.5 483.508 321.823 486.174 323.906 488.004C321.823 489.834 320.5 492.5 320.5 495.504V500.504C320.5 506.044 324.96 510.504 330.5 510.504Z" fill="black"/>
<path d="M185.5 101.504C187.5 105.504 192.5 111.504 197.5 111.504C206.5 111.504 210.5 103.504 210.5 93.5039C210.5 83.5039 206.5 74.5039 197.5 74.5039C192.5 74.5039 189.5 79.5039 186.5 82.5039C185.5 83.5039 184.5 82.5039 185.5 81.5039C188.5 78.5039 193.5 70.5039 193.5 63.5039C193.5 55.5039 188.5 45.5039 180.5 45.5039C172.5 45.5039 167.5 55.5039 167.5 63.5039C167.5 70.5039 172.5 78.5039 175.5 81.5039C176.5 82.5039 175.5 83.5039 174.5 82.5039C171.5 79.5039 168.5 74.5039 163.5 74.5039C154.5 74.5039 150.5 83.5039 150.5 93.5039C150.5 103.504 154.5 111.504 163.5 111.504C168.5 111.504 173.5 105.504 175.5 101.504C176.5 100.504 176.5 101.504 176.5 102.504C175.5 110.504 175.5 112.504 174.5 118.504C173.5 124.504 170.5 135.504 170.5 135.504C175.5 133.504 185.5 133.504 190.5 135.504C190.5 135.504 187.5 124.504 186.5 118.504C185.5 112.504 185.5 110.504 184.5 102.504C184.5 101.504 184.5 100.504 185.5 101.504Z" fill="black"/>
<path d="M185.5 281.504C187.5 285.504 192.5 291.504 197.5 291.504C206.5 291.504 210.5 283.504 210.5 273.504C210.5 263.504 206.5 254.504 197.5 254.504C192.5 254.504 189.5 259.504 186.5 262.504C185.5 263.504 184.5 262.504 185.5 261.504C188.5 258.504 193.5 250.504 193.5 243.504C193.5 235.504 188.5 225.504 180.5 225.504C172.5 225.504 167.5 235.504 167.5 243.504C167.5 250.504 172.5 258.504 175.5 261.504C176.5 262.504 175.5 263.504 174.5 262.504C171.5 259.504 168.5 254.504 163.5 254.504C154.5 254.504 150.5 263.504 150.5 273.504C150.5 283.504 154.5 291.504 163.5 291.504C168.5 291.504 173.5 285.504 175.5 281.504C176.5 280.504 176.5 281.504 176.5 282.504C175.5 290.504 175.5 292.504 174.5 298.504C173.5 304.504 170.5 315.504 170.5 315.504C175.5 313.504 185.5 313.504 190.5 315.504C190.5 315.504 187.5 304.504 186.5 298.504C185.5 292.504 185.5 290.504 184.5 282.504C184.5 281.504 184.5 280.504 185.5 281.504Z" fill="black"/>
<path d="M185.5 439.504C187.5 435.504 192.5 429.504 197.5 429.504C206.5 429.504 210.5 437.504 210.5 447.504C210.5 457.504 206.5 466.504 197.5 466.504C192.5 466.504 189.5 461.504 186.5 458.504C185.5 457.504 184.5 458.504 185.5 459.504C188.5 462.504 193.5 470.504 193.5 477.504C193.5 485.504 188.5 495.504 180.5 495.504C172.5 495.504 167.5 485.504 167.5 477.504C167.5 470.504 172.5 462.504 175.5 459.504C176.5 458.504 175.5 457.504 174.5 458.504C171.5 461.504 168.5 466.504 163.5 466.504C154.5 466.504 150.5 457.504 150.5 447.504C150.5 437.504 154.5 429.504 163.5 429.504C168.5 429.504 173.5 435.504 175.5 439.504C176.5 440.504 176.5 439.504 176.5 438.504C175.5 430.504 175.5 428.504 174.5 422.504C173.5 416.504 170.5 405.504 170.5 405.504C175.5 407.504 185.5 407.504 190.5 405.504C190.5 405.504 187.5 416.504 186.5 422.504C185.5 428.504 185.5 430.504 184.5 438.504C184.5 439.504 184.5 440.504 185.5 439.504Z" fill="black"/>
<path d="M33 118.504C34 120.504 36.5 123.504 39 123.504C43.5 123.504 45.5 119.504 45.5 114.504C45.5 109.504 43.5 105.004 39 105.004C36.5 105.004 35 107.504 33.5 109.004C33 109.504 32.5 109.004 33 108.504C34.5 107.004 37 103.004 37 99.5039C37 95.5039 34.5 90.5039 30.5 90.5039C26.5 90.5039 24 95.5039 24 99.5039C24 103.004 26.5 107.004 28 108.504C28.5 109.004 28 109.504 27.5 109.004C26 107.504 24.5 105.004 22 105.004C17.5 105.004 15.5 109.504 15.5 114.504C15.5 119.504 17.5 123.504 22 123.504C24.5 123.504 27 120.504 28 118.504C28.5 118.004 28.5 118.504 28.5 119.004C28 123.004 28 124.004 27.5 127.004C27 130.004 25.5 135.504 25.5 135.504C28 134.504 33 134.504 35.5 135.504C35.5 135.504 34 130.004 33.5 127.004C33 124.004 33 123.004 32.5 119.004C32.5 118.504 32.5 118.004 33 118.504Z" fill="black"/>
<path d="M333 422.504C334 420.504 336.5 417.504 339 417.504C343.5 417.504 345.5 421.504 345.5 426.504C345.5 431.504 343.5 436.004 339 436.004C336.5 436.004 335 433.504 333.5 432.004C333 431.504 332.5 432.004 333 432.504C334.5 434.004 337 438.004 337 441.504C337 445.504 334.5 450.504 330.5 450.504C326.5 450.504 324 445.504 324 441.504C324 438.004 326.5 434.004 328 432.504C328.5 432.004 328 431.504 327.5 432.004C326 433.504 324.5 436.004 322 436.004C317.5 436.004 315.5 431.504 315.5 426.504C315.5 421.504 317.5 417.504 322 417.504C324.5 417.504 327 420.504 328 422.504C328.5 423.004 328.5 422.504 328.5 422.004C328 418.004 328 417.004 327.5 414.004C327 411.004 325.5 405.504 325.5 405.504C328 406.504 333 406.504 335.5 405.504C335.5 405.504 334 411.004 333.5 414.004C333 417.004 333 418.004 332.5 422.004C332.5 422.504 332.5 423.004 333 422.504Z" fill="black"/>
</svg>
