<svg width="361" height="541" viewBox="0 0 361 541" fill="none" xmlns="http://www.w3.org/2000/svg">
<path d="M330.056 1H30.9444C14.4066 1 1 14.4066 1 30.9445V510.056C1 526.593 14.4066 540 30.9444 540H330.056C346.593 540 360 526.593 360 510.056V30.9445C360 14.4066 346.593 1 330.056 1Z" fill="white" stroke="black"/>
<path d="M30.5 30.5C24.96 30.5 20.5 34.96 20.5 40.5V45.5H25.5V40.5C25.5 37.73 27.73 35.5 30.5 35.5C33.27 35.5 35.5 37.73 35.5 40.5V45.5C35.5 48.27 33.27 50.5 30.5 50.5H25.5V55.5H30.5C33.27 55.5 35.5 57.73 35.5 60.5V70.5C35.5 73.27 33.27 75.5 30.5 75.5C27.73 75.5 25.5 73.27 25.5 70.5V65.5H20.5V70.5C20.5 76.04 24.96 80.5 30.5 80.5C36.04 80.5 40.5 76.04 40.5 70.5V60.5C40.5 57.4964 39.177 54.83 37.0938 53C39.177 51.17 40.5 48.5036 40.5 45.5V40.5C40.5 34.96 36.04 30.5 30.5 30.5Z" fill="#FF5555"/>
<path d="M330.5 510.5C336.04 510.5 340.5 506.04 340.5 500.5V495.5H335.5V500.5C335.5 503.27 333.27 505.5 330.5 505.5C327.73 505.5 325.5 503.27 325.5 500.5V495.5C325.5 492.73 327.73 490.5 330.5 490.5H335.5V485.5H330.5C327.73 485.5 325.5 483.27 325.5 480.5V470.5C325.5 467.73 327.73 465.5 330.5 465.5C333.27 465.5 335.5 467.73 335.5 470.5V475.5H340.5V470.5C340.5 464.96 336.04 460.5 330.5 460.5C324.96 460.5 320.5 464.96 320.5 470.5V480.5C320.5 483.504 321.823 486.17 323.906 488C321.823 489.83 320.5 492.496 320.5 495.5V500.5C320.5 506.04 324.96 510.5 330.5 510.5Z" fill="#FF5555"/>
<path d="M179.5 63.5C179.5 52.4543 173.784 45.5 165.5 45.5C157.216 45.5 150.5 54.4543 150.5 65.5C150.535 66.4556 150.518 67.3912 150.5 68.3125C150.5 75.611 153.177 82.6893 155.5 89.3125C157.889 96.1235 161.334 102.093 164.562 108.188C169.564 117.627 180.5 135.5 180.5 135.5C180.5 135.5 191.436 117.627 196.438 108.188C199.666 102.093 203.111 96.1235 205.5 89.3125C207.823 82.6893 210.5 75.611 210.5 68.3125C210.472 67.3381 210.481 66.3979 210.5 65.5C210.5 54.4543 203.784 45.5 195.5 45.5C187.216 45.5 181.5 52.4543 181.5 63.5C181.5 65.5 179.5 65.5 179.5 63.5Z" fill="#FF5555"/>
<path d="M179.5 243.5C179.5 232.454 173.784 225.5 165.5 225.5C157.216 225.5 150.5 234.454 150.5 245.5C150.535 246.456 150.518 247.391 150.5 248.312C150.5 255.611 153.177 262.689 155.5 269.312C157.889 276.123 161.334 282.093 164.562 288.188C169.564 297.627 180.5 315.5 180.5 315.5C180.5 315.5 191.436 297.627 196.438 288.188C199.666 282.093 203.111 276.123 205.5 269.312C207.823 262.689 210.5 255.611 210.5 248.312C210.472 247.338 210.481 246.398 210.5 245.5C210.5 234.454 203.784 225.5 195.5 225.5C187.216 225.5 181.5 232.454 181.5 243.5C181.5 245.5 179.5 245.5 179.5 243.5Z" fill="#FF5555"/>
<path d="M179.5 477.5C179.5 488.546 173.784 495.5 165.5 495.5C157.216 495.5 150.5 486.546 150.5 475.5C150.535 474.544 150.518 473.609 150.5 472.688C150.5 465.389 153.177 458.311 155.5 451.688C157.889 444.877 161.334 438.907 164.562 432.812C169.564 423.373 180.5 405.5 180.5 405.5C180.5 405.5 191.436 423.373 196.438 432.812C199.666 438.907 203.111 444.877 205.5 451.688C207.823 458.311 210.5 465.389 210.5 472.688C210.472 473.662 210.481 474.602 210.5 475.5C210.5 486.546 203.784 495.5 195.5 495.5C187.216 495.5 181.5 488.546 181.5 477.5C181.5 475.5 179.5 475.5 179.5 477.5Z" fill="#FF5555"/>
<path d="M30 99.5C30 93.9771 27.1421 90.5 23 90.5C18.8579 90.5 15.5 94.9771 15.5 100.5C15.5174 100.978 15.5091 101.446 15.5 101.906C15.5 105.555 16.8384 109.095 18 112.406C19.1945 115.812 20.9168 118.797 22.5312 121.844C25.0319 126.563 30.5 135.5 30.5 135.5C30.5 135.5 35.9681 126.563 38.4688 121.844C40.0832 118.797 41.8055 115.812 43 112.406C44.1616 109.095 45.5 105.555 45.5 101.906C45.4858 101.419 45.4907 100.949 45.5 100.5C45.5 94.9771 42.1421 90.5 38 90.5C33.8579 90.5 31 93.9771 31 99.5C31 100.5 30 100.5 30 99.5Z" fill="#FF5555"/>
<path d="M330 441.5C330 447.023 327.142 450.5 323 450.5C318.858 450.5 315.5 446.023 315.5 440.5C315.517 440.022 315.509 439.554 315.5 439.094C315.5 435.445 316.838 431.905 318 428.594C319.195 425.188 320.917 422.203 322.531 419.156C325.032 414.437 330.5 405.5 330.5 405.5C330.5 405.5 335.968 414.437 338.469 419.156C340.083 422.203 341.805 425.188 343 428.594C344.162 431.905 345.5 435.445 345.5 439.094C345.486 439.581 345.491 440.051 345.5 440.5C345.5 446.023 342.142 450.5 338 450.5C333.858 450.5 331 447.023 331 441.5C331 440.5 330 440.5 330 441.5Z" fill="#FF5555"/>
</svg>
