<svg width="361" height="541" viewBox="0 0 361 541" fill="none" xmlns="http://www.w3.org/2000/svg">
<path d="M330.056 1H30.9444C14.4066 1 1 14.4066 1 30.9445V510.056C1 526.593 14.4066 540 30.9444 540H330.056C346.593 540 360 526.593 360 510.056V30.9445C360 14.4066 346.593 1 330.056 1Z" fill="white" stroke="black"/>
<path d="M30.5 30.5L20.5 65.5V70.5H32.5V80.5H37.5V70.5H40.5V65.5H37.5V50.5001H32.5V65.5H25.7L35.7 30.5H30.5Z" fill="#FF5555"/>
<path d="M330.5 510.5L340.5 475.5V470.5H328.5V460.5H323.5V470.5H320.5V475.5H323.5V490.5H328.5V475.5H335.3L325.3 510.5H330.5Z" fill="#FF5555"/>
<path d="M30 99.5C30 93.9771 27.1421 90.5 23 90.5C18.8579 90.5 15.5 94.9771 15.5 100.5C15.5174 100.978 15.5091 101.446 15.5 101.906C15.5 105.555 16.8384 109.095 18 112.406C19.1945 115.812 20.9168 118.797 22.5312 121.844C25.0319 126.563 30.5 135.5 30.5 135.5C30.5 135.5 35.9681 126.563 38.4688 121.844C40.0832 118.797 41.8055 115.812 43 112.406C44.1616 109.095 45.5 105.555 45.5 101.906C45.4858 101.419 45.4907 100.949 45.5 100.5C45.5 94.9771 42.1421 90.5 38 90.5C33.8579 90.5 31 93.9771 31 99.5C31 100.5 30 100.5 30 99.5Z" fill="#FF5555"/>
<path d="M330 441.5C330 447.023 327.142 450.5 323 450.5C318.858 450.5 315.5 446.023 315.5 440.5C315.517 440.022 315.509 439.554 315.5 439.094C315.5 435.445 316.838 431.905 318 428.594C319.195 425.188 320.917 422.203 322.531 419.156C325.032 414.437 330.5 405.5 330.5 405.5C330.5 405.5 335.968 414.437 338.469 419.156C340.083 422.203 341.805 425.188 343 428.594C344.162 431.905 345.5 435.445 345.5 439.094C345.486 439.581 345.491 440.051 345.5 440.5C345.5 446.023 342.142 450.5 338 450.5C333.858 450.5 331 447.023 331 441.5C331 440.5 330 440.5 330 441.5Z" fill="#FF5555"/>
<path d="M89.5 63.5C89.5 52.4543 83.7843 45.5 75.5 45.5C67.2157 45.5 60.5 54.4543 60.5 65.5C60.5349 66.4556 60.5182 67.3912 60.5 68.3125C60.5 75.611 63.1769 82.6893 65.5 89.3125C67.889 96.1235 71.3336 102.093 74.5625 108.188C79.5637 117.627 90.5 135.5 90.5 135.5C90.5 135.5 101.436 117.627 106.438 108.188C109.666 102.093 113.111 96.1235 115.5 89.3125C117.823 82.6893 120.5 75.611 120.5 68.3125C120.472 67.3381 120.481 66.3979 120.5 65.5C120.5 54.4543 113.784 45.5 105.5 45.5C97.2157 45.5 91.5 52.4543 91.5 63.5C91.5 65.5 89.5 65.5 89.5 63.5Z" fill="#FF5555"/>
<path d="M269.5 63.5C269.5 52.4543 263.784 45.5 255.5 45.5C247.216 45.5 240.5 54.4543 240.5 65.5C240.535 66.4556 240.518 67.3912 240.5 68.3125C240.5 75.611 243.177 82.6893 245.5 89.3125C247.889 96.1235 251.334 102.093 254.562 108.188C259.564 117.627 270.5 135.5 270.5 135.5C270.5 135.5 281.436 117.627 286.438 108.188C289.666 102.093 293.111 96.1235 295.5 89.3125C297.823 82.6893 300.5 75.611 300.5 68.3125C300.472 67.3381 300.481 66.3979 300.5 65.5C300.5 54.4543 293.784 45.5 285.5 45.5C277.216 45.5 271.5 52.4543 271.5 63.5C271.5 65.5 269.5 65.5 269.5 63.5Z" fill="#FF5555"/>
<path d="M89.5 477.5C89.5 488.546 83.7843 495.5 75.5 495.5C67.2157 495.5 60.5 486.546 60.5 475.5C60.5349 474.544 60.5182 473.609 60.5 472.688C60.5 465.389 63.1769 458.311 65.5 451.688C67.889 444.877 71.3336 438.907 74.5625 432.812C79.5637 423.373 90.5 405.5 90.5 405.5C90.5 405.5 101.436 423.373 106.438 432.812C109.666 438.907 113.111 444.877 115.5 451.688C117.823 458.311 120.5 465.389 120.5 472.688C120.472 473.662 120.481 474.602 120.5 475.5C120.5 486.546 113.784 495.5 105.5 495.5C97.2157 495.5 91.5 488.546 91.5 477.5C91.5 475.5 89.5 475.5 89.5 477.5Z" fill="#FF5555"/>
<path d="M269.5 477.5C269.5 488.546 263.784 495.5 255.5 495.5C247.216 495.5 240.5 486.546 240.5 475.5C240.535 474.544 240.518 473.609 240.5 472.688C240.5 465.389 243.177 458.311 245.5 451.688C247.889 444.877 251.334 438.907 254.562 432.812C259.564 423.373 270.5 405.5 270.5 405.5C270.5 405.5 281.436 423.373 286.438 432.812C289.666 438.907 293.111 444.877 295.5 451.688C297.823 458.311 300.5 465.389 300.5 472.688C300.472 473.662 300.481 474.602 300.5 475.5C300.5 486.546 293.784 495.5 285.5 495.5C277.216 495.5 271.5 488.546 271.5 477.5C271.5 475.5 269.5 475.5 269.5 477.5Z" fill="#FF5555"/>
</svg>
