<svg width="361" height="541" viewBox="0 0 361 541" fill="none" xmlns="http://www.w3.org/2000/svg">
<path d="M330.056 1H30.9444C14.4066 1 1 14.4066 1 30.9445V510.056C1 526.593 14.4066 540 30.9444 540H330.056C346.593 540 360 526.593 360 510.056V30.9445C360 14.4066 346.593 1 330.056 1Z" fill="white" stroke="black"/>
<path d="M30.5 30.5L20.5 65.5V70.5H32.5V80.5H37.5V70.5H40.5V65.5H37.5V50.5001H32.5V65.5H25.7L35.7 30.5H30.5Z" fill="black"/>
<path d="M330.5 510.5L340.5 475.5V470.5H328.5V460.5H323.5V470.5H320.5V475.5H323.5V490.5H328.5V475.5H335.3L325.3 510.5H330.5Z" fill="black"/>
<path d="M33 118.5C33.5 120.5 35.5 125.5 39 125.5C43.5 125.5 45.5 121.5 45.5 116.5C45.5 113 44.2105 110.694 43 108C41.7111 105.132 39.8103 102.571 38 100C35.6773 96.701 30.5 90.5 30.5 90.5C30.5 90.5 25.3226 96.701 23 100C21.1897 102.571 19.2889 105.132 18 108C16.7895 110.694 15.5 113 15.5 116.5C15.5 121.5 17.5 125.5 22 125.5C25.5 125.5 27.5 120.5 28 118.5C28.5 118 28.5 118.5 28.5 119C28 123 28 124 27.5 127C27 130 25.5 135.5 25.5 135.5C28 134.5 33 134.5 35.5 135.5C35.5 135.5 34 130 33.5 127C33 124 33 123 32.5 119C32.5 118.5 32.5 118 33 118.5Z" fill="black"/>
<path d="M333 422.5C333.5 420.5 335.5 415.5 339 415.5C343.5 415.5 345.5 419.5 345.5 424.5C345.5 428 344.211 430.306 343 433C341.711 435.868 339.81 438.429 338 441C335.677 444.299 330.5 450.5 330.5 450.5C330.5 450.5 325.323 444.299 323 441C321.19 438.429 319.289 435.868 318 433C316.789 430.306 315.5 428 315.5 424.5C315.5 419.5 317.5 415.5 322 415.5C325.5 415.5 327.5 420.5 328 422.5C328.5 423 328.5 422.5 328.5 422C328 418 328 417 327.5 414C327 411 325.5 405.5 325.5 405.5C328 406.5 333 406.5 335.5 405.5C335.5 405.5 334 411 333.5 414C333 417 333 418 332.5 422C332.5 422.5 332.5 423 333 422.5Z" fill="black"/>
<path d="M95.5079 101.484C96.5 105.488 100.504 115.516 107.484 115.516C116.484 115.516 120.488 107.508 120.488 97.5157C120.488 90.5 117.937 85.8937 115.492 80.5079C112.906 74.7677 109.114 69.6299 105.5 64.4921C100.858 57.9016 90.5118 45.5 90.5118 45.5C90.5118 45.5 80.1299 57.9016 75.4882 64.4921C71.874 69.6299 68.0827 74.7677 65.4961 80.5079C63.0866 85.8937 60.5 90.5 60.5 97.5157C60.5 107.508 64.5039 115.516 73.5039 115.516C80.4843 115.516 84.4882 105.488 85.5157 101.484C86.5079 100.492 86.5079 101.484 86.5079 102.512C85.5157 110.484 85.5157 112.504 84.4882 118.492C83.4961 124.516 80.4843 135.5 80.4843 135.5C85.5157 133.516 95.5079 133.516 100.504 135.5C100.504 135.5 97.4921 124.516 96.5 118.492C95.5079 112.504 95.5079 110.484 94.5157 102.512C94.5157 101.484 94.5157 100.492 95.5079 101.484Z" fill="black"/>
<path d="M275.508 101.484C276.5 105.488 280.504 115.516 287.484 115.516C296.484 115.516 300.488 107.508 300.488 97.5157C300.488 90.5 297.937 85.8937 295.492 80.5079C292.906 74.7677 289.114 69.6299 285.5 64.4921C280.858 57.9016 270.512 45.5 270.512 45.5C270.512 45.5 260.13 57.9016 255.488 64.4921C251.874 69.6299 248.083 74.7677 245.496 80.5079C243.087 85.8937 240.5 90.5 240.5 97.5157C240.5 107.508 244.504 115.516 253.504 115.516C260.484 115.516 264.488 105.488 265.516 101.484C266.508 100.492 266.508 101.484 266.508 102.512C265.516 110.484 265.516 112.504 264.488 118.492C263.496 124.516 260.484 135.5 260.484 135.5C265.516 133.516 275.508 133.516 280.504 135.5C280.504 135.5 277.492 124.516 276.5 118.492C275.508 112.504 275.508 110.484 274.516 102.512C274.516 101.484 274.516 100.492 275.508 101.484Z" fill="black"/>
<path d="M95.5079 439.516C96.5 435.512 100.504 425.484 107.484 425.484C116.484 425.484 120.488 433.492 120.488 443.484C120.488 450.5 117.937 455.106 115.492 460.492C112.906 466.232 109.114 471.37 105.5 476.508C100.858 483.098 90.5118 495.5 90.5118 495.5C90.5118 495.5 80.1299 483.098 75.4882 476.508C71.874 471.37 68.0827 466.232 65.4961 460.492C63.0866 455.106 60.5 450.5 60.5 443.484C60.5 433.492 64.5039 425.484 73.5039 425.484C80.4843 425.484 84.4882 435.512 85.5157 439.516C86.5079 440.508 86.5079 439.516 86.5079 438.488C85.5157 430.516 85.5157 428.496 84.4882 422.508C83.4961 416.484 80.4843 405.5 80.4843 405.5C85.5157 407.484 95.5079 407.484 100.504 405.5C100.504 405.5 97.4921 416.484 96.5 422.508C95.5079 428.496 95.5079 430.516 94.5157 438.488C94.5157 439.516 94.5157 440.508 95.5079 439.516Z" fill="black"/>
<path d="M275.508 439.516C276.5 435.512 280.504 425.484 287.484 425.484C296.484 425.484 300.488 433.492 300.488 443.484C300.488 450.5 297.937 455.106 295.492 460.492C292.906 466.232 289.114 471.37 285.5 476.508C280.858 483.098 270.512 495.5 270.512 495.5C270.512 495.5 260.13 483.098 255.488 476.508C251.874 471.37 248.083 466.232 245.496 460.492C243.087 455.106 240.5 450.5 240.5 443.484C240.5 433.492 244.504 425.484 253.504 425.484C260.484 425.484 264.488 435.512 265.516 439.516C266.508 440.508 266.508 439.516 266.508 438.488C265.516 430.516 265.516 428.496 264.488 422.508C263.496 416.484 260.484 405.5 260.484 405.5C265.516 407.484 275.508 407.484 280.504 405.5C280.504 405.5 277.492 416.484 276.5 422.508C275.508 428.496 275.508 430.516 274.516 438.488C274.516 439.516 274.516 440.508 275.508 439.516Z" fill="black"/>
</svg>
