<svg width="361" height="541" viewBox="0 0 361 541" fill="none" xmlns="http://www.w3.org/2000/svg">
<path d="M330.056 1.00391H30.9444C14.4066 1.00391 1 14.4105 1 30.9484V510.059C1 526.597 14.4066 540.004 30.9444 540.004H330.056C346.593 540.004 360 526.597 360 510.059V30.9484C360 14.4105 346.593 1.00391 330.056 1.00391Z" fill="white" stroke="black"/>
<path d="M20.5 30.5038V45.5038V50.5038H30.5C33.27 50.5038 35.5 52.7338 35.5 55.5038V70.5038C35.5 73.2738 33.27 75.5038 30.5 75.5038C27.73 75.5038 25.5 73.2738 25.5 70.5038V65.5038H20.5V70.5038C20.5 76.0438 24.96 80.5038 30.5 80.5038C36.04 80.5038 40.5 76.0438 40.5 70.5038V55.5038C40.5 49.9638 36.04 45.5038 30.5 45.5038H25.5V35.5038H30.5H40.5V30.5038H30.5H25.5H20.5Z" fill="black"/>
<path d="M340.5 510.504V495.504V490.504H330.5C327.73 490.504 325.5 488.274 325.5 485.504V470.504C325.5 467.734 327.73 465.504 330.5 465.504C333.27 465.504 335.5 467.734 335.5 470.504V475.504H340.5V470.504C340.5 464.964 336.04 460.504 330.5 460.504C324.96 460.504 320.5 464.964 320.5 470.504V485.504C320.5 491.044 324.96 495.504 330.5 495.504H335.5V505.504H330.5H320.5V510.504H330.5H335.5H340.5Z" fill="black"/>
<path d="M185.5 281.504C187.5 285.504 192.5 291.504 197.5 291.504C206.5 291.504 210.5 283.504 210.5 273.504C210.5 263.504 206.5 254.504 197.5 254.504C192.5 254.504 189.5 259.504 186.5 262.504C185.5 263.504 184.5 262.504 185.5 261.504C188.5 258.504 193.5 250.504 193.5 243.504C193.5 235.504 188.5 225.504 180.5 225.504C172.5 225.504 167.5 235.504 167.5 243.504C167.5 250.504 172.5 258.504 175.5 261.504C176.5 262.504 175.5 263.504 174.5 262.504C171.5 259.504 168.5 254.504 163.5 254.504C154.5 254.504 150.5 263.504 150.5 273.504C150.5 283.504 154.5 291.504 163.5 291.504C168.5 291.504 173.5 285.504 175.5 281.504C176.5 280.504 176.5 281.504 176.5 282.504C175.5 290.504 175.5 292.504 174.5 298.504C173.5 304.504 170.5 315.504 170.5 315.504C175.5 313.504 185.5 313.504 190.5 315.504C190.5 315.504 187.5 304.504 186.5 298.504C185.5 292.504 185.5 290.504 184.5 282.504C184.5 281.504 184.5 280.504 185.5 281.504Z" fill="black"/>
<path d="M95.5 101.504C97.5 105.504 102.5 111.504 107.5 111.504C116.5 111.504 120.5 103.504 120.5 93.5039C120.5 83.5039 116.5 74.5039 107.5 74.5039C102.5 74.5039 99.5 79.5039 96.5 82.5039C95.5 83.5039 94.5 82.5039 95.5 81.5039C98.5 78.5039 103.5 70.5039 103.5 63.5039C103.5 55.5039 98.5 45.5039 90.5 45.5039C82.5 45.5039 77.5 55.5039 77.5 63.5039C77.5 70.5039 82.5 78.5039 85.5 81.5039C86.5 82.5039 85.5 83.5039 84.5 82.5039C81.5 79.5039 78.5 74.5039 73.5 74.5039C64.5 74.5039 60.5 83.5039 60.5 93.5039C60.5 103.504 64.5 111.504 73.5 111.504C78.5 111.504 83.5 105.504 85.5 101.504C86.5 100.504 86.5 101.504 86.5 102.504C85.5 110.504 85.5 112.504 84.5 118.504C83.5 124.504 80.5 135.504 80.5 135.504C85.5 133.504 95.5 133.504 100.5 135.504C100.5 135.504 97.5 124.504 96.5 118.504C95.5 112.504 95.5 110.504 94.5 102.504C94.5 101.504 94.5 100.504 95.5 101.504Z" fill="black"/>
<path d="M275.5 101.504C277.5 105.504 282.5 111.504 287.5 111.504C296.5 111.504 300.5 103.504 300.5 93.5039C300.5 83.5039 296.5 74.5039 287.5 74.5039C282.5 74.5039 279.5 79.5039 276.5 82.5039C275.5 83.5039 274.5 82.5039 275.5 81.5039C278.5 78.5039 283.5 70.5039 283.5 63.5039C283.5 55.5039 278.5 45.5039 270.5 45.5039C262.5 45.5039 257.5 55.5039 257.5 63.5039C257.5 70.5039 262.5 78.5039 265.5 81.5039C266.5 82.5039 265.5 83.5039 264.5 82.5039C261.5 79.5039 258.5 74.5039 253.5 74.5039C244.5 74.5039 240.5 83.5039 240.5 93.5039C240.5 103.504 244.5 111.504 253.5 111.504C258.5 111.504 263.5 105.504 265.5 101.504C266.5 100.504 266.5 101.504 266.5 102.504C265.5 110.504 265.5 112.504 264.5 118.504C263.5 124.504 260.5 135.504 260.5 135.504C265.5 133.504 275.5 133.504 280.5 135.504C280.5 135.504 277.5 124.504 276.5 118.504C275.5 112.504 275.5 110.504 274.5 102.504C274.5 101.504 274.5 100.504 275.5 101.504Z" fill="black"/>
<path d="M95.5 439.504C97.5 435.504 102.5 429.504 107.5 429.504C116.5 429.504 120.5 437.504 120.5 447.504C120.5 457.504 116.5 466.504 107.5 466.504C102.5 466.504 99.5 461.504 96.5 458.504C95.5 457.504 94.5 458.504 95.5 459.504C98.5 462.504 103.5 470.504 103.5 477.504C103.5 485.504 98.5 495.504 90.5 495.504C82.5 495.504 77.5 485.504 77.5 477.504C77.5 470.504 82.5 462.504 85.5 459.504C86.5 458.504 85.5 457.504 84.5 458.504C81.5 461.504 78.5 466.504 73.5 466.504C64.5 466.504 60.5 457.504 60.5 447.504C60.5 437.504 64.5 429.504 73.5 429.504C78.5 429.504 83.5 435.504 85.5 439.504C86.5 440.504 86.5 439.504 86.5 438.504C85.5 430.504 85.5 428.504 84.5 422.504C83.5 416.504 80.5 405.504 80.5 405.504C85.5 407.504 95.5 407.504 100.5 405.504C100.5 405.504 97.5 416.504 96.5 422.504C95.5 428.504 95.5 430.504 94.5 438.504C94.5 439.504 94.5 440.504 95.5 439.504Z" fill="black"/>
<path d="M275.5 439.504C277.5 435.504 282.5 429.504 287.5 429.504C296.5 429.504 300.5 437.504 300.5 447.504C300.5 457.504 296.5 466.504 287.5 466.504C282.5 466.504 279.5 461.504 276.5 458.504C275.5 457.504 274.5 458.504 275.5 459.504C278.5 462.504 283.5 470.504 283.5 477.504C283.5 485.504 278.5 495.504 270.5 495.504C262.5 495.504 257.5 485.504 257.5 477.504C257.5 470.504 262.5 462.504 265.5 459.504C266.5 458.504 265.5 457.504 264.5 458.504C261.5 461.504 258.5 466.504 253.5 466.504C244.5 466.504 240.5 457.504 240.5 447.504C240.5 437.504 244.5 429.504 253.5 429.504C258.5 429.504 263.5 435.504 265.5 439.504C266.5 440.504 266.5 439.504 266.5 438.504C265.5 430.504 265.5 428.504 264.5 422.504C263.5 416.504 260.5 405.504 260.5 405.504C265.5 407.504 275.5 407.504 280.5 405.504C280.5 405.504 277.5 416.504 276.5 422.504C275.5 428.504 275.5 430.504 274.5 438.504C274.5 439.504 274.5 440.504 275.5 439.504Z" fill="black"/>
<path d="M33 118.504C34 120.504 36.5 123.504 39 123.504C43.5 123.504 45.5 119.504 45.5 114.504C45.5 109.504 43.5 105.004 39 105.004C36.5 105.004 35 107.504 33.5 109.004C33 109.504 32.5 109.004 33 108.504C34.5 107.004 37 103.004 37 99.5039C37 95.5039 34.5 90.5039 30.5 90.5039C26.5 90.5039 24 95.5039 24 99.5039C24 103.004 26.5 107.004 28 108.504C28.5 109.004 28 109.504 27.5 109.004C26 107.504 24.5 105.004 22 105.004C17.5 105.004 15.5 109.504 15.5 114.504C15.5 119.504 17.5 123.504 22 123.504C24.5 123.504 27 120.504 28 118.504C28.5 118.004 28.5 118.504 28.5 119.004C28 123.004 28 124.004 27.5 127.004C27 130.004 25.5 135.504 25.5 135.504C28 134.504 33 134.504 35.5 135.504C35.5 135.504 34 130.004 33.5 127.004C33 124.004 33 123.004 32.5 119.004C32.5 118.504 32.5 118.004 33 118.504Z" fill="black"/>
<path d="M333 422.504C334 420.504 336.5 417.504 339 417.504C343.5 417.504 345.5 421.504 345.5 426.504C345.5 431.504 343.5 436.004 339 436.004C336.5 436.004 335 433.504 333.5 432.004C333 431.504 332.5 432.004 333 432.504C334.5 434.004 337 438.004 337 441.504C337 445.504 334.5 450.504 330.5 450.504C326.5 450.504 324 445.504 324 441.504C324 438.004 326.5 434.004 328 432.504C328.5 432.004 328 431.504 327.5 432.004C326 433.504 324.5 436.004 322 436.004C317.5 436.004 315.5 431.504 315.5 426.504C315.5 421.504 317.5 417.504 322 417.504C324.5 417.504 327 420.504 328 422.504C328.5 423.004 328.5 422.504 328.5 422.004C328 418.004 328 417.004 327.5 414.004C327 411.004 325.5 405.504 325.5 405.504C328 406.504 333 406.504 335.5 405.504C335.5 405.504 334 411.004 333.5 414.004C333 417.004 333 418.004 332.5 422.004C332.5 422.504 332.5 423.004 333 422.504Z" fill="black"/>
</svg>
