<svg width="361" height="541" viewBox="0 0 361 541" fill="none" xmlns="http://www.w3.org/2000/svg">
<path d="M330.42 1H31.3087C14.7708 1 1.36426 14.4066 1.36426 30.9445V510.056C1.36426 526.593 14.7708 540 31.3087 540H330.42C346.958 540 360.364 526.593 360.364 510.056V30.9445C360.364 14.4066 346.958 1 330.42 1Z" fill="white" stroke="black"/>
<path d="M20.8643 30.4999V45.4999V50.4999H30.8643C33.6343 50.4999 35.8643 52.7299 35.8643 55.4999V70.4999C35.8643 73.2699 33.6343 75.4999 30.8643 75.4999C28.0943 75.4999 25.8643 73.2699 25.8643 70.4999V65.4999H20.8643V70.4999C20.8643 76.0399 25.3243 80.4999 30.8643 80.4999C36.4043 80.4999 40.8643 76.0399 40.8643 70.4999V55.4999C40.8643 49.9599 36.4043 45.4999 30.8643 45.4999H25.8643V35.4999H30.8643H40.8643V30.4999H30.8643H25.8643H20.8643Z" fill="#FF5555"/>
<path d="M340.864 510.5V495.5V490.5H330.864C328.094 490.5 325.864 488.27 325.864 485.5V470.5C325.864 467.73 328.094 465.5 330.864 465.5C333.634 465.5 335.864 467.73 335.864 470.5V475.5H340.864V470.5C340.864 464.96 336.404 460.5 330.864 460.5C325.324 460.5 320.864 464.96 320.864 470.5V485.5C320.864 491.04 325.324 495.5 330.864 495.5H335.864V505.5H330.864H320.864V510.5H330.864H335.864H340.864Z" fill="#FF5555"/>
<path d="M30.8643 90.5C30.8643 90.5 33.8643 98 37.3643 103C40.8643 108 45.8643 113 45.8643 113C45.8643 113 40.8643 118 37.3643 123C33.8643 128 30.8643 135.5 30.8643 135.5C30.8643 135.5 27.8643 128 24.3643 123C20.8643 118 15.8643 113 15.8643 113C15.8643 113 20.8643 108 24.3643 103C27.8643 98 30.8643 90.5 30.8643 90.5Z" fill="#FF5555"/>
<path d="M330.864 405.5C330.864 405.5 333.864 413 337.364 418C340.864 423 345.864 428 345.864 428C345.864 428 340.864 433 337.364 438C333.864 443 330.864 450.5 330.864 450.5C330.864 450.5 327.864 443 324.364 438C320.864 433 315.864 428 315.864 428C315.864 428 320.864 423 324.364 418C327.864 413 330.864 405.5 330.864 405.5Z" fill="#FF5555"/>
<path d="M90.8643 45.5C90.8643 45.5 96.8643 60.5 103.864 70.5C110.864 80.5 120.864 90.5 120.864 90.5C120.864 90.5 110.864 100.5 103.864 110.5C96.8643 120.5 90.8643 135.5 90.8643 135.5C90.8643 135.5 84.8643 120.5 77.8643 110.5C70.8643 100.5 60.8643 90.5 60.8643 90.5C60.8643 90.5 70.8643 80.5 77.8643 70.5C84.8643 60.5 90.8643 45.5 90.8643 45.5Z" fill="#FF5555"/>
<path d="M270.864 45.5C270.864 45.5 276.864 60.5 283.864 70.5C290.864 80.5 300.864 90.5 300.864 90.5C300.864 90.5 290.864 100.5 283.864 110.5C276.864 120.5 270.864 135.5 270.864 135.5C270.864 135.5 264.864 120.5 257.864 110.5C250.864 100.5 240.864 90.5 240.864 90.5C240.864 90.5 250.864 80.5 257.864 70.5C264.864 60.5 270.864 45.5 270.864 45.5Z" fill="#FF5555"/>
<path d="M180.864 225.5C180.864 225.5 186.864 240.5 193.864 250.5C200.864 260.5 210.864 270.5 210.864 270.5C210.864 270.5 200.864 280.5 193.864 290.5C186.864 300.5 180.864 315.5 180.864 315.5C180.864 315.5 174.864 300.5 167.864 290.5C160.864 280.5 150.864 270.5 150.864 270.5C150.864 270.5 160.864 260.5 167.864 250.5C174.864 240.5 180.864 225.5 180.864 225.5Z" fill="#FF5555"/>
<path d="M90.8643 405.5C90.8643 405.5 96.8643 420.5 103.864 430.5C110.864 440.5 120.864 450.5 120.864 450.5C120.864 450.5 110.864 460.5 103.864 470.5C96.8643 480.5 90.8643 495.5 90.8643 495.5C90.8643 495.5 84.8643 480.5 77.8643 470.5C70.8643 460.5 60.8643 450.5 60.8643 450.5C60.8643 450.5 70.8643 440.5 77.8643 430.5C84.8643 420.5 90.8643 405.5 90.8643 405.5Z" fill="#FF5555"/>
<path d="M270.864 405.5C270.864 405.5 276.864 420.5 283.864 430.5C290.864 440.5 300.864 450.5 300.864 450.5C300.864 450.5 290.864 460.5 283.864 470.5C276.864 480.5 270.864 495.5 270.864 495.5C270.864 495.5 264.864 480.5 257.864 470.5C250.864 460.5 240.864 450.5 240.864 450.5C240.864 450.5 250.864 440.5 257.864 430.5C264.864 420.5 270.864 405.5 270.864 405.5Z" fill="#FF5555"/>
</svg>
