<svg width="361" height="541" viewBox="0 0 361 541" fill="none" xmlns="http://www.w3.org/2000/svg">
<path d="M330.056 1H30.9444C14.4066 1 1 14.4066 1 30.9445V510.056C1 526.593 14.4066 540 30.9444 540H330.056C346.593 540 360 526.593 360 510.056V30.9445C360 14.4066 346.593 1 330.056 1Z" fill="white" stroke="black"/>
<path d="M30.5 30.5C24.96 30.5 20.5 34.96 20.5 40.5V60.5V70.5C20.5 76.04 24.96 80.5 30.5 80.5C36.04 80.5 40.5 76.04 40.5 70.5V60.5C40.5 54.96 36.04 50.5 30.5 50.5C28.6774 50.5 26.9685 50.9986 25.5 51.8438V40.5C25.5 37.73 27.73 35.5 30.5 35.5C33.27 35.5 35.5 37.73 35.5 40.5V41.5H40.5V40.5C40.5 34.96 36.04 30.5 30.5 30.5ZM30.5 55.5C33.27 55.5 35.5 57.73 35.5 60.5V70.5C35.5 73.27 33.27 75.5 30.5 75.5C27.73 75.5 25.5 73.27 25.5 70.5V60.5C25.5 57.73 27.73 55.5 30.5 55.5Z" fill="black"/>
<path d="M330.5 510.5C336.04 510.5 340.5 506.04 340.5 500.5V480.5V470.5C340.5 464.96 336.04 460.5 330.5 460.5C324.96 460.5 320.5 464.96 320.5 470.5V480.5C320.5 486.04 324.96 490.5 330.5 490.5C332.323 490.5 334.032 490.002 335.5 489.156V500.5C335.5 503.27 333.27 505.5 330.5 505.5C327.73 505.5 325.5 503.27 325.5 500.5V499.5H320.5V500.5C320.5 506.04 324.96 510.5 330.5 510.5ZM330.5 485.5C327.73 485.5 325.5 483.27 325.5 480.5V470.5C325.5 467.73 327.73 465.5 330.5 465.5C333.27 465.5 335.5 467.73 335.5 470.5V480.5C335.5 483.27 333.27 485.5 330.5 485.5Z" fill="black"/>
<path d="M95.5 101.5C96.5 105.5 100.5 115.5 107.5 115.5C116.5 115.5 120.5 107.5 120.5 97.5C120.5 90.5 117.921 85.8877 115.5 80.5C112.922 74.7633 109.121 69.6426 105.5 64.5C100.855 57.9021 90.5 45.5 90.5 45.5C90.5 45.5 80.1453 57.9021 75.5 64.5C71.8793 69.6426 68.0779 74.7633 65.5 80.5C63.0789 85.8877 60.5 90.5 60.5 97.5C60.5 107.5 64.5 115.5 73.5 115.5C80.5 115.5 84.5 105.5 85.5 101.5C86.5 100.5 86.5 101.5 86.5 102.5C85.5 110.5 85.5 112.5 84.5 118.5C83.5 124.5 80.5 135.5 80.5 135.5C85.5 133.5 95.5 133.5 100.5 135.5C100.5 135.5 97.5 124.5 96.5 118.5C95.5 112.5 95.5 110.5 94.5 102.5C94.5 101.5 94.5 100.5 95.5 101.5Z" fill="black"/>
<path d="M275.5 101.5C276.5 105.5 280.5 115.5 287.5 115.5C296.5 115.5 300.5 107.5 300.5 97.5C300.5 90.5 297.921 85.8877 295.5 80.5C292.922 74.7633 289.121 69.6426 285.5 64.5C280.855 57.9021 270.5 45.5 270.5 45.5C270.5 45.5 260.145 57.9021 255.5 64.5C251.879 69.6426 248.078 74.7633 245.5 80.5C243.079 85.8877 240.5 90.5 240.5 97.5C240.5 107.5 244.5 115.5 253.5 115.5C260.5 115.5 264.5 105.5 265.5 101.5C266.5 100.5 266.5 101.5 266.5 102.5C265.5 110.5 265.5 112.5 264.5 118.5C263.5 124.5 260.5 135.5 260.5 135.5C265.5 133.5 275.5 133.5 280.5 135.5C280.5 135.5 277.5 124.5 276.5 118.5C275.5 112.5 275.5 110.5 274.5 102.5C274.5 101.5 274.5 100.5 275.5 101.5Z" fill="black"/>
<path d="M95.5 281.5C96.5 285.5 100.5 295.5 107.5 295.5C116.5 295.5 120.5 287.5 120.5 277.5C120.5 270.5 117.921 265.888 115.5 260.5C112.922 254.763 109.121 249.643 105.5 244.5C100.855 237.902 90.5 225.5 90.5 225.5C90.5 225.5 80.1453 237.902 75.5 244.5C71.8793 249.643 68.0779 254.763 65.5 260.5C63.0789 265.888 60.5 270.5 60.5 277.5C60.5 287.5 64.5 295.5 73.5 295.5C80.5 295.5 84.5 285.5 85.5 281.5C86.5 280.5 86.5 281.5 86.5 282.5C85.5 290.5 85.5 292.5 84.5 298.5C83.5 304.5 80.5 315.5 80.5 315.5C85.5 313.5 95.5 313.5 100.5 315.5C100.5 315.5 97.5 304.5 96.5 298.5C95.5 292.5 95.5 290.5 94.5 282.5C94.5 281.5 94.5 280.5 95.5 281.5Z" fill="black"/>
<path d="M275.5 281.5C276.5 285.5 280.5 295.5 287.5 295.5C296.5 295.5 300.5 287.5 300.5 277.5C300.5 270.5 297.921 265.888 295.5 260.5C292.922 254.763 289.121 249.643 285.5 244.5C280.855 237.902 270.5 225.5 270.5 225.5C270.5 225.5 260.145 237.902 255.5 244.5C251.879 249.643 248.078 254.763 245.5 260.5C243.079 265.888 240.5 270.5 240.5 277.5C240.5 287.5 244.5 295.5 253.5 295.5C260.5 295.5 264.5 285.5 265.5 281.5C266.5 280.5 266.5 281.5 266.5 282.5C265.5 290.5 265.5 292.5 264.5 298.5C263.5 304.5 260.5 315.5 260.5 315.5C265.5 313.5 275.5 313.5 280.5 315.5C280.5 315.5 277.5 304.5 276.5 298.5C275.5 292.5 275.5 290.5 274.5 282.5C274.5 281.5 274.5 280.5 275.5 281.5Z" fill="black"/>
<path d="M95.5 439.5C96.5 435.5 100.5 425.5 107.5 425.5C116.5 425.5 120.5 433.5 120.5 443.5C120.5 450.5 117.921 455.112 115.5 460.5C112.922 466.237 109.121 471.357 105.5 476.5C100.855 483.098 90.5 495.5 90.5 495.5C90.5 495.5 80.1453 483.098 75.5 476.5C71.8793 471.357 68.0779 466.237 65.5 460.5C63.0789 455.112 60.5 450.5 60.5 443.5C60.5 433.5 64.5 425.5 73.5 425.5C80.5 425.5 84.5 435.5 85.5 439.5C86.5 440.5 86.5 439.5 86.5 438.5C85.5 430.5 85.5 428.5 84.5 422.5C83.5 416.5 80.5 405.5 80.5 405.5C85.5 407.5 95.5 407.5 100.5 405.5C100.5 405.5 97.5 416.5 96.5 422.5C95.5 428.5 95.5 430.5 94.5 438.5C94.5 439.5 94.5 440.5 95.5 439.5Z" fill="black"/>
<path d="M275.5 439.5C276.5 435.5 280.5 425.5 287.5 425.5C296.5 425.5 300.5 433.5 300.5 443.5C300.5 450.5 297.921 455.112 295.5 460.5C292.922 466.237 289.121 471.357 285.5 476.5C280.855 483.098 270.5 495.5 270.5 495.5C270.5 495.5 260.145 483.098 255.5 476.5C251.879 471.357 248.078 466.237 245.5 460.5C243.079 455.112 240.5 450.5 240.5 443.5C240.5 433.5 244.5 425.5 253.5 425.5C260.5 425.5 264.5 435.5 265.5 439.5C266.5 440.5 266.5 439.5 266.5 438.5C265.5 430.5 265.5 428.5 264.5 422.5C263.5 416.5 260.5 405.5 260.5 405.5C265.5 407.5 275.5 407.5 280.5 405.5C280.5 405.5 277.5 416.5 276.5 422.5C275.5 428.5 275.5 430.5 274.5 438.5C274.5 439.5 274.5 440.5 275.5 439.5Z" fill="black"/>
<path d="M33 118.5C33.5 120.5 35.5 125.5 39 125.5C43.5 125.5 45.5 121.5 45.5 116.5C45.5 113 44.2105 110.694 43 108C41.7111 105.132 39.8103 102.571 38 100C35.6773 96.701 30.5 90.5 30.5 90.5C30.5 90.5 25.3226 96.701 23 100C21.1897 102.571 19.2889 105.132 18 108C16.7895 110.694 15.5 113 15.5 116.5C15.5 121.5 17.5 125.5 22 125.5C25.5 125.5 27.5 120.5 28 118.5C28.5 118 28.5 118.5 28.5 119C28 123 28 124 27.5 127C27 130 25.5 135.5 25.5 135.5C28 134.5 33 134.5 35.5 135.5C35.5 135.5 34 130 33.5 127C33 124 33 123 32.5 119C32.5 118.5 32.5 118 33 118.5Z" fill="black"/>
<path d="M333 422.5C333.5 420.5 335.5 415.5 339 415.5C343.5 415.5 345.5 419.5 345.5 424.5C345.5 428 344.211 430.306 343 433C341.711 435.868 339.81 438.429 338 441C335.677 444.299 330.5 450.5 330.5 450.5C330.5 450.5 325.323 444.299 323 441C321.19 438.429 319.289 435.868 318 433C316.789 430.306 315.5 428 315.5 424.5C315.5 419.5 317.5 415.5 322 415.5C325.5 415.5 327.5 420.5 328 422.5C328.5 423 328.5 422.5 328.5 422C328 418 328 417 327.5 414C327 411 325.5 405.5 325.5 405.5C328 406.5 333 406.5 335.5 405.5C335.5 405.5 334 411 333.5 414C333 417 333 418 332.5 422C332.5 422.5 332.5 423 333 422.5Z" fill="black"/>
</svg>
