<svg width="361" height="541" viewBox="0 0 361 541" fill="none" xmlns="http://www.w3.org/2000/svg">
<path d="M330.056 1H30.9444C14.4066 1 1 14.4066 1 30.9445V510.056C1 526.593 14.4066 540 30.9444 540H330.056C346.593 540 360 526.593 360 510.056V30.9445C360 14.4066 346.593 1 330.056 1Z" fill="white" stroke="black"/>
<path d="M30.5 30.5C24.96 30.5 20.5 34.96 20.5 40.5V45.5C20.5 48.5036 21.823 51.17 23.9063 53C21.823 54.83 20.5 57.4964 20.5 60.5V70.5C20.5 76.04 24.96 80.5 30.5 80.5C36.04 80.5 40.5 76.04 40.5 70.5V60.5C40.5 57.4964 39.177 54.83 37.0938 53C39.177 51.17 40.5 48.5036 40.5 45.5V40.5C40.5 34.96 36.04 30.5 30.5 30.5ZM30.5 35.5C33.27 35.5 35.5 37.73 35.5 40.5V45.5C35.5 48.27 33.27 50.5 30.5 50.5C27.73 50.5 25.5 48.27 25.5 45.5V40.5C25.5 37.73 27.73 35.5 30.5 35.5ZM30.5 55.5C33.27 55.5 35.5 57.73 35.5 60.5V70.5C35.5 73.27 33.27 75.5 30.5 75.5C27.73 75.5 25.5 73.27 25.5 70.5V60.5C25.5 57.73 27.73 55.5 30.5 55.5Z" fill="#FF5555"/>
<path d="M330.5 510.5C324.96 510.5 320.5 506.04 320.5 500.5V495.5C320.5 492.496 321.823 489.83 323.906 488C321.823 486.17 320.5 483.503 320.5 480.5V470.5C320.5 464.96 324.96 460.5 330.5 460.5C336.04 460.5 340.5 464.96 340.5 470.5V480.5C340.5 483.503 339.177 486.17 337.094 488C339.177 489.83 340.5 492.496 340.5 495.5V500.5C340.5 506.04 336.04 510.5 330.5 510.5ZM330.5 505.5C333.27 505.5 335.5 503.27 335.5 500.5V495.5C335.5 492.73 333.27 490.5 330.5 490.5C327.73 490.5 325.5 492.73 325.5 495.5V500.5C325.5 503.27 327.73 505.5 330.5 505.5ZM330.5 485.5C333.27 485.5 335.5 483.27 335.5 480.5V470.5C335.5 467.73 333.27 465.5 330.5 465.5C327.73 465.5 325.5 467.73 325.5 470.5V480.5C325.5 483.27 327.73 485.5 330.5 485.5Z" fill="#FF5555"/>
<path d="M330 441.5C330 447.023 327.142 450.5 323 450.5C318.858 450.5 315.5 446.023 315.5 440.5C315.517 440.022 315.509 439.554 315.5 439.094C315.5 435.445 316.838 431.905 318 428.594C319.195 425.188 320.917 422.203 322.531 419.156C325.032 414.437 330.5 405.5 330.5 405.5C330.5 405.5 335.968 414.437 338.469 419.156C340.083 422.203 341.805 425.188 343 428.594C344.162 431.905 345.5 435.445 345.5 439.094C345.486 439.581 345.491 440.051 345.5 440.5C345.5 446.023 342.142 450.5 338 450.5C333.858 450.5 331 447.023 331 441.5C331 440.5 330 440.5 330 441.5Z" fill="#FF5555"/>
<path d="M89.5 63.5C89.5 52.4543 83.7843 45.5 75.5 45.5C67.2157 45.5 60.5 54.4543 60.5 65.5C60.5349 66.4556 60.5182 67.3912 60.5 68.3125C60.5 75.611 63.1769 82.6893 65.5 89.3125C67.889 96.1235 71.3336 102.093 74.5625 108.188C79.5637 117.627 90.5 135.5 90.5 135.5C90.5 135.5 101.436 117.627 106.438 108.188C109.666 102.093 113.111 96.1235 115.5 89.3125C117.823 82.6893 120.5 75.611 120.5 68.3125C120.472 67.3381 120.481 66.3979 120.5 65.5C120.5 54.4543 113.784 45.5 105.5 45.5C97.2157 45.5 91.5 52.4543 91.5 63.5C91.5 65.5 89.5 65.5 89.5 63.5Z" fill="#FF5555"/>
<path d="M269.5 63.5C269.5 52.4543 263.784 45.5 255.5 45.5C247.216 45.5 240.5 54.4543 240.5 65.5C240.535 66.4556 240.518 67.3912 240.5 68.3125C240.5 75.611 243.177 82.6893 245.5 89.3125C247.889 96.1235 251.334 102.093 254.562 108.188C259.564 117.627 270.5 135.5 270.5 135.5C270.5 135.5 281.436 117.627 286.438 108.188C289.666 102.093 293.111 96.1235 295.5 89.3125C297.823 82.6893 300.5 75.611 300.5 68.3125C300.472 67.3381 300.481 66.3979 300.5 65.5C300.5 54.4543 293.784 45.5 285.5 45.5C277.216 45.5 271.5 52.4543 271.5 63.5C271.5 65.5 269.5 65.5 269.5 63.5Z" fill="#FF5555"/>
<path d="M179.5 153.5C179.5 142.454 173.784 135.5 165.5 135.5C157.216 135.5 150.5 144.454 150.5 155.5C150.535 156.456 150.518 157.391 150.5 158.312C150.5 165.611 153.177 172.689 155.5 179.312C157.889 186.123 161.334 192.093 164.562 198.188C169.564 207.627 180.5 225.5 180.5 225.5C180.5 225.5 191.436 207.627 196.438 198.188C199.666 192.093 203.111 186.123 205.5 179.312C207.823 172.689 210.5 165.611 210.5 158.312C210.472 157.338 210.481 156.398 210.5 155.5C210.5 144.454 203.784 135.5 195.5 135.5C187.216 135.5 181.5 142.454 181.5 153.5C181.5 155.5 179.5 155.5 179.5 153.5Z" fill="#FF5555"/>
<path d="M89.5 243.5C89.5 232.454 83.7843 225.5 75.5 225.5C67.2157 225.5 60.5 234.454 60.5 245.5C60.5349 246.456 60.5182 247.391 60.5 248.312C60.5 255.611 63.1769 262.689 65.5 269.312C67.889 276.123 71.3336 282.093 74.5625 288.188C79.5637 297.627 90.5 315.5 90.5 315.5C90.5 315.5 101.436 297.627 106.438 288.188C109.666 282.093 113.111 276.123 115.5 269.312C117.823 262.689 120.5 255.611 120.5 248.312C120.472 247.338 120.481 246.398 120.5 245.5C120.5 234.454 113.784 225.5 105.5 225.5C97.2157 225.5 91.5 232.454 91.5 243.5C91.5 245.5 89.5 245.5 89.5 243.5Z" fill="#FF5555"/>
<path d="M269.5 243.5C269.5 232.454 263.784 225.5 255.5 225.5C247.216 225.5 240.5 234.454 240.5 245.5C240.535 246.456 240.518 247.391 240.5 248.312C240.5 255.611 243.177 262.689 245.5 269.312C247.889 276.123 251.334 282.093 254.562 288.188C259.564 297.627 270.5 315.5 270.5 315.5C270.5 315.5 281.436 297.627 286.438 288.188C289.666 282.093 293.111 276.123 295.5 269.312C297.823 262.689 300.5 255.611 300.5 248.312C300.472 247.338 300.481 246.398 300.5 245.5C300.5 234.454 293.784 225.5 285.5 225.5C277.216 225.5 271.5 232.454 271.5 243.5C271.5 245.5 269.5 245.5 269.5 243.5Z" fill="#FF5555"/>
<path d="M179.5 387.5C179.5 398.546 173.784 405.5 165.5 405.5C157.216 405.5 150.5 396.546 150.5 385.5C150.535 384.544 150.518 383.609 150.5 382.688C150.5 375.389 153.177 368.311 155.5 361.688C157.889 354.877 161.334 348.907 164.562 342.812C169.564 333.373 180.5 315.5 180.5 315.5C180.5 315.5 191.436 333.373 196.438 342.812C199.666 348.907 203.111 354.877 205.5 361.688C207.823 368.311 210.5 375.389 210.5 382.688C210.472 383.662 210.481 384.602 210.5 385.5C210.5 396.546 203.784 405.5 195.5 405.5C187.216 405.5 181.5 398.546 181.5 387.5C181.5 385.5 179.5 385.5 179.5 387.5Z" fill="#FF5555"/>
<path d="M89.5 477.5C89.5 488.546 83.7843 495.5 75.5 495.5C67.2157 495.5 60.5 486.546 60.5 475.5C60.5349 474.544 60.5182 473.609 60.5 472.688C60.5 465.389 63.1769 458.311 65.5 451.688C67.889 444.877 71.3336 438.907 74.5625 432.812C79.5637 423.373 90.5 405.5 90.5 405.5C90.5 405.5 101.436 423.373 106.438 432.812C109.666 438.907 113.111 444.877 115.5 451.688C117.823 458.311 120.5 465.389 120.5 472.688C120.472 473.662 120.481 474.602 120.5 475.5C120.5 486.546 113.784 495.5 105.5 495.5C97.2157 495.5 91.5 488.546 91.5 477.5C91.5 475.5 89.5 475.5 89.5 477.5Z" fill="#FF5555"/>
<path d="M269.5 477.5C269.5 488.546 263.784 495.5 255.5 495.5C247.216 495.5 240.5 486.546 240.5 475.5C240.535 474.544 240.518 473.609 240.5 472.688C240.5 465.389 243.177 458.311 245.5 451.688C247.889 444.877 251.334 438.907 254.562 432.812C259.564 423.373 270.5 405.5 270.5 405.5C270.5 405.5 281.436 423.373 286.438 432.812C289.666 438.907 293.111 444.877 295.5 451.688C297.823 458.311 300.5 465.389 300.5 472.688C300.472 473.662 300.481 474.602 300.5 475.5C300.5 486.546 293.784 495.5 285.5 495.5C277.216 495.5 271.5 488.546 271.5 477.5C271.5 475.5 269.5 475.5 269.5 477.5Z" fill="#FF5555"/>
<path d="M30 99.5C30 93.9771 27.1421 90.5 23 90.5C18.8579 90.5 15.5 94.9771 15.5 100.5C15.5174 100.978 15.5091 101.446 15.5 101.906C15.5 105.555 16.8384 109.095 18 112.406C19.1945 115.812 20.9168 118.797 22.5312 121.844C25.0319 126.563 30.5 135.5 30.5 135.5C30.5 135.5 35.9681 126.563 38.4688 121.844C40.0832 118.797 41.8055 115.812 43 112.406C44.1616 109.095 45.5 105.555 45.5 101.906C45.4858 101.419 45.4907 100.949 45.5 100.5C45.5 94.9771 42.1421 90.5 38 90.5C33.8579 90.5 31 93.9771 31 99.5C31 100.5 30 100.5 30 99.5Z" fill="#FF5555"/>
</svg>
