<svg width="361" height="541" viewBox="0 0 361 541" fill="none" xmlns="http://www.w3.org/2000/svg">
<path d="M330.056 1H30.9444C14.4066 1 1 14.4066 1 30.9445V510.056C1 526.593 14.4066 540 30.9444 540H330.056C346.593 540 360 526.593 360 510.056V30.9445C360 14.4066 346.593 1 330.056 1Z" fill="white" stroke="black"/>
<path d="M30.5 80.4999C36.04 80.4999 40.5 76.0399 40.5 70.4999V50.4999V40.4999C40.5 34.9599 36.04 30.4999 30.5 30.4999C24.96 30.4999 20.5 34.9599 20.5 40.4999V50.4999C20.5 56.0399 24.96 60.4999 30.5 60.4999C32.3226 60.4999 34.0315 60.0013 35.5 59.1561V70.4999C35.5 73.2699 33.27 75.4999 30.5 75.4999C27.73 75.4999 25.5 73.2699 25.5 70.4999V69.4999H20.5V70.4999C20.5 76.0399 24.96 80.4999 30.5 80.4999ZM30.5 55.4999C27.73 55.4999 25.5 53.2699 25.5 50.4999V40.4999C25.5 37.7299 27.73 35.4999 30.5 35.4999C33.27 35.4999 35.5 37.7299 35.5 40.4999V50.4999C35.5 53.2699 33.27 55.4999 30.5 55.4999Z" fill="#FF5555"/>
<path d="M330.5 460.5C324.96 460.5 320.5 464.96 320.5 470.5V490.5V500.5C320.5 506.04 324.96 510.5 330.5 510.5C336.04 510.5 340.5 506.04 340.5 500.5V490.5C340.5 484.96 336.04 480.5 330.5 480.5C328.677 480.5 326.969 480.998 325.5 481.844V470.5C325.5 467.73 327.73 465.5 330.5 465.5C333.27 465.5 335.5 467.73 335.5 470.5V471.5H340.5V470.5C340.5 464.96 336.04 460.5 330.5 460.5ZM330.5 485.5C333.27 485.5 335.5 487.73 335.5 490.5V500.5C335.5 503.27 333.27 505.5 330.5 505.5C327.73 505.5 325.5 503.27 325.5 500.5V490.5C325.5 487.73 327.73 485.5 330.5 485.5Z" fill="#FF5555"/>
<path d="M30.5 90.5C30.5 90.5 33.5 98 37 103C40.5 108 45.5 113 45.5 113C45.5 113 40.5 118 37 123C33.5 128 30.5 135.5 30.5 135.5C30.5 135.5 27.5 128 24 123C20.5 118 15.5 113 15.5 113C15.5 113 20.5 108 24 103C27.5 98 30.5 90.5 30.5 90.5Z" fill="#FF5555"/>
<path d="M330.5 405.5C330.5 405.5 333.5 413 337 418C340.5 423 345.5 428 345.5 428C345.5 428 340.5 433 337 438C333.5 443 330.5 450.5 330.5 450.5C330.5 450.5 327.5 443 324 438C320.5 433 315.5 428 315.5 428C315.5 428 320.5 423 324 418C327.5 413 330.5 405.5 330.5 405.5Z" fill="#FF5555"/>
<path d="M90.5 45.5C90.5 45.5 96.5 60.5 103.5 70.5C110.5 80.5 120.5 90.5 120.5 90.5C120.5 90.5 110.5 100.5 103.5 110.5C96.5 120.5 90.5 135.5 90.5 135.5C90.5 135.5 84.5 120.5 77.5 110.5C70.5 100.5 60.5 90.5 60.5 90.5C60.5 90.5 70.5 80.5 77.5 70.5C84.5 60.5 90.5 45.5 90.5 45.5Z" fill="#FF5555"/>
<path d="M90.5 165.5C90.5 165.5 96.5 180.5 103.5 190.5C110.5 200.5 120.5 210.5 120.5 210.5C120.5 210.5 110.5 220.5 103.5 230.5C96.5 240.5 90.5 255.5 90.5 255.5C90.5 255.5 84.5 240.5 77.5 230.5C70.5 220.5 60.5 210.5 60.5 210.5C60.5 210.5 70.5 200.5 77.5 190.5C84.5 180.5 90.5 165.5 90.5 165.5Z" fill="#FF5555"/>
<path d="M90.5 285.5C90.5 285.5 96.5 300.5 103.5 310.5C110.5 320.5 120.5 330.5 120.5 330.5C120.5 330.5 110.5 340.5 103.5 350.5C96.5 360.5 90.5 375.5 90.5 375.5C90.5 375.5 84.5 360.5 77.5 350.5C70.5 340.5 60.5 330.5 60.5 330.5C60.5 330.5 70.5 320.5 77.5 310.5C84.5 300.5 90.5 285.5 90.5 285.5Z" fill="#FF5555"/>
<path d="M90.5 405.5C90.5 405.5 96.5 420.5 103.5 430.5C110.5 440.5 120.5 450.5 120.5 450.5C120.5 450.5 110.5 460.5 103.5 470.5C96.5 480.5 90.5 495.5 90.5 495.5C90.5 495.5 84.5 480.5 77.5 470.5C70.5 460.5 60.5 450.5 60.5 450.5C60.5 450.5 70.5 440.5 77.5 430.5C84.5 420.5 90.5 405.5 90.5 405.5Z" fill="#FF5555"/>
<path d="M180.5 225.5C180.5 225.5 186.5 240.5 193.5 250.5C200.5 260.5 210.5 270.5 210.5 270.5C210.5 270.5 200.5 280.5 193.5 290.5C186.5 300.5 180.5 315.5 180.5 315.5C180.5 315.5 174.5 300.5 167.5 290.5C160.5 280.5 150.5 270.5 150.5 270.5C150.5 270.5 160.5 260.5 167.5 250.5C174.5 240.5 180.5 225.5 180.5 225.5Z" fill="#FF5555"/>
<path d="M270.5 45.5C270.5 45.5 276.5 60.5 283.5 70.5C290.5 80.5 300.5 90.5 300.5 90.5C300.5 90.5 290.5 100.5 283.5 110.5C276.5 120.5 270.5 135.5 270.5 135.5C270.5 135.5 264.5 120.5 257.5 110.5C250.5 100.5 240.5 90.5 240.5 90.5C240.5 90.5 250.5 80.5 257.5 70.5C264.5 60.5 270.5 45.5 270.5 45.5Z" fill="#FF5555"/>
<path d="M270.5 165.5C270.5 165.5 276.5 180.5 283.5 190.5C290.5 200.5 300.5 210.5 300.5 210.5C300.5 210.5 290.5 220.5 283.5 230.5C276.5 240.5 270.5 255.5 270.5 255.5C270.5 255.5 264.5 240.5 257.5 230.5C250.5 220.5 240.5 210.5 240.5 210.5C240.5 210.5 250.5 200.5 257.5 190.5C264.5 180.5 270.5 165.5 270.5 165.5Z" fill="#FF5555"/>
<path d="M270.5 285.5C270.5 285.5 276.5 300.5 283.5 310.5C290.5 320.5 300.5 330.5 300.5 330.5C300.5 330.5 290.5 340.5 283.5 350.5C276.5 360.5 270.5 375.5 270.5 375.5C270.5 375.5 264.5 360.5 257.5 350.5C250.5 340.5 240.5 330.5 240.5 330.5C240.5 330.5 250.5 320.5 257.5 310.5C264.5 300.5 270.5 285.5 270.5 285.5Z" fill="#FF5555"/>
<path d="M270.5 405.5C270.5 405.5 276.5 420.5 283.5 430.5C290.5 440.5 300.5 450.5 300.5 450.5C300.5 450.5 290.5 460.5 283.5 470.5C276.5 480.5 270.5 495.5 270.5 495.5C270.5 495.5 264.5 480.5 257.5 470.5C250.5 460.5 240.5 450.5 240.5 450.5C240.5 450.5 250.5 440.5 257.5 430.5C264.5 420.5 270.5 405.5 270.5 405.5Z" fill="#FF5555"/>
</svg>
