<svg width="361" height="541" viewBox="0 0 361 541" fill="none" xmlns="http://www.w3.org/2000/svg">
<path d="M330.056 1H30.9444C14.4066 1 1 14.4066 1 30.9445V510.056C1 526.593 14.4066 540 30.9444 540H330.056C346.593 540 360 526.593 360 510.056V30.9445C360 14.4066 346.593 1 330.056 1Z" fill="white" stroke="black"/>
<path d="M30.5 80.5C36.04 80.5 40.5 76.04 40.5 70.5V50.5V40.5C40.5 34.96 36.04 30.5 30.5 30.5C24.96 30.5 20.5 34.96 20.5 40.5V50.5C20.5 56.04 24.96 60.5 30.5 60.5C32.3226 60.5 34.0315 60.0014 35.5 59.1562V70.5C35.5 73.27 33.27 75.5 30.5 75.5C27.73 75.5 25.5 73.27 25.5 70.5V69.5H20.5V70.5C20.5 76.04 24.96 80.5 30.5 80.5ZM30.5 55.5C27.73 55.5 25.5 53.27 25.5 50.5V40.5C25.5 37.73 27.73 35.5 30.5 35.5C33.27 35.5 35.5 37.73 35.5 40.5V50.5C35.5 53.27 33.27 55.5 30.5 55.5Z" fill="black"/>
<path d="M330.5 460.5C324.96 460.5 320.5 464.96 320.5 470.5V490.5V500.5C320.5 506.04 324.96 510.5 330.5 510.5C336.04 510.5 340.5 506.04 340.5 500.5V490.5C340.5 484.96 336.04 480.5 330.5 480.5C328.677 480.5 326.969 480.999 325.5 481.844V470.5C325.5 467.73 327.73 465.5 330.5 465.5C333.27 465.5 335.5 467.73 335.5 470.5V471.5H340.5V470.5C340.5 464.96 336.04 460.5 330.5 460.5ZM330.5 485.5C333.27 485.5 335.5 487.73 335.5 490.5V500.5C335.5 503.27 333.27 505.5 330.5 505.5C327.73 505.5 325.5 503.27 325.5 500.5V490.5C325.5 487.73 327.73 485.5 330.5 485.5Z" fill="black"/>
<path d="M33 118.5C33.5 120.5 35.5 125.5 39 125.5C43.5 125.5 45.5 121.5 45.5 116.5C45.5 113 44.2105 110.694 43 108C41.7111 105.132 39.8103 102.571 38 100C35.6773 96.701 30.5 90.5 30.5 90.5C30.5 90.5 25.3226 96.701 23 100C21.1897 102.571 19.2889 105.132 18 108C16.7895 110.694 15.5 113 15.5 116.5C15.5 121.5 17.5 125.5 22 125.5C25.5 125.5 27.5 120.5 28 118.5C28.5 118 28.5 118.5 28.5 119C28 123 28 124 27.5 127C27 130 25.5 135.5 25.5 135.5C28 134.5 33 134.5 35.5 135.5C35.5 135.5 34 130 33.5 127C33 124 33 123 32.5 119C32.5 118.5 32.5 118 33 118.5Z" fill="black"/>
<path d="M333 422.5C333.5 420.5 335.5 415.5 339 415.5C343.5 415.5 345.5 419.5 345.5 424.5C345.5 428 344.211 430.306 343 433C341.711 435.868 339.81 438.429 338 441C335.677 444.299 330.5 450.5 330.5 450.5C330.5 450.5 325.323 444.299 323 441C321.19 438.429 319.289 435.868 318 433C316.789 430.306 315.5 428 315.5 424.5C315.5 419.5 317.5 415.5 322 415.5C325.5 415.5 327.5 420.5 328 422.5C328.5 423 328.5 422.5 328.5 422C328 418 328 417 327.5 414C327 411 325.5 405.5 325.5 405.5C328 406.5 333 406.5 335.5 405.5C335.5 405.5 334 411 333.5 414C333 417 333 418 332.5 422C332.5 422.5 332.5 423 333 422.5Z" fill="black"/>
<path d="M95.5 101.5C96.5 105.5 100.5 115.5 107.5 115.5C116.5 115.5 120.5 107.5 120.5 97.5C120.5 90.5 117.921 85.8877 115.5 80.5C112.922 74.7633 109.121 69.6426 105.5 64.5C100.855 57.9021 90.5 45.5 90.5 45.5C90.5 45.5 80.1453 57.9021 75.5 64.5C71.8793 69.6426 68.0779 74.7633 65.5 80.5C63.0789 85.8877 60.5 90.5 60.5 97.5C60.5 107.5 64.5 115.5 73.5 115.5C80.5 115.5 84.5 105.5 85.5 101.5C86.5 100.5 86.5 101.5 86.5 102.5C85.5 110.5 85.5 112.5 84.5 118.5C83.5 124.5 80.5 135.5 80.5 135.5C85.5 133.5 95.5 133.5 100.5 135.5C100.5 135.5 97.5 124.5 96.5 118.5C95.5 112.5 95.5 110.5 94.5 102.5C94.5 101.5 94.5 100.5 95.5 101.5Z" fill="black"/>
<path d="M275.5 101.5C276.5 105.5 280.5 115.5 287.5 115.5C296.5 115.5 300.5 107.5 300.5 97.5C300.5 90.5 297.921 85.8877 295.5 80.5C292.922 74.7633 289.121 69.6426 285.5 64.5C280.855 57.9021 270.5 45.5 270.5 45.5C270.5 45.5 260.145 57.9021 255.5 64.5C251.879 69.6426 248.078 74.7633 245.5 80.5C243.079 85.8877 240.5 90.5 240.5 97.5C240.5 107.5 244.5 115.5 253.5 115.5C260.5 115.5 264.5 105.5 265.5 101.5C266.5 100.5 266.5 101.5 266.5 102.5C265.5 110.5 265.5 112.5 264.5 118.5C263.5 124.5 260.5 135.5 260.5 135.5C265.5 133.5 275.5 133.5 280.5 135.5C280.5 135.5 277.5 124.5 276.5 118.5C275.5 112.5 275.5 110.5 274.5 102.5C274.5 101.5 274.5 100.5 275.5 101.5Z" fill="black"/>
<path d="M95.5 221.5C96.5 225.5 100.5 235.5 107.5 235.5C116.5 235.5 120.5 227.5 120.5 217.5C120.5 210.5 117.921 205.888 115.5 200.5C112.922 194.763 109.121 189.643 105.5 184.5C100.855 177.902 90.5 165.5 90.5 165.5C90.5 165.5 80.1453 177.902 75.5 184.5C71.8793 189.643 68.0779 194.763 65.5 200.5C63.0789 205.888 60.5 210.5 60.5 217.5C60.5 227.5 64.5 235.5 73.5 235.5C80.5 235.5 84.5 225.5 85.5 221.5C86.5 220.5 86.5 221.5 86.5 222.5C85.5 230.5 85.5 232.5 84.5 238.5C83.5 244.5 80.5 255.5 80.5 255.5C85.5 253.5 95.5 253.5 100.5 255.5C100.5 255.5 97.5 244.5 96.5 238.5C95.5 232.5 95.5 230.5 94.5 222.5C94.5 221.5 94.5 220.5 95.5 221.5Z" fill="black"/>
<path d="M275.5 221.5C276.5 225.5 280.5 235.5 287.5 235.5C296.5 235.5 300.5 227.5 300.5 217.5C300.5 210.5 297.921 205.888 295.5 200.5C292.922 194.763 289.121 189.643 285.5 184.5C280.855 177.902 270.5 165.5 270.5 165.5C270.5 165.5 260.145 177.902 255.5 184.5C251.879 189.643 248.078 194.763 245.5 200.5C243.079 205.888 240.5 210.5 240.5 217.5C240.5 227.5 244.5 235.5 253.5 235.5C260.5 235.5 264.5 225.5 265.5 221.5C266.5 220.5 266.5 221.5 266.5 222.5C265.5 230.5 265.5 232.5 264.5 238.5C263.5 244.5 260.5 255.5 260.5 255.5C265.5 253.5 275.5 253.5 280.5 255.5C280.5 255.5 277.5 244.5 276.5 238.5C275.5 232.5 275.5 230.5 274.5 222.5C274.5 221.5 274.5 220.5 275.5 221.5Z" fill="black"/>
<path d="M185.5 281.5C186.5 285.5 190.5 295.5 197.5 295.5C206.5 295.5 210.5 287.5 210.5 277.5C210.5 270.5 207.921 265.888 205.5 260.5C202.922 254.763 199.121 249.643 195.5 244.5C190.855 237.902 180.5 225.5 180.5 225.5C180.5 225.5 170.145 237.902 165.5 244.5C161.879 249.643 158.078 254.763 155.5 260.5C153.079 265.888 150.5 270.5 150.5 277.5C150.5 287.5 154.5 295.5 163.5 295.5C170.5 295.5 174.5 285.5 175.5 281.5C176.5 280.5 176.5 281.5 176.5 282.5C175.5 290.5 175.5 292.5 174.5 298.5C173.5 304.5 170.5 315.5 170.5 315.5C175.5 313.5 185.5 313.5 190.5 315.5C190.5 315.5 187.5 304.5 186.5 298.5C185.5 292.5 185.5 290.5 184.5 282.5C184.5 281.5 184.5 280.5 185.5 281.5Z" fill="black"/>
<path d="M95.5 319.5C96.5 315.5 100.5 305.5 107.5 305.5C116.5 305.5 120.5 313.5 120.5 323.5C120.5 330.5 117.921 335.112 115.5 340.5C112.922 346.237 109.121 351.357 105.5 356.5C100.855 363.098 90.5 375.5 90.5 375.5C90.5 375.5 80.1453 363.098 75.5 356.5C71.8793 351.357 68.0779 346.237 65.5 340.5C63.0789 335.112 60.5 330.5 60.5 323.5C60.5 313.5 64.5 305.5 73.5 305.5C80.5 305.5 84.5 315.5 85.5 319.5C86.5 320.5 86.5 319.5 86.5 318.5C85.5 310.5 85.5 308.5 84.5 302.5C83.5 296.5 80.5 285.5 80.5 285.5C85.5 287.5 95.5 287.5 100.5 285.5C100.5 285.5 97.5 296.5 96.5 302.5C95.5 308.5 95.5 310.5 94.5 318.5C94.5 319.5 94.5 320.5 95.5 319.5Z" fill="black"/>
<path d="M275.5 319.5C276.5 315.5 280.5 305.5 287.5 305.5C296.5 305.5 300.5 313.5 300.5 323.5C300.5 330.5 297.921 335.112 295.5 340.5C292.922 346.237 289.121 351.357 285.5 356.5C280.855 363.098 270.5 375.5 270.5 375.5C270.5 375.5 260.145 363.098 255.5 356.5C251.879 351.357 248.078 346.237 245.5 340.5C243.079 335.112 240.5 330.5 240.5 323.5C240.5 313.5 244.5 305.5 253.5 305.5C260.5 305.5 264.5 315.5 265.5 319.5C266.5 320.5 266.5 319.5 266.5 318.5C265.5 310.5 265.5 308.5 264.5 302.5C263.5 296.5 260.5 285.5 260.5 285.5C265.5 287.5 275.5 287.5 280.5 285.5C280.5 285.5 277.5 296.5 276.5 302.5C275.5 308.5 275.5 310.5 274.5 318.5C274.5 319.5 274.5 320.5 275.5 319.5Z" fill="black"/>
<path d="M95.5 439.5C96.5 435.5 100.5 425.5 107.5 425.5C116.5 425.5 120.5 433.5 120.5 443.5C120.5 450.5 117.921 455.112 115.5 460.5C112.922 466.237 109.121 471.357 105.5 476.5C100.855 483.098 90.5 495.5 90.5 495.5C90.5 495.5 80.1453 483.098 75.5 476.5C71.8793 471.357 68.0779 466.237 65.5 460.5C63.0789 455.112 60.5 450.5 60.5 443.5C60.5 433.5 64.5 425.5 73.5 425.5C80.5 425.5 84.5 435.5 85.5 439.5C86.5 440.5 86.5 439.5 86.5 438.5C85.5 430.5 85.5 428.5 84.5 422.5C83.5 416.5 80.5 405.5 80.5 405.5C85.5 407.5 95.5 407.5 100.5 405.5C100.5 405.5 97.5 416.5 96.5 422.5C95.5 428.5 95.5 430.5 94.5 438.5C94.5 439.5 94.5 440.5 95.5 439.5Z" fill="black"/>
<path d="M275.5 439.5C276.5 435.5 280.5 425.5 287.5 425.5C296.5 425.5 300.5 433.5 300.5 443.5C300.5 450.5 297.921 455.112 295.5 460.5C292.922 466.237 289.121 471.357 285.5 476.5C280.855 483.098 270.5 495.5 270.5 495.5C270.5 495.5 260.145 483.098 255.5 476.5C251.879 471.357 248.078 466.237 245.5 460.5C243.079 455.112 240.5 450.5 240.5 443.5C240.5 433.5 244.5 425.5 253.5 425.5C260.5 425.5 264.5 435.5 265.5 439.5C266.5 440.5 266.5 439.5 266.5 438.5C265.5 430.5 265.5 428.5 264.5 422.5C263.5 416.5 260.5 405.5 260.5 405.5C265.5 407.5 275.5 407.5 280.5 405.5C280.5 405.5 277.5 416.5 276.5 422.5C275.5 428.5 275.5 430.5 274.5 438.5C274.5 439.5 274.5 440.5 275.5 439.5Z" fill="black"/>
</svg>
